G04 ================== begin FILE IDENTIFICATION RECORD ==================*
G04 Layout Name:  C:/WORK_ORCAD/CHOPPINGWAVEOSC/allegro/CHOPPING/CHOPPINGWAVEOSC.brd*
G04 Film Name:    DrillDraw*
G04 File Format:  Gerber RS274X*
G04 File Origin:  Cadence Allegro 17.2-P019*
G04 Origin Date:  Wed Jul 31 12:03:07 2019*
G04 *
G04 Layer:  MANUFACTURING/NCLEGEND-1-2*
G04 Layer:  BOARD GEOMETRY/OUTLINE*
G04 Layer:  BOARD GEOMETRY/DESIGN_OUTLINE*
G04 *
G04 Offset:    (0.000 0.000)*
G04 Mirror:    No*
G04 Mode:      Positive*
G04 Rotation:  0*
G04 FullContactRelief:  No*
G04 UndefLineWidth:     0.100*
G04 ================== end FILE IDENTIFICATION RECORD ====================*
%FSLAX25Y25*MOMM*%
%IR0*IPPOS*OFA0.00000B0.00000*MIA0B0*SFA1.00000B1.00000*%
%AMMACRO12*
1,1,.1,-.508,.3175*
20,1,.1,-.508,.3175,-.500282,.405713,0.0*
1,1,.1,-.500282,.405713*
20,1,.1,-.500282,.405713,-.477364,.491246,0.0*
1,1,.1,-.477364,.491246*
20,1,.1,-.477364,.491246,-.439941,.5715,0.0*
1,1,.1,-.439941,.5715*
20,1,.1,-.439941,.5715,-.389151,.644036,0.0*
1,1,.1,-.389151,.644036*
20,1,.1,-.389151,.644036,-.326536,.706651,0.0*
1,1,.1,-.326536,.706651*
20,1,.1,-.326536,.706651,-.254,.757441,0.0*
1,1,.1,-.254,.757441*
20,1,.1,-.254,.757441,-.173746,.794864,0.0*
1,1,.1,-.173746,.794864*
20,1,.1,-.173746,.794864,-.088213,.817782,0.0*
1,1,.1,-.088213,.817782*
20,1,.1,-.088213,.817782,0.0,.8255,0.0*
1,1,.1,0.0,.8255*
20,1,.1,0.0,.8255,.088213,.817782,0.0*
1,1,.1,.088213,.817782*
20,1,.1,.088213,.817782,.173746,.794864,0.0*
1,1,.1,.173746,.794864*
20,1,.1,.173746,.794864,.254,.757441,0.0*
1,1,.1,.254,.757441*
20,1,.1,.254,.757441,.326536,.706651,0.0*
1,1,.1,.326536,.706651*
20,1,.1,.326536,.706651,.389151,.644036,0.0*
1,1,.1,.389151,.644036*
20,1,.1,.389151,.644036,.439941,.5715,0.0*
1,1,.1,.439941,.5715*
20,1,.1,.439941,.5715,.477364,.491246,0.0*
1,1,.1,.477364,.491246*
20,1,.1,.477364,.491246,.500282,.405713,0.0*
1,1,.1,.500282,.405713*
20,1,.1,.500282,.405713,.508,.3175,0.0*
1,1,.1,.508,.3175*
20,1,.1,.508,.3175,.508,-.3175,0.0*
1,1,.1,.508,-.3175*
20,1,.1,.508,-.3175,.500282,-.405713,0.0*
1,1,.1,.500282,-.405713*
20,1,.1,.500282,-.405713,.477364,-.491246,0.0*
1,1,.1,.477364,-.491246*
20,1,.1,.477364,-.491246,.439941,-.5715,0.0*
1,1,.1,.439941,-.5715*
20,1,.1,.439941,-.5715,.389151,-.644036,0.0*
1,1,.1,.389151,-.644036*
20,1,.1,.389151,-.644036,.326536,-.706651,0.0*
1,1,.1,.326536,-.706651*
20,1,.1,.326536,-.706651,.254,-.757441,0.0*
1,1,.1,.254,-.757441*
20,1,.1,.254,-.757441,.173746,-.794864,0.0*
1,1,.1,.173746,-.794864*
20,1,.1,.173746,-.794864,.088213,-.817782,0.0*
1,1,.1,.088213,-.817782*
20,1,.1,.088213,-.817782,0.0,-.8255,0.0*
1,1,.1,0.0,-.8255*
20,1,.1,0.0,-.8255,-.088213,-.817782,0.0*
1,1,.1,-.088213,-.817782*
20,1,.1,-.088213,-.817782,-.173746,-.794864,0.0*
1,1,.1,-.173746,-.794864*
20,1,.1,-.173746,-.794864,-.254,-.757441,0.0*
1,1,.1,-.254,-.757441*
20,1,.1,-.254,-.757441,-.326536,-.706651,0.0*
1,1,.1,-.326536,-.706651*
20,1,.1,-.326536,-.706651,-.389151,-.644036,0.0*
1,1,.1,-.389151,-.644036*
20,1,.1,-.389151,-.644036,-.439941,-.5715,0.0*
1,1,.1,-.439941,-.5715*
20,1,.1,-.439941,-.5715,-.477364,-.491246,0.0*
1,1,.1,-.477364,-.491246*
20,1,.1,-.477364,-.491246,-.500282,-.405713,0.0*
1,1,.1,-.500282,-.405713*
20,1,.1,-.500282,-.405713,-.508,-.3175,0.0*
1,1,.1,-.508,-.3175*
20,1,.1,-.508,-.3175,-.508,.3175,0.0*
1,1,.1,-.508,.3175*
%
%ADD12MACRO12*%
%AMMACRO11*
1,1,.1,.635,0.0*
20,1,.1,.635,0.0,.3175,.549926,0.0*
1,1,.1,.3175,.549926*
20,1,.1,.3175,.549926,-.3175,.549926,0.0*
1,1,.1,-.3175,.549926*
20,1,.1,-.3175,.549926,-.635,0.0,0.0*
1,1,.1,-.635,0.0*
20,1,.1,-.635,0.0,-.3175,-.549926,0.0*
1,1,.1,-.3175,-.549926*
20,1,.1,-.3175,-.549926,.3175,-.549926,0.0*
1,1,.1,.3175,-.549926*
20,1,.1,.3175,-.549926,.635,0.0,0.0*
1,1,.1,.635,0.0*
%
%ADD11MACRO11*%
%AMMACRO10*
1,1,.1,-.666,-.952*
20,1,.1,-.666,-.952,.667,.953,0.0*
1,1,.1,.667,.953*
1,1,.1,-.666,.953*
20,1,.1,-.666,.953,.667,-.952,0.0*
1,1,.1,.667,-.952*
%
%ADD10MACRO10*%
%ADD13C,.1*%
G75*
%LPD*%
G75*
G54D10*
X500000Y500000D03*
Y6500000D03*
X1078000Y9192500D03*
X9500000Y500000D03*
Y6500000D03*
G54D11*
X610000Y2992000D03*
Y3246000D03*
Y3500000D03*
X1078000Y10462500D03*
X1651000Y4191000D03*
X1397000D03*
X1524000Y4826000D03*
Y5080000D03*
X2667000Y4635500D03*
Y5143500D03*
X2857500Y2730500D03*
Y2984500D03*
Y3238500D03*
Y3492500D03*
X2921000Y4889500D03*
X3619500Y2730500D03*
Y2984500D03*
Y3238500D03*
Y3492500D03*
X4064000Y4127500D03*
X4254500Y4635500D03*
X4000500Y4889500D03*
X4254500Y5143500D03*
X4699000Y2159000D03*
X4953000D03*
X4318000Y4127500D03*
X5715000Y2794000D03*
Y3556000D03*
X6477000Y2794000D03*
X6223000D03*
X5969000D03*
X6477000Y3556000D03*
X6223000D03*
X5969000D03*
X7302500Y1143000D03*
Y1905000D03*
X7556500Y1143000D03*
X7810500D03*
X8064500D03*
X7556500Y1905000D03*
X7810500D03*
X8064500D03*
X7810500Y3429000D03*
X8064500Y3175000D03*
X7810500Y2921000D03*
X7747000Y3937000D03*
Y4191000D03*
Y4445000D03*
Y4699000D03*
X8509000Y3937000D03*
Y4191000D03*
Y4445000D03*
Y4699000D03*
X9334500Y3429000D03*
Y3683000D03*
G54D12*
X1078000Y9827500D03*
X1333500Y2413000D03*
Y3238500D03*
X1270000Y2857500D03*
X1333500Y3619500D03*
X2349500Y2413000D03*
Y3238500D03*
X2286000Y2857500D03*
X2349500Y3619500D03*
X4127500Y2667000D03*
Y3683000D03*
X4635500Y2667000D03*
Y3683000D03*
X5651500Y1651000D03*
Y1270000D03*
X5143500Y2667000D03*
X5651500Y2095500D03*
X5143500Y3683000D03*
X5080000Y4508500D03*
X6096000D03*
X6667500Y1651000D03*
Y1270000D03*
Y2095500D03*
X7556500Y2413000D03*
X7674000Y5170000D03*
X8572500Y2413000D03*
X8690000Y5170000D03*
G54D13*
G01X0Y0D02*
Y7000000D01*
X10000000D01*
Y0D01*
X0D01*
G01X-63500Y8875000D02*
Y12700000D01*
X12532400D01*
Y8875000D01*
X-63500D01*
G01Y10145000D02*
X12532400D01*
G01X-63500Y9510000D02*
X12532400D01*
G01X215900Y10938800D02*
Y11256300D01*
X365500D01*
G01X310400Y11102800D02*
X215900D01*
G01X558400Y11256300D02*
X652800D01*
G01X605600D02*
Y10938800D01*
G01X558400D02*
X652800D01*
G01X944100Y11097500D02*
X1022900D01*
Y11002300D01*
X999200Y10970500D01*
X971700Y10949400D01*
X932300Y10938800D01*
X892900Y10949400D01*
X865400Y10970500D01*
X841800Y11002300D01*
X826000Y11039300D01*
X818100Y11081700D01*
Y11118700D01*
X826000Y11150500D01*
X841800Y11187500D01*
X865400Y11219300D01*
X889000Y11240400D01*
X920500Y11256300D01*
X948100D01*
X979500Y11245700D01*
X1003200Y11224500D01*
G01X1148800Y11256300D02*
Y11028800D01*
X1164500Y10981100D01*
X1196000Y10949400D01*
X1235400Y10938800D01*
X1274800Y10949400D01*
X1306300Y10981100D01*
X1322000Y11028800D01*
Y11256300D01*
G01X1471600Y10938800D02*
Y11256300D01*
X1570000D01*
X1601500Y11240400D01*
X1621200Y11219300D01*
X1629000Y11176900D01*
X1621200Y11134600D01*
X1597500Y11108100D01*
X1570000Y11092300D01*
X1471600D01*
G01X1570000D02*
X1629000Y10938800D01*
G01X1943900D02*
X1786500D01*
Y11256300D01*
X1943900D01*
G01X1880900Y11102800D02*
X1786500D01*
G01X-63500Y10780000D02*
X12532400D01*
G01X-63500Y11415000D02*
X12532400D01*
G01X-63500Y12050000D02*
X12532400D01*
G01X2219500Y11415000D02*
Y8875000D01*
G01X1884800Y11573800D02*
X1983200Y11891300D01*
X2081600Y11573800D01*
G01X2046200Y11684900D02*
X1920200D01*
G01X2219400Y11891300D02*
Y11573800D01*
X2376800D01*
G01X2534300Y11891300D02*
Y11573800D01*
X2691700D01*
G01X3156200Y11891300D02*
Y11663800D01*
X3171900Y11616100D01*
X3203400Y11584400D01*
X3242800Y11573800D01*
X3282200Y11584400D01*
X3313700Y11616100D01*
X3329400Y11663800D01*
Y11891300D01*
G01X3467200Y11573800D02*
Y11891300D01*
X3648200Y11573800D01*
Y11891300D01*
G01X3825400D02*
X3919800D01*
G01X3872600D02*
Y11573800D01*
G01X3825400D02*
X3919800D01*
G01X4187500Y11891300D02*
Y11573800D01*
G01X4097000Y11891300D02*
X4278000D01*
G01X4419700Y11616100D02*
X4451200Y11589700D01*
X4486700Y11573800D01*
X4518100D01*
X4549600Y11589700D01*
X4573300Y11616100D01*
X4585100Y11653200D01*
X4577200Y11690200D01*
X4557500Y11722000D01*
X4522100Y11743100D01*
X4474800Y11753700D01*
X4447300Y11774900D01*
X4435500Y11811900D01*
X4443400Y11849000D01*
X4463000Y11875400D01*
X4490600Y11891300D01*
X4518100D01*
X4545700Y11880700D01*
X4569300Y11854300D01*
G01X5033800Y11573800D02*
X5132200Y11891300D01*
X5230600Y11573800D01*
G01X5195200Y11684900D02*
X5069200D01*
G01X5368400Y11573800D02*
Y11891300D01*
X5466800D01*
X5498300Y11875400D01*
X5518000Y11854300D01*
X5525800Y11811900D01*
X5518000Y11769600D01*
X5494300Y11743100D01*
X5466800Y11727300D01*
X5368400D01*
G01X5466800D02*
X5525800Y11573800D01*
G01X5840700D02*
X5683300D01*
Y11891300D01*
X5840700D01*
G01X5777700Y11737800D02*
X5683300D01*
G01X6344600Y11891300D02*
X6439000D01*
G01X6391800D02*
Y11573800D01*
G01X6344600D02*
X6439000D01*
G01X6616200D02*
Y11891300D01*
X6797200Y11573800D01*
Y11891300D01*
G01X7234100Y11573800D02*
Y11891300D01*
X7336500Y11626700D01*
X7438900Y11891300D01*
Y11573800D01*
G01X7604200Y11891300D02*
X7698600D01*
G01X7651400D02*
Y11573800D01*
G01X7604200D02*
X7698600D01*
G01X7887600Y11891300D02*
Y11573800D01*
X8045000D01*
G01X8202500Y11891300D02*
Y11573800D01*
X8359900D01*
G01X8548900Y11891300D02*
X8643300D01*
G01X8596100D02*
Y11573800D01*
G01X8548900D02*
X8643300D01*
G01X8808600D02*
Y11891300D01*
X8911000Y11626700D01*
X9013400Y11891300D01*
Y11573800D01*
G01X9304600D02*
X9147200D01*
Y11891300D01*
X9304600D01*
G01X9241600Y11737800D02*
X9147200D01*
G01X9540800Y11891300D02*
Y11573800D01*
G01X9450300Y11891300D02*
X9631300D01*
G01X9934400Y11573800D02*
X9777000D01*
Y11891300D01*
X9934400D01*
G01X9871400Y11737800D02*
X9777000D01*
G01X10091900Y11573800D02*
Y11891300D01*
X10190300D01*
X10221800Y11875400D01*
X10241500Y11854300D01*
X10249300Y11811900D01*
X10241500Y11769600D01*
X10217800Y11743100D01*
X10190300Y11727300D01*
X10091900D01*
G01X10190300D02*
X10249300Y11573800D01*
G01X10402800Y11616100D02*
X10434300Y11589700D01*
X10469800Y11573800D01*
X10501200D01*
X10532700Y11589700D01*
X10556400Y11616100D01*
X10568200Y11653200D01*
X10560300Y11690200D01*
X10540600Y11722000D01*
X10505200Y11743100D01*
X10457900Y11753700D01*
X10430400Y11774900D01*
X10418600Y11811900D01*
X10426500Y11849000D01*
X10446100Y11875400D01*
X10473700Y11891300D01*
X10501200D01*
X10528800Y11880700D01*
X10552400Y11854300D01*
G01X2211500Y12223800D02*
Y12541300D01*
X2290200D01*
X2321700Y12525400D01*
X2345300Y12504300D01*
X2365000Y12472500D01*
X2380800Y12435500D01*
X2384700Y12382500D01*
X2380800Y12329600D01*
X2365000Y12292600D01*
X2345300Y12260800D01*
X2321700Y12239700D01*
X2290200Y12223800D01*
X2211500D01*
G01X2534300D02*
Y12541300D01*
X2632700D01*
X2664200Y12525400D01*
X2683900Y12504300D01*
X2691700Y12461900D01*
X2683900Y12419600D01*
X2660200Y12393100D01*
X2632700Y12377300D01*
X2534300D01*
G01X2632700D02*
X2691700Y12223800D01*
G01X2880700Y12541300D02*
X2975100D01*
G01X2927900D02*
Y12223800D01*
G01X2880700D02*
X2975100D01*
G01X3164100Y12541300D02*
Y12223800D01*
X3321500D01*
G01X3479000Y12541300D02*
Y12223800D01*
X3636400D01*
G01X4274100Y12514800D02*
X4250500Y12530700D01*
X4222900Y12541300D01*
X4191400D01*
X4156000Y12525400D01*
X4128500Y12499000D01*
X4108800Y12467200D01*
X4093000Y12414300D01*
X4089100Y12366700D01*
X4097000Y12319000D01*
X4108800Y12287300D01*
X4132400Y12255500D01*
X4159900Y12234400D01*
X4187500Y12223800D01*
X4215100D01*
X4242600Y12234400D01*
X4266200Y12250300D01*
X4285900Y12271400D01*
G01X4419700Y12223800D02*
Y12541300D01*
G01X4585100D02*
Y12223800D01*
G01Y12382500D02*
X4419700D01*
G01X4718900Y12223800D02*
X4817300Y12541300D01*
X4915700Y12223800D01*
G01X4880300Y12334900D02*
X4754300D01*
G01X5053500Y12223800D02*
Y12541300D01*
X5151900D01*
X5183400Y12525400D01*
X5203100Y12504300D01*
X5210900Y12461900D01*
X5203100Y12419600D01*
X5179400Y12393100D01*
X5151900Y12377300D01*
X5053500D01*
G01X5151900D02*
X5210900Y12223800D01*
G01X5447100Y12541300D02*
Y12223800D01*
G01X5356600Y12541300D02*
X5537600D01*
G01X5762000Y12213200D02*
X5754100Y12218500D01*
Y12229100D01*
X5762000Y12234400D01*
X5769900Y12229100D01*
Y12218500D01*
X5762000Y12213200D01*
G01Y12356100D02*
X5754100Y12361400D01*
Y12372000D01*
X5762000Y12377300D01*
X5769900Y12372000D01*
Y12361400D01*
X5762000Y12356100D01*
G01X6391800Y12541300D02*
Y12223800D01*
G01X6301300Y12541300D02*
X6482300D01*
G01X6706700Y12223800D02*
X6675200Y12229100D01*
X6647700Y12250300D01*
X6624000Y12282000D01*
X6608300Y12319000D01*
X6600400Y12361400D01*
Y12403700D01*
X6608300Y12446100D01*
X6624000Y12483100D01*
X6647700Y12514800D01*
X6675200Y12536000D01*
X6706700Y12541300D01*
X6738200Y12536000D01*
X6765700Y12514800D01*
X6789400Y12483100D01*
X6805100Y12446100D01*
X6813000Y12403700D01*
Y12361400D01*
X6805100Y12319000D01*
X6789400Y12282000D01*
X6765700Y12250300D01*
X6738200Y12229100D01*
X6706700Y12223800D01*
G01X6942900D02*
Y12541300D01*
X7037300D01*
X7068800Y12525400D01*
X7092500Y12488400D01*
X7100300Y12446100D01*
X7092500Y12403700D01*
X7072800Y12372000D01*
X7037300Y12356100D01*
X6942900D01*
G01X7651400Y12541300D02*
Y12223800D01*
G01X7596300Y12435500D02*
X7706500D01*
G01X7966300Y12223800D02*
X7942700Y12229100D01*
X7919100Y12250300D01*
X7903300Y12287300D01*
X7895400Y12329600D01*
X7903300Y12372000D01*
X7919100Y12409000D01*
X7942700Y12430200D01*
X7966300Y12435500D01*
X7989900Y12430200D01*
X8013500Y12409000D01*
X8029300Y12372000D01*
X8033200Y12329600D01*
X8029300Y12287300D01*
X8013500Y12250300D01*
X7989900Y12229100D01*
X7966300Y12223800D01*
G01X8627600Y12393100D02*
X8643300Y12409000D01*
X8655100Y12435500D01*
X8663000Y12472500D01*
X8655100Y12504300D01*
X8639400Y12525400D01*
X8611800Y12541300D01*
X8505600D01*
Y12223800D01*
X8635500D01*
X8663000Y12245000D01*
X8678800Y12276700D01*
X8686600Y12313800D01*
X8678800Y12350800D01*
X8655100Y12382500D01*
X8627600Y12393100D01*
X8505600D01*
G01X8911000Y12223800D02*
X8879500Y12229100D01*
X8852000Y12250300D01*
X8828300Y12282000D01*
X8812600Y12319000D01*
X8804700Y12361400D01*
Y12403700D01*
X8812600Y12446100D01*
X8828300Y12483100D01*
X8852000Y12514800D01*
X8879500Y12536000D01*
X8911000Y12541300D01*
X8942500Y12536000D01*
X8970000Y12514800D01*
X8993700Y12483100D01*
X9009400Y12446100D01*
X9017300Y12403700D01*
Y12361400D01*
X9009400Y12319000D01*
X8993700Y12282000D01*
X8970000Y12250300D01*
X8942500Y12229100D01*
X8911000Y12223800D01*
G01X9225900Y12541300D02*
Y12223800D01*
G01X9135400Y12541300D02*
X9316400D01*
G01X9540800D02*
Y12223800D01*
G01X9450300Y12541300D02*
X9631300D01*
G01X9855700Y12223800D02*
X9824200Y12229100D01*
X9796700Y12250300D01*
X9773000Y12282000D01*
X9757300Y12319000D01*
X9749400Y12361400D01*
Y12403700D01*
X9757300Y12446100D01*
X9773000Y12483100D01*
X9796700Y12514800D01*
X9824200Y12536000D01*
X9855700Y12541300D01*
X9887200Y12536000D01*
X9914700Y12514800D01*
X9938400Y12483100D01*
X9954100Y12446100D01*
X9962000Y12403700D01*
Y12361400D01*
X9954100Y12319000D01*
X9938400Y12282000D01*
X9914700Y12250300D01*
X9887200Y12229100D01*
X9855700Y12223800D01*
G01X10068200D02*
Y12541300D01*
X10170600Y12276700D01*
X10273000Y12541300D01*
Y12223800D01*
G01X2813800Y10938800D02*
Y11256300D01*
X2963400D01*
G01X2908300Y11102800D02*
X2813800D01*
G01X3156300Y11256300D02*
X3250700D01*
G01X3203500D02*
Y10938800D01*
G01X3156300D02*
X3250700D01*
G01X3427900D02*
Y11256300D01*
X3608900Y10938800D01*
Y11256300D01*
G01X3786100D02*
X3880500D01*
G01X3833300D02*
Y10938800D01*
G01X3786100D02*
X3880500D01*
G01X4065500Y10981100D02*
X4097000Y10954700D01*
X4132500Y10938800D01*
X4163900D01*
X4195400Y10954700D01*
X4219100Y10981100D01*
X4230900Y11018200D01*
X4223000Y11055200D01*
X4203300Y11087000D01*
X4167900Y11108100D01*
X4120600Y11118700D01*
X4093100Y11139900D01*
X4081300Y11176900D01*
X4089200Y11214000D01*
X4108800Y11240400D01*
X4136400Y11256300D01*
X4163900D01*
X4191500Y11245700D01*
X4215100Y11219300D01*
G01X4380400Y10938800D02*
Y11256300D01*
G01X4545800D02*
Y10938800D01*
G01Y11097500D02*
X4380400D01*
G01X4856700Y10938800D02*
X4699300D01*
Y11256300D01*
X4856700D01*
G01X4793700Y11102800D02*
X4699300D01*
G01X5006300Y10938800D02*
Y11256300D01*
X5085000D01*
X5116500Y11240400D01*
X5140100Y11219300D01*
X5159800Y11187500D01*
X5175600Y11150500D01*
X5179500Y11097500D01*
X5175600Y11044600D01*
X5159800Y11007600D01*
X5140100Y10975800D01*
X5116500Y10954700D01*
X5085000Y10938800D01*
X5006300D01*
G01X5289700Y10833000D02*
X5525900D01*
G01X5640000Y10981100D02*
X5671500Y10954700D01*
X5707000Y10938800D01*
X5738400D01*
X5769900Y10954700D01*
X5793600Y10981100D01*
X5805400Y11018200D01*
X5797500Y11055200D01*
X5777800Y11087000D01*
X5742400Y11108100D01*
X5695100Y11118700D01*
X5667600Y11139900D01*
X5655800Y11176900D01*
X5663700Y11214000D01*
X5683300Y11240400D01*
X5710900Y11256300D01*
X5738400D01*
X5766000Y11245700D01*
X5789600Y11219300D01*
G01X5990400Y11256300D02*
X6084800D01*
G01X6037600D02*
Y10938800D01*
G01X5990400D02*
X6084800D01*
G01X6277700Y11256300D02*
X6427300D01*
X6277700Y10938800D01*
X6427300D01*
G01X6746100D02*
X6588700D01*
Y11256300D01*
X6746100D01*
G01X6683100Y11102800D02*
X6588700D01*
G01X4061600Y9097300D02*
X4085200Y9060300D01*
X4116700Y9039100D01*
X4152100Y9033800D01*
X4183600Y9039100D01*
X4215100Y9065500D01*
X4234800Y9097300D01*
X4238700Y9129000D01*
X4230900Y9166100D01*
X4203300Y9192500D01*
X4175800Y9203100D01*
X4140300D01*
G01X4175800D02*
X4199400Y9219000D01*
X4219100Y9245500D01*
X4226900Y9277200D01*
X4219100Y9309000D01*
X4199400Y9335400D01*
X4163900Y9351300D01*
X4128500Y9346000D01*
X4093100Y9324800D01*
G01X4463100Y9023200D02*
X4455200Y9028500D01*
Y9039100D01*
X4463100Y9044400D01*
X4471000Y9039100D01*
Y9028500D01*
X4463100Y9023200D01*
G01X4778000Y9033800D02*
Y9351300D01*
X4730800Y9287800D01*
G01Y9033800D02*
X4825200D01*
G01X5085000D02*
X5092900Y9102600D01*
X5104700Y9160800D01*
X5120500Y9213700D01*
X5140100Y9271900D01*
X5171600Y9351300D01*
X5014200D01*
G01X5321200Y9081400D02*
X5344800Y9055000D01*
X5372400Y9039100D01*
X5407800Y9033800D01*
X5443200Y9044400D01*
X5470800Y9065500D01*
X5490500Y9102600D01*
X5494400Y9144900D01*
X5486500Y9187300D01*
X5466800Y9213700D01*
X5439300Y9234900D01*
X5411700Y9240200D01*
X5384200Y9234900D01*
X5348800Y9213700D01*
X5360600Y9351300D01*
X5466800D01*
G01X4148200Y10621300D02*
X4116700Y10610700D01*
X4093100Y10584300D01*
X4077300Y10552500D01*
X4065500Y10510200D01*
X4061600Y10462500D01*
X4065500Y10414900D01*
X4077300Y10372600D01*
X4093100Y10340800D01*
X4116700Y10314400D01*
X4148200Y10303800D01*
X4179700Y10314400D01*
X4203300Y10340800D01*
X4219100Y10372600D01*
X4230900Y10414900D01*
X4234800Y10462500D01*
X4230900Y10510200D01*
X4219100Y10552500D01*
X4203300Y10584300D01*
X4179700Y10610700D01*
X4148200Y10621300D01*
G01X4463100Y10293200D02*
X4455200Y10298500D01*
Y10309100D01*
X4463100Y10314400D01*
X4471000Y10309100D01*
Y10298500D01*
X4463100Y10293200D01*
G01X4711100Y10340800D02*
X4738600Y10314400D01*
X4770100Y10303800D01*
X4801600Y10314400D01*
X4829200Y10346100D01*
X4848900Y10393800D01*
X4856700Y10441400D01*
Y10499600D01*
X4848900Y10547200D01*
X4829200Y10589500D01*
X4805600Y10610700D01*
X4778000Y10621300D01*
X4746500Y10610700D01*
X4722900Y10589500D01*
X4707100Y10557800D01*
X4699300Y10515500D01*
X4707100Y10478400D01*
X4726800Y10441400D01*
X4750400Y10420200D01*
X4778000Y10414900D01*
X4809500Y10425500D01*
X4833100Y10452000D01*
X4856700Y10499600D01*
G01X5092900Y10303800D02*
Y10621300D01*
X5045700Y10557800D01*
G01Y10303800D02*
X5140100D01*
G01X5455000D02*
Y10621300D01*
X5309400Y10393800D01*
X5506200D01*
G01X4148200Y9668800D02*
Y9986300D01*
X4101000Y9922800D01*
G01Y9668800D02*
X4195400D01*
G01X4463100Y9658200D02*
X4455200Y9663500D01*
Y9674100D01*
X4463100Y9679400D01*
X4471000Y9674100D01*
Y9663500D01*
X4463100Y9658200D01*
G01X4778000Y9986300D02*
X4746500Y9975700D01*
X4722900Y9949300D01*
X4707100Y9917500D01*
X4695300Y9875200D01*
X4691400Y9827500D01*
X4695300Y9779900D01*
X4707100Y9737600D01*
X4722900Y9705800D01*
X4746500Y9679400D01*
X4778000Y9668800D01*
X4809500Y9679400D01*
X4833100Y9705800D01*
X4848900Y9737600D01*
X4860700Y9779900D01*
X4864600Y9827500D01*
X4860700Y9875200D01*
X4848900Y9917500D01*
X4833100Y9949300D01*
X4809500Y9975700D01*
X4778000Y9986300D01*
G01X5018100Y9801100D02*
X5045700Y9838100D01*
X5069300Y9859300D01*
X5100800Y9869900D01*
X5128300Y9859300D01*
X5148000Y9838100D01*
X5163800Y9806400D01*
X5167700Y9769300D01*
X5163800Y9737600D01*
X5148000Y9705800D01*
X5124400Y9679400D01*
X5096800Y9668800D01*
X5065300Y9679400D01*
X5037800Y9711100D01*
X5022000Y9758800D01*
X5018100Y9811700D01*
X5026000Y9880500D01*
X5037800Y9917500D01*
X5057500Y9954500D01*
X5085000Y9981000D01*
X5112600Y9986300D01*
X5140100Y9975700D01*
X5159800Y9949300D01*
G01X5399900Y9668800D02*
X5407800Y9737600D01*
X5419600Y9795800D01*
X5435400Y9848700D01*
X5455000Y9906900D01*
X5486500Y9986300D01*
X5329100D01*
G01X7442800Y9033800D02*
Y9351300D01*
X7623800Y9033800D01*
Y9351300D01*
G01X7848200Y9033800D02*
X7816700Y9039100D01*
X7789200Y9060300D01*
X7765500Y9092000D01*
X7749800Y9129000D01*
X7741900Y9171400D01*
Y9213700D01*
X7749800Y9256100D01*
X7765500Y9293100D01*
X7789200Y9324800D01*
X7816700Y9346000D01*
X7848200Y9351300D01*
X7879700Y9346000D01*
X7907200Y9324800D01*
X7930900Y9293100D01*
X7946600Y9256100D01*
X7954500Y9213700D01*
Y9171400D01*
X7946600Y9129000D01*
X7930900Y9092000D01*
X7907200Y9060300D01*
X7879700Y9039100D01*
X7848200Y9033800D01*
G01X8072600D02*
Y9351300D01*
X8253600Y9033800D01*
Y9351300D01*
G01X8426800Y9139600D02*
X8529200D01*
G01X8714200Y9033800D02*
Y9351300D01*
X8808600D01*
X8840100Y9335400D01*
X8863800Y9298400D01*
X8871600Y9256100D01*
X8863800Y9213700D01*
X8844100Y9182000D01*
X8808600Y9166100D01*
X8714200D01*
G01X9029100Y9351300D02*
Y9033800D01*
X9186500D01*
G01X9324300D02*
X9422700Y9351300D01*
X9521100Y9033800D01*
G01X9485700Y9144900D02*
X9359700D01*
G01X9737600Y9351300D02*
Y9033800D01*
G01X9647100Y9351300D02*
X9828100D01*
G01X10131200Y9033800D02*
X9973800D01*
Y9351300D01*
X10131200D01*
G01X10068200Y9197800D02*
X9973800D01*
G01X10280800Y9033800D02*
Y9351300D01*
X10359500D01*
X10391000Y9335400D01*
X10414600Y9314300D01*
X10434300Y9282500D01*
X10450100Y9245500D01*
X10454000Y9192500D01*
X10450100Y9139600D01*
X10434300Y9102600D01*
X10414600Y9070800D01*
X10391000Y9049700D01*
X10359500Y9033800D01*
X10280800D01*
G01X7336600Y11415000D02*
Y8875000D01*
G01X8084400Y10303800D02*
Y10621300D01*
X8178800D01*
X8210300Y10605400D01*
X8234000Y10568400D01*
X8241800Y10526100D01*
X8234000Y10483700D01*
X8214300Y10452000D01*
X8178800Y10436100D01*
X8084400D01*
G01X8399300Y10621300D02*
Y10303800D01*
X8556700D01*
G01X8694500D02*
X8792900Y10621300D01*
X8891300Y10303800D01*
G01X8855900Y10414900D02*
X8729900D01*
G01X9107800Y10621300D02*
Y10303800D01*
G01X9017300Y10621300D02*
X9198300D01*
G01X9501400Y10303800D02*
X9344000D01*
Y10621300D01*
X9501400D01*
G01X9438400Y10467800D02*
X9344000D01*
G01X9651000Y10303800D02*
Y10621300D01*
X9729700D01*
X9761200Y10605400D01*
X9784800Y10584300D01*
X9804500Y10552500D01*
X9820300Y10515500D01*
X9824200Y10462500D01*
X9820300Y10409600D01*
X9804500Y10372600D01*
X9784800Y10340800D01*
X9761200Y10319700D01*
X9729700Y10303800D01*
X9651000D01*
G01X8084400Y9668800D02*
Y9986300D01*
X8178800D01*
X8210300Y9970400D01*
X8234000Y9933400D01*
X8241800Y9891100D01*
X8234000Y9848700D01*
X8214300Y9817000D01*
X8178800Y9801100D01*
X8084400D01*
G01X8399300Y9986300D02*
Y9668800D01*
X8556700D01*
G01X8694500D02*
X8792900Y9986300D01*
X8891300Y9668800D01*
G01X8855900Y9779900D02*
X8729900D01*
G01X9107800Y9986300D02*
Y9668800D01*
G01X9017300Y9986300D02*
X9198300D01*
G01X9501400Y9668800D02*
X9344000D01*
Y9986300D01*
X9501400D01*
G01X9438400Y9832800D02*
X9344000D01*
G01X9651000Y9668800D02*
Y9986300D01*
X9729700D01*
X9761200Y9970400D01*
X9784800Y9949300D01*
X9804500Y9917500D01*
X9820300Y9880500D01*
X9824200Y9827500D01*
X9820300Y9774600D01*
X9804500Y9737600D01*
X9784800Y9705800D01*
X9761200Y9684700D01*
X9729700Y9668800D01*
X9651000D01*
G01X8084400Y10938800D02*
Y11256300D01*
X8178800D01*
X8210300Y11240400D01*
X8234000Y11203400D01*
X8241800Y11161100D01*
X8234000Y11118700D01*
X8214300Y11087000D01*
X8178800Y11071100D01*
X8084400D01*
G01X8399300Y11256300D02*
Y10938800D01*
X8556700D01*
G01X8694500D02*
X8792900Y11256300D01*
X8891300Y10938800D01*
G01X8855900Y11049900D02*
X8729900D01*
G01X9107800Y11256300D02*
Y10938800D01*
G01X9017300Y11256300D02*
X9198300D01*
G01X9501400Y10938800D02*
X9344000D01*
Y11256300D01*
X9501400D01*
G01X9438400Y11102800D02*
X9344000D01*
G01X9651000Y10938800D02*
Y11256300D01*
X9729700D01*
X9761200Y11240400D01*
X9784800Y11219300D01*
X9804500Y11187500D01*
X9820300Y11150500D01*
X9824200Y11097500D01*
X9820300Y11044600D01*
X9804500Y11007600D01*
X9784800Y10975800D01*
X9761200Y10954700D01*
X9729700Y10938800D01*
X9651000D01*
G01X10564300Y11415000D02*
Y8875000D01*
G01X11595500Y9033800D02*
Y9351300D01*
X11449900Y9123800D01*
X11646700D01*
G01X11304200Y10351400D02*
X11327800Y10325000D01*
X11355400Y10309100D01*
X11390800Y10303800D01*
X11426200Y10314400D01*
X11453800Y10335500D01*
X11473500Y10372600D01*
X11477400Y10414900D01*
X11469500Y10457300D01*
X11449800Y10483700D01*
X11422300Y10504900D01*
X11394700Y10510200D01*
X11367200Y10504900D01*
X11331800Y10483700D01*
X11343600Y10621300D01*
X11449800D01*
G01X11752900Y10303800D02*
Y10621300D01*
X11607300Y10393800D01*
X11804100D01*
G01X11316000Y9933400D02*
X11339600Y9965100D01*
X11367200Y9981000D01*
X11398700Y9986300D01*
X11438000Y9975700D01*
X11465600Y9949300D01*
X11473500Y9917500D01*
X11469500Y9885800D01*
X11453800Y9859300D01*
X11375100Y9806400D01*
X11339600Y9769300D01*
X11316000Y9716400D01*
X11308100Y9668800D01*
X11473500D01*
G01X11630900Y9801100D02*
X11658500Y9838100D01*
X11682100Y9859300D01*
X11713600Y9869900D01*
X11741100Y9859300D01*
X11760800Y9838100D01*
X11776600Y9806400D01*
X11780500Y9769300D01*
X11776600Y9737600D01*
X11760800Y9705800D01*
X11737200Y9679400D01*
X11709600Y9668800D01*
X11678100Y9679400D01*
X11650600Y9711100D01*
X11634800Y9758800D01*
X11630900Y9811700D01*
X11638800Y9880500D01*
X11650600Y9917500D01*
X11670300Y9954500D01*
X11697800Y9981000D01*
X11725400Y9986300D01*
X11752900Y9975700D01*
X11772600Y9949300D01*
G01X11233400Y10938800D02*
X11201900Y10944100D01*
X11174400Y10965300D01*
X11150700Y10997000D01*
X11135000Y11034000D01*
X11127100Y11076400D01*
Y11118700D01*
X11135000Y11161100D01*
X11150700Y11198100D01*
X11174400Y11229800D01*
X11201900Y11251000D01*
X11233400Y11256300D01*
X11264900Y11251000D01*
X11292400Y11229800D01*
X11316100Y11198100D01*
X11331800Y11161100D01*
X11339700Y11118700D01*
Y11076400D01*
X11331800Y11034000D01*
X11316100Y10997000D01*
X11292400Y10965300D01*
X11264900Y10944100D01*
X11233400Y10938800D01*
G01X11264900Y11023500D02*
X11312100Y10938800D01*
G01X11548300Y11256300D02*
Y10938800D01*
G01X11457800Y11256300D02*
X11638800D01*
G01X11863200Y10938800D02*
Y11081700D01*
X11784500Y11256300D01*
G01X11941900D02*
X11863200Y11081700D01*
M02*
