G04 ================== begin FILE IDENTIFICATION RECORD ==================*
G04 Layout Name:  C:/WORK_ORCAD/CHOPPINGWAVEOSC/allegro/CHOPPING/CHOPPINGWAVEOSC.brd*
G04 Film Name:    SilkT*
G04 File Format:  Gerber RS274X*
G04 File Origin:  Cadence Allegro 17.2-P019*
G04 Origin Date:  Wed Jul 31 11:56:55 2019*
G04 *
G04 Layer:  REF DES/SILKSCREEN_TOP*
G04 Layer:  PACKAGE GEOMETRY/SILKSCREEN_TOP*
G04 Layer:  BOARD GEOMETRY/SILKSCREEN_TOP*
G04 *
G04 Offset:    (0.000 0.000)*
G04 Mirror:    No*
G04 Mode:      Positive*
G04 Rotation:  0*
G04 FullContactRelief:  No*
G04 UndefLineWidth:     0.200*
G04 ================== end FILE IDENTIFICATION RECORD ====================*
%FSLAX25Y25*MOMM*%
%IR0*IPPOS*OFA0.00000B0.00000*MIA0B0*SFA1.00000B1.00000*%
%ADD10C,.5*%
%ADD11C,.2*%
G75*
%LPD*%
G75*
G54D10*
G01X3433300Y6566700D02*
X3413300Y6586700D01*
X3390000Y6600000D01*
X3363300D01*
X3333300Y6580000D01*
X3310000Y6546700D01*
X3293300Y6506700D01*
X3280000Y6440000D01*
X3276700Y6380000D01*
X3283300Y6320000D01*
X3293300Y6280000D01*
X3313300Y6240000D01*
X3336700Y6213300D01*
X3360000Y6200000D01*
X3383300D01*
X3406700Y6213300D01*
X3426700Y6233300D01*
X3443300Y6260000D01*
G01X3505200Y6200000D02*
Y6600000D01*
G01X3645200D02*
Y6200000D01*
G01Y6400000D02*
X3505200D01*
G01X3790400Y6200000D02*
X3763700Y6206700D01*
X3740400Y6233300D01*
X3720400Y6273300D01*
X3707100Y6320000D01*
X3700400Y6373300D01*
Y6426700D01*
X3707100Y6480000D01*
X3720400Y6526700D01*
X3740400Y6566700D01*
X3763700Y6593300D01*
X3790400Y6600000D01*
X3817100Y6593300D01*
X3840400Y6566700D01*
X3860400Y6526700D01*
X3873700Y6480000D01*
X3880400Y6426700D01*
Y6373300D01*
X3873700Y6320000D01*
X3860400Y6273300D01*
X3840400Y6233300D01*
X3817100Y6206700D01*
X3790400Y6200000D01*
G01X3938900D02*
Y6600000D01*
X4018900D01*
X4045600Y6580000D01*
X4065600Y6533300D01*
X4072300Y6480000D01*
X4065600Y6426700D01*
X4048900Y6386700D01*
X4018900Y6366700D01*
X3938900D01*
G01X4154100Y6200000D02*
Y6600000D01*
X4234100D01*
X4260800Y6580000D01*
X4280800Y6533300D01*
X4287500Y6480000D01*
X4280800Y6426700D01*
X4264100Y6386700D01*
X4234100Y6366700D01*
X4154100D01*
G01X4396000Y6600000D02*
X4476000D01*
G01X4436000D02*
Y6200000D01*
G01X4396000D02*
X4476000D01*
G01X4574500D02*
Y6600000D01*
X4727900Y6200000D01*
Y6600000D01*
G01X4886400Y6400000D02*
X4953100D01*
Y6280000D01*
X4933100Y6240000D01*
X4909700Y6213300D01*
X4876400Y6200000D01*
X4843100Y6213300D01*
X4819700Y6240000D01*
X4799700Y6280000D01*
X4786400Y6326700D01*
X4779700Y6380000D01*
Y6426700D01*
X4786400Y6466700D01*
X4799700Y6513300D01*
X4819700Y6553300D01*
X4839700Y6580000D01*
X4866400Y6600000D01*
X4889700D01*
X4916400Y6586700D01*
X4936400Y6560000D01*
G01X5196800Y6600000D02*
X5243500Y6200000D01*
X5296800Y6600000D01*
X5350100Y6200000D01*
X5396800Y6600000D01*
G01X5428700Y6200000D02*
X5512000Y6600000D01*
X5595300Y6200000D01*
G01X5565300Y6340000D02*
X5458700D01*
G01X5643900Y6600000D02*
X5727200Y6200000D01*
X5810500Y6600000D01*
G01X6009100Y6200000D02*
X5875700D01*
Y6600000D01*
X6009100D01*
G01X5955700Y6406700D02*
X5875700D01*
G01X6372800Y6200000D02*
X6346100Y6206700D01*
X6322800Y6233300D01*
X6302800Y6273300D01*
X6289500Y6320000D01*
X6282800Y6373300D01*
Y6426700D01*
X6289500Y6480000D01*
X6302800Y6526700D01*
X6322800Y6566700D01*
X6346100Y6593300D01*
X6372800Y6600000D01*
X6399500Y6593300D01*
X6422800Y6566700D01*
X6442800Y6526700D01*
X6456100Y6480000D01*
X6462800Y6426700D01*
Y6373300D01*
X6456100Y6320000D01*
X6442800Y6273300D01*
X6422800Y6233300D01*
X6399500Y6206700D01*
X6372800Y6200000D01*
G01X6518000Y6253300D02*
X6544700Y6220000D01*
X6574700Y6200000D01*
X6601300D01*
X6628000Y6220000D01*
X6648000Y6253300D01*
X6658000Y6300000D01*
X6651300Y6346700D01*
X6634700Y6386700D01*
X6604700Y6413300D01*
X6564700Y6426700D01*
X6541300Y6453300D01*
X6531300Y6500000D01*
X6538000Y6546700D01*
X6554700Y6580000D01*
X6578000Y6600000D01*
X6601300D01*
X6624700Y6586700D01*
X6644700Y6553300D01*
G01X6876500Y6566700D02*
X6856500Y6586700D01*
X6833200Y6600000D01*
X6806500D01*
X6776500Y6580000D01*
X6753200Y6546700D01*
X6736500Y6506700D01*
X6723200Y6440000D01*
X6719900Y6380000D01*
X6726500Y6320000D01*
X6736500Y6280000D01*
X6756500Y6240000D01*
X6779900Y6213300D01*
X6803200Y6200000D01*
X6826500D01*
X6849900Y6213300D01*
X6869900Y6233300D01*
X6886500Y6260000D01*
G01X3626700Y360000D02*
X3493300D01*
Y760000D01*
X3626700D01*
G01X3573300Y566700D02*
X3493300D01*
G01X3708500Y760000D02*
Y360000D01*
X3841900D01*
G01X4057100D02*
X3923700D01*
Y760000D01*
X4057100D01*
G01X4003700Y566700D02*
X3923700D01*
G01X4278900Y726700D02*
X4258900Y746700D01*
X4235600Y760000D01*
X4208900D01*
X4178900Y740000D01*
X4155600Y706700D01*
X4138900Y666700D01*
X4125600Y600000D01*
X4122300Y540000D01*
X4128900Y480000D01*
X4138900Y440000D01*
X4158900Y400000D01*
X4182300Y373300D01*
X4205600Y360000D01*
X4228900D01*
X4252300Y373300D01*
X4272300Y393300D01*
X4288900Y420000D01*
G01X4420800Y760000D02*
Y360000D01*
G01X4344100Y760000D02*
X4497500D01*
G01X4569300Y360000D02*
Y760000D01*
X4652700D01*
X4679300Y740000D01*
X4696000Y713300D01*
X4702700Y660000D01*
X4696000Y606700D01*
X4676000Y573300D01*
X4652700Y553300D01*
X4569300D01*
G01X4652700D02*
X4702700Y360000D01*
G01X4851200D02*
X4824500Y366700D01*
X4801200Y393300D01*
X4781200Y433300D01*
X4767900Y480000D01*
X4761200Y533300D01*
Y586700D01*
X4767900Y640000D01*
X4781200Y686700D01*
X4801200Y726700D01*
X4824500Y753300D01*
X4851200Y760000D01*
X4877900Y753300D01*
X4901200Y726700D01*
X4921200Y686700D01*
X4934500Y640000D01*
X4941200Y586700D01*
Y533300D01*
X4934500Y480000D01*
X4921200Y433300D01*
X4901200Y393300D01*
X4877900Y366700D01*
X4851200Y360000D01*
G01X4989700D02*
Y760000D01*
X5143100Y360000D01*
Y760000D01*
G01X5241600D02*
X5321600D01*
G01X5281600D02*
Y360000D01*
G01X5241600D02*
X5321600D01*
G01X5570100Y726700D02*
X5550100Y746700D01*
X5526800Y760000D01*
X5500100D01*
X5470100Y740000D01*
X5446800Y706700D01*
X5430100Y666700D01*
X5416800Y600000D01*
X5413500Y540000D01*
X5420100Y480000D01*
X5430100Y440000D01*
X5450100Y400000D01*
X5473500Y373300D01*
X5496800Y360000D01*
X5520100D01*
X5543500Y373300D01*
X5563500Y393300D01*
X5580100Y420000D01*
G01X6000500Y726700D02*
X5980500Y746700D01*
X5957200Y760000D01*
X5930500D01*
X5900500Y740000D01*
X5877200Y706700D01*
X5860500Y666700D01*
X5847200Y600000D01*
X5843900Y540000D01*
X5850500Y480000D01*
X5860500Y440000D01*
X5880500Y400000D01*
X5903900Y373300D01*
X5927200Y360000D01*
X5950500D01*
X5973900Y373300D01*
X5993900Y393300D01*
X6010500Y420000D01*
G01X6059100Y360000D02*
X6142400Y760000D01*
X6225700Y360000D01*
G01X6195700Y500000D02*
X6089100D01*
G01X6284300Y360000D02*
Y760000D01*
X6350900D01*
X6377600Y740000D01*
X6397600Y713300D01*
X6414300Y673300D01*
X6427600Y626700D01*
X6430900Y560000D01*
X6427600Y493300D01*
X6414300Y446700D01*
X6397600Y406700D01*
X6377600Y380000D01*
X6350900Y360000D01*
X6284300D01*
G54D11*
G01X483000Y3627000D02*
X737000D01*
Y2865000D01*
X483000D01*
Y3627000D01*
G01X775600Y3609700D02*
X767800Y3604800D01*
X762500Y3599000D01*
X759900Y3592100D01*
X762500Y3584400D01*
X767800Y3578500D01*
X775600Y3572700D01*
X786100Y3570700D01*
X838600D01*
G01X759900Y3511500D02*
X838600D01*
X822900Y3523200D01*
G01X759900D02*
Y3499800D01*
G01X986600Y5298000D02*
X977000Y5304400D01*
X965700Y5308600D01*
X952900D01*
X938400Y5302200D01*
X927100Y5291700D01*
X919100Y5279000D01*
X912600Y5257800D01*
X911000Y5238700D01*
X914300Y5219700D01*
X919100Y5207000D01*
X928700Y5194300D01*
X940000Y5185800D01*
X951200Y5181600D01*
X962500D01*
X973800Y5185800D01*
X983400Y5192200D01*
X991500Y5200600D01*
G01X1080700Y5181600D02*
Y5308600D01*
X1061400Y5283200D01*
G01Y5181600D02*
X1100000D01*
G01X1485900Y2540000D02*
X2197100D01*
Y2286000D01*
X1485900D01*
Y2540000D01*
G01X1727200Y3387900D02*
X1648500D01*
Y3412300D01*
X1652400Y3420100D01*
X1657700Y3424900D01*
X1668200Y3426900D01*
X1678700Y3424900D01*
X1685200Y3419100D01*
X1689200Y3412300D01*
Y3387900D01*
G01Y3412300D02*
X1727200Y3426900D01*
G01X1661600Y3467600D02*
X1653700Y3473400D01*
X1649800Y3480300D01*
X1648500Y3488000D01*
X1651100Y3497800D01*
X1657700Y3504600D01*
X1665600Y3506500D01*
X1673400Y3505600D01*
X1680000Y3501700D01*
X1693100Y3482200D01*
X1702300Y3473400D01*
X1715400Y3467600D01*
X1727200Y3465700D01*
Y3506500D01*
G01X2197100Y3111500D02*
X1485900D01*
Y3365500D01*
X2197100D01*
Y3111500D01*
G01X1663700Y3006900D02*
X1585000D01*
Y3031300D01*
X1588900Y3039100D01*
X1594200Y3043900D01*
X1604700Y3045900D01*
X1615200Y3043900D01*
X1621700Y3038100D01*
X1625700Y3031300D01*
Y3006900D01*
G01Y3031300D02*
X1663700Y3045900D01*
G01X1648000Y3083700D02*
X1657100Y3089500D01*
X1662400Y3097300D01*
X1663700Y3106100D01*
X1662400Y3113900D01*
X1655800Y3121600D01*
X1648000Y3126500D01*
X1640100Y3127500D01*
X1630900Y3125500D01*
X1624400Y3118700D01*
X1621700Y3111900D01*
Y3103200D01*
G01Y3111900D02*
X1617800Y3117800D01*
X1611200Y3122600D01*
X1603400Y3124600D01*
X1595500Y3122600D01*
X1588900Y3117800D01*
X1585000Y3109000D01*
X1586300Y3100200D01*
X1591600Y3091500D01*
G01X2133600Y2730500D02*
X1422400D01*
Y2984500D01*
X2133600D01*
Y2730500D01*
G01X1778000Y4191000D02*
G03I-254000J0D01*
G01X1727200Y3768900D02*
X1648500D01*
Y3793300D01*
X1652400Y3801100D01*
X1657700Y3805900D01*
X1668200Y3807900D01*
X1678700Y3805900D01*
X1685200Y3800100D01*
X1689200Y3793300D01*
Y3768900D01*
G01Y3793300D02*
X1727200Y3807900D01*
G01X1715400Y3845700D02*
X1722000Y3851500D01*
X1725900Y3858300D01*
X1727200Y3867100D01*
X1724600Y3875900D01*
X1719300Y3882700D01*
X1710100Y3887500D01*
X1699700Y3888500D01*
X1689200Y3886600D01*
X1682600Y3881700D01*
X1677400Y3874900D01*
X1676000Y3868100D01*
X1677400Y3861300D01*
X1682600Y3852500D01*
X1648500Y3855400D01*
Y3881700D01*
G01X2197100Y3492500D02*
X1485900D01*
Y3746500D01*
X2197100D01*
Y3492500D01*
G01X1778000Y4953000D02*
G03I-254000J0D01*
G01X1869000Y4728400D02*
X1875400Y4738000D01*
X1879600Y4749300D01*
Y4762100D01*
X1873200Y4776600D01*
X1862700Y4787900D01*
X1850000Y4795900D01*
X1828800Y4802400D01*
X1809700Y4804000D01*
X1790700Y4800700D01*
X1778000Y4795900D01*
X1765300Y4786300D01*
X1756800Y4775000D01*
X1752600Y4763800D01*
Y4752500D01*
X1756800Y4741200D01*
X1763200Y4731600D01*
X1771600Y4723500D01*
G01X1858400Y4664800D02*
X1871100Y4655200D01*
X1877500Y4643900D01*
X1879600Y4631000D01*
X1875400Y4614900D01*
X1864800Y4603700D01*
X1852100Y4600500D01*
X1839400Y4602100D01*
X1828800Y4608500D01*
X1807600Y4640700D01*
X1792800Y4655200D01*
X1771600Y4664800D01*
X1752600Y4668000D01*
Y4600500D01*
G01X1955800Y2263600D02*
X2034500D01*
Y2239200D01*
X2030600Y2231400D01*
X2025300Y2226600D01*
X2014800Y2224600D01*
X2004300Y2226600D01*
X1997800Y2232400D01*
X1993800Y2239200D01*
Y2263600D01*
G01Y2239200D02*
X1955800Y2224600D01*
G01X1965000Y2181900D02*
X1958400Y2175100D01*
X1955800Y2167300D01*
X1958400Y2159600D01*
X1966300Y2152700D01*
X1978100Y2147900D01*
X1989900Y2145900D01*
X2004300D01*
X2016100Y2147900D01*
X2026600Y2152700D01*
X2031900Y2158600D01*
X2034500Y2165400D01*
X2031900Y2173200D01*
X2026600Y2179000D01*
X2018800Y2182900D01*
X2008300Y2184900D01*
X1999100Y2182900D01*
X1989900Y2178100D01*
X1984700Y2172200D01*
X1983300Y2165400D01*
X1986000Y2157600D01*
X1992500Y2151800D01*
X2004300Y2145900D01*
G01X3048000Y5207000D02*
Y4572000D01*
X2540000D01*
Y5207000D01*
X3048000D01*
G01X2959100Y3619500D02*
X3111500D01*
X3175000Y3556000D01*
X3302000D01*
X3365500Y3619500D01*
X3517900D01*
Y2603500D01*
X2959100D01*
Y3619500D01*
G01X3108600Y4414500D02*
X3068400Y4541500D01*
X3028100Y4414500D01*
G01X2971000Y4541500D02*
Y4414500D01*
X2930800D01*
X2917900Y4420900D01*
X2909900Y4429300D01*
X2906700Y4446300D01*
X2909900Y4463200D01*
X2919500Y4473800D01*
X2930800Y4480100D01*
X2971000D01*
G01X2930800D02*
X2906700Y4541500D01*
G01X2809400D02*
Y4414500D01*
X2828700Y4439900D01*
G01Y4541500D02*
X2790100D01*
G01X4000500Y2819400D02*
Y3530600D01*
X4254500D01*
Y2819400D01*
X4000500D01*
G01X3763200Y3474700D02*
Y3383700D01*
X3769600Y3364600D01*
X3782500Y3351900D01*
X3798500Y3347700D01*
X3814600Y3351900D01*
X3827500Y3364600D01*
X3833900Y3383700D01*
Y3474700D01*
G01X3928000Y3347700D02*
Y3474700D01*
X3908700Y3449300D01*
G01Y3347700D02*
X3947300D01*
G01X3846000Y3590100D02*
X3839600Y3580500D01*
X3835400Y3569200D01*
Y3556400D01*
X3841800Y3541900D01*
X3852300Y3530600D01*
X3865000Y3522600D01*
X3886200Y3516100D01*
X3905300Y3514500D01*
X3924300Y3517800D01*
X3937000Y3522600D01*
X3949700Y3532200D01*
X3958200Y3543500D01*
X3962400Y3554700D01*
Y3566000D01*
X3958200Y3577300D01*
X3951800Y3586900D01*
X3943400Y3595000D01*
G01X3937000Y3648900D02*
X3951800Y3658500D01*
X3960300Y3671400D01*
X3962400Y3685900D01*
X3960300Y3698700D01*
X3949700Y3711600D01*
X3937000Y3719600D01*
X3924300Y3721200D01*
X3909500Y3718000D01*
X3898900Y3706800D01*
X3894700Y3695500D01*
Y3681000D01*
G01Y3695500D02*
X3888300Y3705200D01*
X3877700Y3713200D01*
X3865000Y3716400D01*
X3852300Y3713200D01*
X3841800Y3705200D01*
X3835400Y3690700D01*
X3837500Y3676200D01*
X3846000Y3661700D01*
G01X4445000Y4127500D02*
G03I-254000J0D01*
G01X3873500Y4572000D02*
Y5207000D01*
X4381500D01*
Y4572000D01*
X3873500D01*
G01X3812900Y5364500D02*
X3853100Y5237500D01*
X3893400Y5364500D01*
G01X3950500Y5237500D02*
Y5364500D01*
X3990700D01*
X4003600Y5358100D01*
X4011600Y5349700D01*
X4014800Y5332700D01*
X4011600Y5315800D01*
X4002000Y5305200D01*
X3990700Y5298900D01*
X3950500D01*
G01X3990700D02*
X4014800Y5237500D01*
G01X4081600Y5343300D02*
X4091200Y5356000D01*
X4102500Y5362400D01*
X4115400Y5364500D01*
X4131500Y5360300D01*
X4142700Y5349700D01*
X4145900Y5337000D01*
X4144300Y5324300D01*
X4137900Y5313700D01*
X4105700Y5292500D01*
X4091200Y5277700D01*
X4081600Y5256500D01*
X4078400Y5237500D01*
X4145900D01*
G01X4481000Y1621600D02*
X4474600Y1612000D01*
X4470400Y1600700D01*
Y1587900D01*
X4476800Y1573400D01*
X4487300Y1562100D01*
X4500000Y1554100D01*
X4521200Y1547600D01*
X4540300Y1546000D01*
X4559300Y1549300D01*
X4572000Y1554100D01*
X4584700Y1563700D01*
X4593200Y1575000D01*
X4597400Y1586200D01*
Y1597500D01*
X4593200Y1608800D01*
X4586800Y1618400D01*
X4578400Y1626500D01*
G01X4597400Y1735100D02*
X4470400D01*
X4561400Y1675500D01*
Y1756000D01*
G01X5080000Y2159000D02*
G03I-254000J0D01*
G01X4276900Y3289300D02*
Y3368000D01*
X4301300D01*
X4309100Y3364100D01*
X4313900Y3358800D01*
X4315900Y3348300D01*
X4313900Y3337800D01*
X4308100Y3331300D01*
X4301300Y3327300D01*
X4276900D01*
G01X4301300D02*
X4315900Y3289300D01*
G01X4356600Y3322100D02*
X4363400Y3331300D01*
X4369300Y3336500D01*
X4377000Y3339100D01*
X4383900Y3336500D01*
X4388700Y3331300D01*
X4392600Y3323400D01*
X4393600Y3314200D01*
X4392600Y3306400D01*
X4388700Y3298500D01*
X4382900Y3291900D01*
X4376100Y3289300D01*
X4368300Y3291900D01*
X4361500Y3299800D01*
X4357600Y3311600D01*
X4356600Y3324700D01*
X4358600Y3341800D01*
X4361500Y3350900D01*
X4366300Y3360100D01*
X4373200Y3366700D01*
X4380000Y3368000D01*
X4386800Y3365400D01*
X4391600Y3358800D01*
G01X4784900Y3289300D02*
Y3368000D01*
X4809300D01*
X4817100Y3364100D01*
X4821900Y3358800D01*
X4823900Y3348300D01*
X4821900Y3337800D01*
X4816100Y3331300D01*
X4809300Y3327300D01*
X4784900D01*
G01X4809300D02*
X4823900Y3289300D01*
G01X4881200D02*
X4883100Y3306400D01*
X4886000Y3320800D01*
X4889900Y3333900D01*
X4894800Y3348300D01*
X4902600Y3368000D01*
X4863600D01*
G01X4508500Y2819400D02*
Y3530600D01*
X4762500D01*
Y2819400D01*
X4508500D01*
G01X5292900Y3289300D02*
Y3368000D01*
X5317300D01*
X5325100Y3364100D01*
X5329900Y3358800D01*
X5331900Y3348300D01*
X5329900Y3337800D01*
X5324100Y3331300D01*
X5317300Y3327300D01*
X5292900D01*
G01X5317300D02*
X5331900Y3289300D01*
G01X5391100D02*
X5397900Y3290600D01*
X5405700Y3294500D01*
X5410600Y3301100D01*
X5412500Y3310300D01*
X5410600Y3319500D01*
X5404700Y3327300D01*
X5396000Y3331300D01*
X5386200D01*
X5380400Y3333900D01*
X5375500Y3340500D01*
X5373600Y3349600D01*
X5376500Y3358800D01*
X5383300Y3365400D01*
X5391100Y3368000D01*
X5398900Y3365400D01*
X5405700Y3358800D01*
X5408600Y3349600D01*
X5406700Y3340500D01*
X5401800Y3333900D01*
X5396000Y3331300D01*
X5386200D01*
X5377500Y3327300D01*
X5371600Y3319500D01*
X5369700Y3310300D01*
X5371600Y3301100D01*
X5376500Y3294500D01*
X5384300Y3290600D01*
X5391100Y3289300D01*
G01X5016500Y2819400D02*
Y3530600D01*
X5270500D01*
Y2819400D01*
X5016500D01*
G01X5588000Y2895600D02*
Y3048000D01*
X5651500Y3111500D01*
Y3238500D01*
X5588000Y3302000D01*
Y3454400D01*
X6604000D01*
Y2895600D01*
X5588000D01*
G01X5473700Y4657900D02*
X5395000D01*
Y4682300D01*
X5398900Y4690100D01*
X5404200Y4694900D01*
X5414700Y4696900D01*
X5425200Y4694900D01*
X5431700Y4689100D01*
X5435700Y4682300D01*
Y4657900D01*
G01Y4682300D02*
X5473700Y4696900D01*
G01Y4767800D02*
X5395000D01*
X5451400Y4731800D01*
Y4780400D01*
G01X5943600Y4381500D02*
X5232400D01*
Y4635500D01*
X5943600D01*
Y4381500D01*
G01X6273800Y1540900D02*
X6352500D01*
Y1516500D01*
X6348600Y1508700D01*
X6343300Y1503900D01*
X6332800Y1501900D01*
X6322300Y1503900D01*
X6315800Y1509700D01*
X6311800Y1516500D01*
Y1540900D01*
G01Y1516500D02*
X6273800Y1501900D01*
G01Y1442700D02*
X6352500D01*
X6336800Y1454400D01*
G01X6273800D02*
Y1431000D01*
G01Y1364000D02*
X6352500D01*
X6336800Y1375700D01*
G01X6273800D02*
Y1352300D01*
G01X5803900Y1778000D02*
X6515100D01*
Y1524000D01*
X5803900D01*
Y1778000D01*
G01X6045200Y1380100D02*
X5966500D01*
Y1404500D01*
X5970400Y1412300D01*
X5975700Y1417100D01*
X5986200Y1419100D01*
X5996700Y1417100D01*
X6003200Y1411300D01*
X6007200Y1404500D01*
Y1380100D01*
G01Y1404500D02*
X6045200Y1419100D01*
G01Y1478300D02*
X5966500D01*
X5982200Y1466600D01*
G01X6045200D02*
Y1490000D01*
G01X6029500Y1535600D02*
X6038600Y1541400D01*
X6043900Y1549200D01*
X6045200Y1558000D01*
X6043900Y1565800D01*
X6037300Y1573500D01*
X6029500Y1578400D01*
X6021600Y1579400D01*
X6012400Y1577400D01*
X6005900Y1570600D01*
X6003200Y1563800D01*
Y1555100D01*
G01Y1563800D02*
X5999300Y1569700D01*
X5992700Y1574500D01*
X5984900Y1576500D01*
X5977000Y1574500D01*
X5970400Y1569700D01*
X5966500Y1560900D01*
X5967800Y1552100D01*
X5973100Y1543400D01*
G01X6515100Y1143000D02*
X5803900D01*
Y1397000D01*
X6515100D01*
Y1143000D01*
G01X6045200Y2205600D02*
X5966500D01*
Y2230000D01*
X5970400Y2237800D01*
X5975700Y2242600D01*
X5986200Y2244600D01*
X5996700Y2242600D01*
X6003200Y2236800D01*
X6007200Y2230000D01*
Y2205600D01*
G01Y2230000D02*
X6045200Y2244600D01*
G01Y2303800D02*
X5966500D01*
X5982200Y2292100D01*
G01X6045200D02*
Y2315500D01*
G01X5979600Y2364000D02*
X5971700Y2369800D01*
X5967800Y2376700D01*
X5966500Y2384400D01*
X5969100Y2394200D01*
X5975700Y2401000D01*
X5983600Y2402900D01*
X5991400Y2402000D01*
X5998000Y2398100D01*
X6011100Y2378600D01*
X6020300Y2369800D01*
X6033400Y2364000D01*
X6045200Y2362100D01*
Y2402900D01*
G01X6515100Y1968500D02*
X5803900D01*
Y2222500D01*
X6515100D01*
Y1968500D01*
G01X5732800Y3699700D02*
X5823800D01*
X5842900Y3706100D01*
X5855600Y3719000D01*
X5859800Y3735000D01*
X5855600Y3751100D01*
X5842900Y3764000D01*
X5823800Y3770400D01*
X5732800D01*
G01X5859800Y3883900D02*
X5732800D01*
X5823800Y3824300D01*
Y3904800D01*
G01X8191500Y1803400D02*
Y1651000D01*
X8128000Y1587500D01*
Y1460500D01*
X8191500Y1397000D01*
Y1244600D01*
X7175500D01*
Y1803400D01*
X8191500D01*
G01X8046700Y999300D02*
X7955700D01*
X7936600Y992900D01*
X7923900Y980000D01*
X7919700Y964000D01*
X7923900Y947900D01*
X7936600Y935000D01*
X7955700Y928600D01*
X8046700D01*
G01X7945100Y869800D02*
X7930300Y860200D01*
X7921800Y847300D01*
X7919700Y832800D01*
X7921800Y820000D01*
X7932400Y807100D01*
X7945100Y799100D01*
X7957800Y797500D01*
X7972600Y800700D01*
X7983200Y811900D01*
X7987400Y823200D01*
Y837700D01*
G01Y823200D02*
X7993800Y813500D01*
X8004400Y805500D01*
X8017100Y802300D01*
X8029800Y805500D01*
X8040300Y813500D01*
X8046700Y828000D01*
X8044600Y842500D01*
X8036100Y857000D01*
G01X7950200Y2523100D02*
X7871500D01*
Y2547500D01*
X7875400Y2555300D01*
X7880700Y2560100D01*
X7891200Y2562100D01*
X7901700Y2560100D01*
X7908200Y2554300D01*
X7912200Y2547500D01*
Y2523100D01*
G01Y2547500D02*
X7950200Y2562100D01*
G01Y2621300D02*
X7871500D01*
X7887200Y2609600D01*
G01X7950200D02*
Y2633000D01*
G01X7871500Y2700000D02*
X7874100Y2692200D01*
X7880700Y2686400D01*
X7888600Y2682500D01*
X7899000Y2679600D01*
X7910900Y2678600D01*
X7922700Y2679600D01*
X7933100Y2682500D01*
X7941000Y2686400D01*
X7947600Y2692200D01*
X7950200Y2700000D01*
X7947600Y2707800D01*
X7941000Y2713600D01*
X7933100Y2717500D01*
X7922700Y2720400D01*
X7910900Y2721400D01*
X7899000Y2720400D01*
X7888600Y2717500D01*
X7880700Y2713600D01*
X7874100Y2707800D01*
X7871500Y2700000D01*
G01X8420100Y2286000D02*
X7708900D01*
Y2540000D01*
X8420100D01*
Y2286000D01*
G01X8252100Y2700000D02*
X8211900Y2827000D01*
X8171600Y2700000D01*
G01X8114500Y2827000D02*
Y2700000D01*
X8074300D01*
X8061400Y2706400D01*
X8053400Y2714800D01*
X8050200Y2731800D01*
X8053400Y2748700D01*
X8063000Y2759300D01*
X8074300Y2765600D01*
X8114500D01*
G01X8074300D02*
X8050200Y2827000D01*
G01X7988200Y2801600D02*
X7978600Y2816400D01*
X7965700Y2824900D01*
X7951200Y2827000D01*
X7938400Y2824900D01*
X7925500Y2814300D01*
X7917500Y2801600D01*
X7915900Y2788900D01*
X7919100Y2774100D01*
X7930300Y2763500D01*
X7941600Y2759300D01*
X7956100D01*
G01X7941600D02*
X7931900Y2752900D01*
X7923900Y2742300D01*
X7920700Y2729600D01*
X7923900Y2716900D01*
X7931900Y2706400D01*
X7946400Y2700000D01*
X7960900Y2702100D01*
X7975400Y2710600D01*
G01X8191500Y3492500D02*
Y2857500D01*
X7683500D01*
Y3492500D01*
X8191500D01*
G01X7848600Y4826000D02*
X8001000D01*
X8064500Y4762500D01*
X8191500D01*
X8255000Y4826000D01*
X8407400D01*
Y3810000D01*
X7848600D01*
Y4826000D01*
G01X8537600Y5043000D02*
X7826400D01*
Y5297000D01*
X8537600D01*
Y5043000D01*
G01X8652700Y4681200D02*
Y4590200D01*
X8659100Y4571100D01*
X8672000Y4558400D01*
X8688000Y4554200D01*
X8704100Y4558400D01*
X8717000Y4571100D01*
X8723400Y4590200D01*
Y4681200D01*
G01X8787000Y4660000D02*
X8796600Y4672700D01*
X8807900Y4679100D01*
X8820800Y4681200D01*
X8836900Y4677000D01*
X8848100Y4666400D01*
X8851300Y4653700D01*
X8849700Y4641000D01*
X8843300Y4630400D01*
X8811100Y4609200D01*
X8796600Y4594400D01*
X8787000Y4573200D01*
X8783800Y4554200D01*
X8851300D01*
G01X8067700Y5319400D02*
X7989000D01*
Y5343800D01*
X7992900Y5351600D01*
X7998200Y5356400D01*
X8008700Y5358400D01*
X8019200Y5356400D01*
X8025700Y5350600D01*
X8029700Y5343800D01*
Y5319400D01*
G01Y5343800D02*
X8067700Y5358400D01*
G01Y5417600D02*
X7989000D01*
X8004700Y5405900D01*
G01X8067700D02*
Y5429300D01*
G01X9179100Y3299000D02*
X9186900Y3303900D01*
X9192200Y3309700D01*
X9194800Y3316600D01*
X9192200Y3324300D01*
X9186900Y3330200D01*
X9179100Y3336000D01*
X9168600Y3338000D01*
X9116100D01*
G01X9129200Y3378700D02*
X9121300Y3384500D01*
X9117400Y3391400D01*
X9116100Y3399100D01*
X9118700Y3408900D01*
X9125300Y3415700D01*
X9133200Y3417600D01*
X9141000Y3416700D01*
X9147600Y3412800D01*
X9160700Y3393300D01*
X9169900Y3384500D01*
X9183000Y3378700D01*
X9194800Y3376800D01*
Y3417600D01*
G01X9461500Y3302000D02*
X9207500D01*
Y3810000D01*
X9461500D01*
Y3302000D01*
M02*
