G04 ================== begin FILE IDENTIFICATION RECORD ==================*
G04 Layout Name:  C:/WORK_ORCAD/CHOPPINGWAVEOSC/allegro/CHOPPING/CHOPPINGWAVEOSC.brd*
G04 Film Name:    SilkT*
G04 File Format:  Gerber RS274X*
G04 File Origin:  Cadence Allegro 17.2-P019*
G04 Origin Date:  Wed Jul 31 12:03:07 2019*
G04 *
G04 Layer:  REF DES/SILKSCREEN_TOP*
G04 Layer:  PACKAGE GEOMETRY/SILKSCREEN_TOP*
G04 Layer:  BOARD GEOMETRY/SILKSCREEN_TOP*
G04 *
G04 Offset:    (0.000 0.000)*
G04 Mirror:    No*
G04 Mode:      Positive*
G04 Rotation:  0*
G04 FullContactRelief:  No*
G04 UndefLineWidth:     0.200*
G04 ================== end FILE IDENTIFICATION RECORD ====================*
%FSLAX25Y25*MOMM*%
%IR0*IPPOS*OFA0.00000B0.00000*MIA0B0*SFA1.00000B1.00000*%
%ADD10C,.5*%
%ADD11C,.2*%
G75*
%LPD*%
G75*
G54D10*
G01X3433300Y6566700D02*
X3413300Y6586700D01*
X3390000Y6600000D01*
X3363300D01*
X3333300Y6580000D01*
X3310000Y6546700D01*
X3293300Y6506700D01*
X3280000Y6440000D01*
X3276700Y6380000D01*
X3283300Y6320000D01*
X3293300Y6280000D01*
X3313300Y6240000D01*
X3336700Y6213300D01*
X3360000Y6200000D01*
X3383300D01*
X3406700Y6213300D01*
X3426700Y6233300D01*
X3443300Y6260000D01*
G01X3505200Y6200000D02*
Y6600000D01*
G01X3645200D02*
Y6200000D01*
G01Y6400000D02*
X3505200D01*
G01X3790400Y6200000D02*
X3763700Y6206700D01*
X3740400Y6233300D01*
X3720400Y6273300D01*
X3707100Y6320000D01*
X3700400Y6373300D01*
Y6426700D01*
X3707100Y6480000D01*
X3720400Y6526700D01*
X3740400Y6566700D01*
X3763700Y6593300D01*
X3790400Y6600000D01*
X3817100Y6593300D01*
X3840400Y6566700D01*
X3860400Y6526700D01*
X3873700Y6480000D01*
X3880400Y6426700D01*
Y6373300D01*
X3873700Y6320000D01*
X3860400Y6273300D01*
X3840400Y6233300D01*
X3817100Y6206700D01*
X3790400Y6200000D01*
G01X3938900D02*
Y6600000D01*
X4018900D01*
X4045600Y6580000D01*
X4065600Y6533300D01*
X4072300Y6480000D01*
X4065600Y6426700D01*
X4048900Y6386700D01*
X4018900Y6366700D01*
X3938900D01*
G01X4154100Y6200000D02*
Y6600000D01*
X4234100D01*
X4260800Y6580000D01*
X4280800Y6533300D01*
X4287500Y6480000D01*
X4280800Y6426700D01*
X4264100Y6386700D01*
X4234100Y6366700D01*
X4154100D01*
G01X4396000Y6600000D02*
X4476000D01*
G01X4436000D02*
Y6200000D01*
G01X4396000D02*
X4476000D01*
G01X4574500D02*
Y6600000D01*
X4727900Y6200000D01*
Y6600000D01*
G01X4886400Y6400000D02*
X4953100D01*
Y6280000D01*
X4933100Y6240000D01*
X4909700Y6213300D01*
X4876400Y6200000D01*
X4843100Y6213300D01*
X4819700Y6240000D01*
X4799700Y6280000D01*
X4786400Y6326700D01*
X4779700Y6380000D01*
Y6426700D01*
X4786400Y6466700D01*
X4799700Y6513300D01*
X4819700Y6553300D01*
X4839700Y6580000D01*
X4866400Y6600000D01*
X4889700D01*
X4916400Y6586700D01*
X4936400Y6560000D01*
G01X5196800Y6600000D02*
X5243500Y6200000D01*
X5296800Y6600000D01*
X5350100Y6200000D01*
X5396800Y6600000D01*
G01X5428700Y6200000D02*
X5512000Y6600000D01*
X5595300Y6200000D01*
G01X5565300Y6340000D02*
X5458700D01*
G01X5643900Y6600000D02*
X5727200Y6200000D01*
X5810500Y6600000D01*
G01X6009100Y6200000D02*
X5875700D01*
Y6600000D01*
X6009100D01*
G01X5955700Y6406700D02*
X5875700D01*
G01X6372800Y6200000D02*
X6346100Y6206700D01*
X6322800Y6233300D01*
X6302800Y6273300D01*
X6289500Y6320000D01*
X6282800Y6373300D01*
Y6426700D01*
X6289500Y6480000D01*
X6302800Y6526700D01*
X6322800Y6566700D01*
X6346100Y6593300D01*
X6372800Y6600000D01*
X6399500Y6593300D01*
X6422800Y6566700D01*
X6442800Y6526700D01*
X6456100Y6480000D01*
X6462800Y6426700D01*
Y6373300D01*
X6456100Y6320000D01*
X6442800Y6273300D01*
X6422800Y6233300D01*
X6399500Y6206700D01*
X6372800Y6200000D01*
G01X6518000Y6253300D02*
X6544700Y6220000D01*
X6574700Y6200000D01*
X6601300D01*
X6628000Y6220000D01*
X6648000Y6253300D01*
X6658000Y6300000D01*
X6651300Y6346700D01*
X6634700Y6386700D01*
X6604700Y6413300D01*
X6564700Y6426700D01*
X6541300Y6453300D01*
X6531300Y6500000D01*
X6538000Y6546700D01*
X6554700Y6580000D01*
X6578000Y6600000D01*
X6601300D01*
X6624700Y6586700D01*
X6644700Y6553300D01*
G01X6876500Y6566700D02*
X6856500Y6586700D01*
X6833200Y6600000D01*
X6806500D01*
X6776500Y6580000D01*
X6753200Y6546700D01*
X6736500Y6506700D01*
X6723200Y6440000D01*
X6719900Y6380000D01*
X6726500Y6320000D01*
X6736500Y6280000D01*
X6756500Y6240000D01*
X6779900Y6213300D01*
X6803200Y6200000D01*
X6826500D01*
X6849900Y6213300D01*
X6869900Y6233300D01*
X6886500Y6260000D01*
G01X3626700Y360000D02*
X3493300D01*
Y760000D01*
X3626700D01*
G01X3573300Y566700D02*
X3493300D01*
G01X3708500Y760000D02*
Y360000D01*
X3841900D01*
G01X4057100D02*
X3923700D01*
Y760000D01*
X4057100D01*
G01X4003700Y566700D02*
X3923700D01*
G01X4278900Y726700D02*
X4258900Y746700D01*
X4235600Y760000D01*
X4208900D01*
X4178900Y740000D01*
X4155600Y706700D01*
X4138900Y666700D01*
X4125600Y600000D01*
X4122300Y540000D01*
X4128900Y480000D01*
X4138900Y440000D01*
X4158900Y400000D01*
X4182300Y373300D01*
X4205600Y360000D01*
X4228900D01*
X4252300Y373300D01*
X4272300Y393300D01*
X4288900Y420000D01*
G01X4420800Y760000D02*
Y360000D01*
G01X4344100Y760000D02*
X4497500D01*
G01X4569300Y360000D02*
Y760000D01*
X4652700D01*
X4679300Y740000D01*
X4696000Y713300D01*
X4702700Y660000D01*
X4696000Y606700D01*
X4676000Y573300D01*
X4652700Y553300D01*
X4569300D01*
G01X4652700D02*
X4702700Y360000D01*
G01X4851200D02*
X4824500Y366700D01*
X4801200Y393300D01*
X4781200Y433300D01*
X4767900Y480000D01*
X4761200Y533300D01*
Y586700D01*
X4767900Y640000D01*
X4781200Y686700D01*
X4801200Y726700D01*
X4824500Y753300D01*
X4851200Y760000D01*
X4877900Y753300D01*
X4901200Y726700D01*
X4921200Y686700D01*
X4934500Y640000D01*
X4941200Y586700D01*
Y533300D01*
X4934500Y480000D01*
X4921200Y433300D01*
X4901200Y393300D01*
X4877900Y366700D01*
X4851200Y360000D01*
G01X4989700D02*
Y760000D01*
X5143100Y360000D01*
Y760000D01*
G01X5241600D02*
X5321600D01*
G01X5281600D02*
Y360000D01*
G01X5241600D02*
X5321600D01*
G01X5570100Y726700D02*
X5550100Y746700D01*
X5526800Y760000D01*
X5500100D01*
X5470100Y740000D01*
X5446800Y706700D01*
X5430100Y666700D01*
X5416800Y600000D01*
X5413500Y540000D01*
X5420100Y480000D01*
X5430100Y440000D01*
X5450100Y400000D01*
X5473500Y373300D01*
X5496800Y360000D01*
X5520100D01*
X5543500Y373300D01*
X5563500Y393300D01*
X5580100Y420000D01*
G01X6000500Y726700D02*
X5980500Y746700D01*
X5957200Y760000D01*
X5930500D01*
X5900500Y740000D01*
X5877200Y706700D01*
X5860500Y666700D01*
X5847200Y600000D01*
X5843900Y540000D01*
X5850500Y480000D01*
X5860500Y440000D01*
X5880500Y400000D01*
X5903900Y373300D01*
X5927200Y360000D01*
X5950500D01*
X5973900Y373300D01*
X5993900Y393300D01*
X6010500Y420000D01*
G01X6059100Y360000D02*
X6142400Y760000D01*
X6225700Y360000D01*
G01X6195700Y500000D02*
X6089100D01*
G01X6284300Y360000D02*
Y760000D01*
X6350900D01*
X6377600Y740000D01*
X6397600Y713300D01*
X6414300Y673300D01*
X6427600Y626700D01*
X6430900Y560000D01*
X6427600Y493300D01*
X6414300Y446700D01*
X6397600Y406700D01*
X6377600Y380000D01*
X6350900Y360000D01*
X6284300D01*
G54D11*
G01X483000Y3627000D02*
X737000D01*
Y2865000D01*
X483000D01*
Y3627000D01*
G01X512600Y3762200D02*
X517500Y3754400D01*
X523300Y3749100D01*
X530200Y3746500D01*
X537900Y3749100D01*
X543800Y3754400D01*
X549600Y3762200D01*
X551600Y3772700D01*
Y3825200D01*
G01X610800Y3746500D02*
Y3825200D01*
X599100Y3809500D01*
G01Y3746500D02*
X622500D01*
G01X1108900Y4455600D02*
X1118500Y4449200D01*
X1129800Y4445000D01*
X1142600D01*
X1157100Y4451400D01*
X1168400Y4461900D01*
X1176400Y4474600D01*
X1182900Y4495800D01*
X1184500Y4514900D01*
X1181200Y4533900D01*
X1176400Y4546600D01*
X1166800Y4559300D01*
X1155500Y4567800D01*
X1144300Y4572000D01*
X1133000D01*
X1121700Y4567800D01*
X1112100Y4561400D01*
X1104000Y4553000D01*
G01X1045300Y4466200D02*
X1035700Y4453500D01*
X1024400Y4447100D01*
X1011500Y4445000D01*
X995400Y4449200D01*
X984200Y4459800D01*
X981000Y4472500D01*
X982600Y4485200D01*
X989000Y4495800D01*
X1021200Y4517000D01*
X1035700Y4531800D01*
X1045300Y4553000D01*
X1048500Y4572000D01*
X981000D01*
G01X1113600Y5323400D02*
X1104000Y5329800D01*
X1092700Y5334000D01*
X1079900D01*
X1065400Y5327600D01*
X1054100Y5317100D01*
X1046100Y5304400D01*
X1039600Y5283200D01*
X1038000Y5264100D01*
X1041300Y5245100D01*
X1046100Y5232400D01*
X1055700Y5219700D01*
X1067000Y5211200D01*
X1078200Y5207000D01*
X1089500D01*
X1100800Y5211200D01*
X1110400Y5217600D01*
X1118500Y5226000D01*
G01X1207700Y5207000D02*
Y5334000D01*
X1188400Y5308600D01*
G01Y5207000D02*
X1227000D01*
G01X1485900Y2540000D02*
X2197100D01*
Y2286000D01*
X1485900D01*
Y2540000D01*
G01X2197100Y3111500D02*
X1485900D01*
Y3365500D01*
X2197100D01*
Y3111500D01*
G01X2133600Y2730500D02*
X1422400D01*
Y2984500D01*
X2133600D01*
Y2730500D01*
G01X1778000Y4191000D02*
G03I-254000J0D01*
G01X2197100Y3492500D02*
X1485900D01*
Y3746500D01*
X2197100D01*
Y3492500D01*
G01X1778000Y4953000D02*
G03I-254000J0D01*
G01X2481100Y2540000D02*
Y2618700D01*
X2505500D01*
X2513300Y2614800D01*
X2518100Y2609500D01*
X2520100Y2599000D01*
X2518100Y2588500D01*
X2512300Y2582000D01*
X2505500Y2578000D01*
X2481100D01*
G01X2505500D02*
X2520100Y2540000D01*
G01X2562800Y2549200D02*
X2569600Y2542600D01*
X2577400Y2540000D01*
X2585100Y2542600D01*
X2592000Y2550500D01*
X2596800Y2562300D01*
X2598800Y2574100D01*
Y2588500D01*
X2596800Y2600300D01*
X2592000Y2610800D01*
X2586100Y2616100D01*
X2579300Y2618700D01*
X2571500Y2616100D01*
X2565700Y2610800D01*
X2561800Y2603000D01*
X2559800Y2592500D01*
X2561800Y2583300D01*
X2566600Y2574100D01*
X2572500Y2568900D01*
X2579300Y2567500D01*
X2587100Y2570200D01*
X2592900Y2576700D01*
X2598800Y2588500D01*
G01X2481100Y2984500D02*
Y3063200D01*
X2505500D01*
X2513300Y3059300D01*
X2518100Y3054000D01*
X2520100Y3043500D01*
X2518100Y3033000D01*
X2512300Y3026500D01*
X2505500Y3022500D01*
X2481100D01*
G01X2505500D02*
X2520100Y2984500D01*
G01X2557900Y3000200D02*
X2563700Y2991100D01*
X2571500Y2985800D01*
X2580300Y2984500D01*
X2588100Y2985800D01*
X2595800Y2992400D01*
X2600700Y3000200D01*
X2601700Y3008100D01*
X2599700Y3017300D01*
X2592900Y3023800D01*
X2586100Y3026500D01*
X2577400D01*
G01X2586100D02*
X2592000Y3030400D01*
X2596800Y3037000D01*
X2598800Y3044800D01*
X2596800Y3052700D01*
X2592000Y3059300D01*
X2583200Y3063200D01*
X2574400Y3061900D01*
X2565700Y3056600D01*
G01X2481100Y3429000D02*
Y3507700D01*
X2505500D01*
X2513300Y3503800D01*
X2518100Y3498500D01*
X2520100Y3488000D01*
X2518100Y3477500D01*
X2512300Y3471000D01*
X2505500Y3467000D01*
X2481100D01*
G01X2505500D02*
X2520100Y3429000D01*
G01X2560800Y3494600D02*
X2566600Y3502500D01*
X2573500Y3506400D01*
X2581200Y3507700D01*
X2591000Y3505100D01*
X2597800Y3498500D01*
X2599700Y3490600D01*
X2598800Y3482800D01*
X2594900Y3476200D01*
X2575400Y3463100D01*
X2566600Y3453900D01*
X2560800Y3440800D01*
X2558900Y3429000D01*
X2599700D01*
G01X2481100Y3746500D02*
Y3825200D01*
X2505500D01*
X2513300Y3821300D01*
X2518100Y3816000D01*
X2520100Y3805500D01*
X2518100Y3795000D01*
X2512300Y3788500D01*
X2505500Y3784500D01*
X2481100D01*
G01X2505500D02*
X2520100Y3746500D01*
G01X2557900Y3758300D02*
X2563700Y3751700D01*
X2570500Y3747800D01*
X2579300Y3746500D01*
X2588100Y3749100D01*
X2594900Y3754400D01*
X2599700Y3763600D01*
X2600700Y3774000D01*
X2598800Y3784500D01*
X2593900Y3791100D01*
X2587100Y3796300D01*
X2580300Y3797700D01*
X2573500Y3796300D01*
X2564700Y3791100D01*
X2567600Y3825200D01*
X2593900D01*
G01X3048000Y5207000D02*
Y4572000D01*
X2540000D01*
Y5207000D01*
X3048000D01*
G01X2959100Y3619500D02*
X3111500D01*
X3175000Y3556000D01*
X3302000D01*
X3365500Y3619500D01*
X3517900D01*
Y2603500D01*
X2959100D01*
Y3619500D01*
G01X2884400Y3873500D02*
Y3782500D01*
X2890800Y3763400D01*
X2903700Y3750700D01*
X2919700Y3746500D01*
X2935800Y3750700D01*
X2948700Y3763400D01*
X2955100Y3782500D01*
Y3873500D01*
G01X3049200Y3746500D02*
Y3873500D01*
X3029900Y3848100D01*
G01Y3746500D02*
X3068500D01*
G01X3108600Y4414500D02*
X3068400Y4541500D01*
X3028100Y4414500D01*
G01X2971000Y4541500D02*
Y4414500D01*
X2930800D01*
X2917900Y4420900D01*
X2909900Y4429300D01*
X2906700Y4446300D01*
X2909900Y4463200D01*
X2919500Y4473800D01*
X2930800Y4480100D01*
X2971000D01*
G01X2930800D02*
X2906700Y4541500D01*
G01X2809400D02*
Y4414500D01*
X2828700Y4439900D01*
G01Y4541500D02*
X2790100D01*
G01X4000500Y2819400D02*
Y3530600D01*
X4254500D01*
Y2819400D01*
X4000500D01*
G01X4445000Y4127500D02*
G03I-254000J0D01*
G01X3907600Y4497900D02*
X3898000Y4504300D01*
X3886700Y4508500D01*
X3873900D01*
X3859400Y4502100D01*
X3848100Y4491600D01*
X3840100Y4478900D01*
X3833600Y4457700D01*
X3832000Y4438600D01*
X3835300Y4419600D01*
X3840100Y4406900D01*
X3849700Y4394200D01*
X3861000Y4385700D01*
X3872200Y4381500D01*
X3883500D01*
X3894800Y4385700D01*
X3904400Y4392100D01*
X3912500Y4400500D01*
G01X3966400Y4406900D02*
X3976000Y4392100D01*
X3988900Y4383600D01*
X4003400Y4381500D01*
X4016200Y4383600D01*
X4029100Y4394200D01*
X4037100Y4406900D01*
X4038700Y4419600D01*
X4035500Y4434400D01*
X4024300Y4445000D01*
X4013000Y4449200D01*
X3998500D01*
G01X4013000D02*
X4022700Y4455600D01*
X4030700Y4466200D01*
X4033900Y4478900D01*
X4030700Y4491600D01*
X4022700Y4502100D01*
X4008200Y4508500D01*
X3993700Y4506400D01*
X3979200Y4497900D01*
G01X3873500Y4572000D02*
Y5207000D01*
X4381500D01*
Y4572000D01*
X3873500D01*
G01X3812900Y5364500D02*
X3853100Y5237500D01*
X3893400Y5364500D01*
G01X3950500Y5237500D02*
Y5364500D01*
X3990700D01*
X4003600Y5358100D01*
X4011600Y5349700D01*
X4014800Y5332700D01*
X4011600Y5315800D01*
X4002000Y5305200D01*
X3990700Y5298900D01*
X3950500D01*
G01X3990700D02*
X4014800Y5237500D01*
G01X4081600Y5343300D02*
X4091200Y5356000D01*
X4102500Y5362400D01*
X4115400Y5364500D01*
X4131500Y5360300D01*
X4142700Y5349700D01*
X4145900Y5337000D01*
X4144300Y5324300D01*
X4137900Y5313700D01*
X4105700Y5292500D01*
X4091200Y5277700D01*
X4081600Y5256500D01*
X4078400Y5237500D01*
X4145900D01*
G01X4479100Y2465900D02*
X4469500Y2472300D01*
X4458200Y2476500D01*
X4445400D01*
X4430900Y2470100D01*
X4419600Y2459600D01*
X4411600Y2446900D01*
X4405100Y2425700D01*
X4403500Y2406600D01*
X4406800Y2387600D01*
X4411600Y2374900D01*
X4421200Y2362200D01*
X4432500Y2353700D01*
X4443700Y2349500D01*
X4455000D01*
X4466300Y2353700D01*
X4475900Y2360100D01*
X4484000Y2368500D01*
G01X4592600Y2349500D02*
Y2476500D01*
X4533000Y2385500D01*
X4613500D01*
G01X5080000Y2159000D02*
G03I-254000J0D01*
G01X4276900Y3289300D02*
Y3368000D01*
X4301300D01*
X4309100Y3364100D01*
X4313900Y3358800D01*
X4315900Y3348300D01*
X4313900Y3337800D01*
X4308100Y3331300D01*
X4301300Y3327300D01*
X4276900D01*
G01X4301300D02*
X4315900Y3289300D01*
G01X4356600Y3322100D02*
X4363400Y3331300D01*
X4369300Y3336500D01*
X4377000Y3339100D01*
X4383900Y3336500D01*
X4388700Y3331300D01*
X4392600Y3323400D01*
X4393600Y3314200D01*
X4392600Y3306400D01*
X4388700Y3298500D01*
X4382900Y3291900D01*
X4376100Y3289300D01*
X4368300Y3291900D01*
X4361500Y3299800D01*
X4357600Y3311600D01*
X4356600Y3324700D01*
X4358600Y3341800D01*
X4361500Y3350900D01*
X4366300Y3360100D01*
X4373200Y3366700D01*
X4380000Y3368000D01*
X4386800Y3365400D01*
X4391600Y3358800D01*
G01X4784900Y3289300D02*
Y3368000D01*
X4809300D01*
X4817100Y3364100D01*
X4821900Y3358800D01*
X4823900Y3348300D01*
X4821900Y3337800D01*
X4816100Y3331300D01*
X4809300Y3327300D01*
X4784900D01*
G01X4809300D02*
X4823900Y3289300D01*
G01X4881200D02*
X4883100Y3306400D01*
X4886000Y3320800D01*
X4889900Y3333900D01*
X4894800Y3348300D01*
X4902600Y3368000D01*
X4863600D01*
G01X4508500Y2819400D02*
Y3530600D01*
X4762500D01*
Y2819400D01*
X4508500D01*
G01X5292900Y3289300D02*
Y3368000D01*
X5317300D01*
X5325100Y3364100D01*
X5329900Y3358800D01*
X5331900Y3348300D01*
X5329900Y3337800D01*
X5324100Y3331300D01*
X5317300Y3327300D01*
X5292900D01*
G01X5317300D02*
X5331900Y3289300D01*
G01X5391100D02*
X5397900Y3290600D01*
X5405700Y3294500D01*
X5410600Y3301100D01*
X5412500Y3310300D01*
X5410600Y3319500D01*
X5404700Y3327300D01*
X5396000Y3331300D01*
X5386200D01*
X5380400Y3333900D01*
X5375500Y3340500D01*
X5373600Y3349600D01*
X5376500Y3358800D01*
X5383300Y3365400D01*
X5391100Y3368000D01*
X5398900Y3365400D01*
X5405700Y3358800D01*
X5408600Y3349600D01*
X5406700Y3340500D01*
X5401800Y3333900D01*
X5396000Y3331300D01*
X5386200D01*
X5377500Y3327300D01*
X5371600Y3319500D01*
X5369700Y3310300D01*
X5371600Y3301100D01*
X5376500Y3294500D01*
X5384300Y3290600D01*
X5391100Y3289300D01*
G01X5016500Y2819400D02*
Y3530600D01*
X5270500D01*
Y2819400D01*
X5016500D01*
G01X5588000Y2895600D02*
Y3048000D01*
X5651500Y3111500D01*
Y3238500D01*
X5588000Y3302000D01*
Y3454400D01*
X6604000D01*
Y2895600D01*
X5588000D01*
G01X5614900Y3937000D02*
Y3846000D01*
X5621300Y3826900D01*
X5634200Y3814200D01*
X5650200Y3810000D01*
X5666300Y3814200D01*
X5679200Y3826900D01*
X5685600Y3846000D01*
Y3937000D01*
G01X5799100Y3810000D02*
Y3937000D01*
X5739500Y3846000D01*
X5820000D01*
G01X5148100Y4762500D02*
Y4841200D01*
X5172500D01*
X5180300Y4837300D01*
X5185100Y4832000D01*
X5187100Y4821500D01*
X5185100Y4811000D01*
X5179300Y4804500D01*
X5172500Y4800500D01*
X5148100D01*
G01X5172500D02*
X5187100Y4762500D01*
G01X5258000D02*
Y4841200D01*
X5222000Y4784800D01*
X5270600D01*
G01X5943600Y4381500D02*
X5232400D01*
Y4635500D01*
X5943600D01*
Y4381500D01*
G01X5743800Y1841500D02*
Y1920200D01*
X5768200D01*
X5776000Y1916300D01*
X5780800Y1911000D01*
X5782800Y1900500D01*
X5780800Y1890000D01*
X5775000Y1883500D01*
X5768200Y1879500D01*
X5743800D01*
G01X5768200D02*
X5782800Y1841500D01*
G01X5842000D02*
Y1920200D01*
X5830300Y1904500D01*
G01Y1841500D02*
X5853700D01*
G01X5920700D02*
Y1920200D01*
X5909000Y1904500D01*
G01Y1841500D02*
X5932400D01*
G01X5803900Y1778000D02*
X6515100D01*
Y1524000D01*
X5803900D01*
Y1778000D01*
G01X5680300Y1397000D02*
Y1475700D01*
X5704700D01*
X5712500Y1471800D01*
X5717300Y1466500D01*
X5719300Y1456000D01*
X5717300Y1445500D01*
X5711500Y1439000D01*
X5704700Y1435000D01*
X5680300D01*
G01X5704700D02*
X5719300Y1397000D01*
G01X5778500D02*
Y1475700D01*
X5766800Y1460000D01*
G01Y1397000D02*
X5790200D01*
G01X5835800Y1412700D02*
X5841600Y1403600D01*
X5849400Y1398300D01*
X5858200Y1397000D01*
X5866000Y1398300D01*
X5873700Y1404900D01*
X5878600Y1412700D01*
X5879600Y1420600D01*
X5877600Y1429800D01*
X5870800Y1436300D01*
X5864000Y1439000D01*
X5855300D01*
G01X5864000D02*
X5869900Y1442900D01*
X5874700Y1449500D01*
X5876700Y1457300D01*
X5874700Y1465200D01*
X5869900Y1471800D01*
X5861100Y1475700D01*
X5852300Y1474400D01*
X5843600Y1469100D01*
G01X6515100Y1143000D02*
X5803900D01*
Y1397000D01*
X6515100D01*
Y1143000D01*
G01X5680300Y2349500D02*
Y2428200D01*
X5704700D01*
X5712500Y2424300D01*
X5717300Y2419000D01*
X5719300Y2408500D01*
X5717300Y2398000D01*
X5711500Y2391500D01*
X5704700Y2387500D01*
X5680300D01*
G01X5704700D02*
X5719300Y2349500D01*
G01X5778500D02*
Y2428200D01*
X5766800Y2412500D01*
G01Y2349500D02*
X5790200D01*
G01X5838700Y2415100D02*
X5844500Y2423000D01*
X5851400Y2426900D01*
X5859100Y2428200D01*
X5868900Y2425600D01*
X5875700Y2419000D01*
X5877600Y2411100D01*
X5876700Y2403300D01*
X5872800Y2396700D01*
X5853300Y2383600D01*
X5844500Y2374400D01*
X5838700Y2361300D01*
X5836800Y2349500D01*
X5877600D01*
G01X6515100Y1968500D02*
X5803900D01*
Y2222500D01*
X6515100D01*
Y1968500D01*
G01X8191500Y1803400D02*
Y1651000D01*
X8128000Y1587500D01*
Y1460500D01*
X8191500Y1397000D01*
Y1244600D01*
X7175500D01*
Y1803400D01*
X8191500D01*
G01X7138900Y2222500D02*
Y2131500D01*
X7145300Y2112400D01*
X7158200Y2099700D01*
X7174200Y2095500D01*
X7190300Y2099700D01*
X7203200Y2112400D01*
X7209600Y2131500D01*
Y2222500D01*
G01X7268400Y2120900D02*
X7278000Y2106100D01*
X7290900Y2097600D01*
X7305400Y2095500D01*
X7318200Y2097600D01*
X7331100Y2108200D01*
X7339100Y2120900D01*
X7340700Y2133600D01*
X7337500Y2148400D01*
X7326300Y2159000D01*
X7315000Y2163200D01*
X7300500D01*
G01X7315000D02*
X7324700Y2169600D01*
X7332700Y2180200D01*
X7335900Y2192900D01*
X7332700Y2205600D01*
X7324700Y2216100D01*
X7310200Y2222500D01*
X7295700Y2220400D01*
X7281200Y2211900D01*
G01X7458300Y2603500D02*
Y2682200D01*
X7482700D01*
X7490500Y2678300D01*
X7495300Y2673000D01*
X7497300Y2662500D01*
X7495300Y2652000D01*
X7489500Y2645500D01*
X7482700Y2641500D01*
X7458300D01*
G01X7482700D02*
X7497300Y2603500D01*
G01X7556500D02*
Y2682200D01*
X7544800Y2666500D01*
G01Y2603500D02*
X7568200D01*
G01X7635200Y2682200D02*
X7627400Y2679600D01*
X7621600Y2673000D01*
X7617700Y2665100D01*
X7614800Y2654700D01*
X7613800Y2642800D01*
X7614800Y2631000D01*
X7617700Y2620600D01*
X7621600Y2612700D01*
X7627400Y2606100D01*
X7635200Y2603500D01*
X7643000Y2606100D01*
X7648800Y2612700D01*
X7652700Y2620600D01*
X7655600Y2631000D01*
X7656600Y2642800D01*
X7655600Y2654700D01*
X7652700Y2665100D01*
X7648800Y2673000D01*
X7643000Y2679600D01*
X7635200Y2682200D01*
G01X8420100Y2286000D02*
X7708900D01*
Y2540000D01*
X8420100D01*
Y2286000D01*
G01X8191500Y3492500D02*
Y2857500D01*
X7683500D01*
Y3492500D01*
X8191500D01*
G01X7848600Y4826000D02*
X8001000D01*
X8064500Y4762500D01*
X8191500D01*
X8255000Y4826000D01*
X8407400D01*
Y3810000D01*
X7848600D01*
Y4826000D01*
G01X7450200Y3683000D02*
X7490400Y3556000D01*
X7530700Y3683000D01*
G01X7587800Y3556000D02*
Y3683000D01*
X7628000D01*
X7640900Y3676600D01*
X7648900Y3668200D01*
X7652100Y3651200D01*
X7648900Y3634300D01*
X7639300Y3623700D01*
X7628000Y3617400D01*
X7587800D01*
G01X7628000D02*
X7652100Y3556000D01*
G01X7714100Y3581400D02*
X7723700Y3566600D01*
X7736600Y3558100D01*
X7751100Y3556000D01*
X7763900Y3558100D01*
X7776800Y3568700D01*
X7784800Y3581400D01*
X7786400Y3594100D01*
X7783200Y3608900D01*
X7772000Y3619500D01*
X7760700Y3623700D01*
X7746200D01*
G01X7760700D02*
X7770400Y3630100D01*
X7778400Y3640700D01*
X7781600Y3653400D01*
X7778400Y3666100D01*
X7770400Y3676600D01*
X7755900Y3683000D01*
X7741400Y3680900D01*
X7726900Y3672400D01*
G01X7456400Y4953000D02*
Y4862000D01*
X7462800Y4842900D01*
X7475700Y4830200D01*
X7491700Y4826000D01*
X7507800Y4830200D01*
X7520700Y4842900D01*
X7527100Y4862000D01*
Y4953000D01*
G01X7590700Y4931800D02*
X7600300Y4944500D01*
X7611600Y4950900D01*
X7624500Y4953000D01*
X7640600Y4948800D01*
X7651800Y4938200D01*
X7655000Y4925500D01*
X7653400Y4912800D01*
X7647000Y4902200D01*
X7614800Y4881000D01*
X7600300Y4866200D01*
X7590700Y4845000D01*
X7587500Y4826000D01*
X7655000D01*
G01X7497600Y5397500D02*
Y5476200D01*
X7522000D01*
X7529800Y5472300D01*
X7534600Y5467000D01*
X7536600Y5456500D01*
X7534600Y5446000D01*
X7528800Y5439500D01*
X7522000Y5435500D01*
X7497600D01*
G01X7522000D02*
X7536600Y5397500D01*
G01X7595800D02*
Y5476200D01*
X7584100Y5460500D01*
G01Y5397500D02*
X7607500D01*
G01X8537600Y5043000D02*
X7826400D01*
Y5297000D01*
X8537600D01*
Y5043000D01*
G01X9461500Y3302000D02*
X9207500D01*
Y3810000D01*
X9461500D01*
Y3302000D01*
G01X9148600Y3889200D02*
X9153500Y3881400D01*
X9159300Y3876100D01*
X9166200Y3873500D01*
X9173900Y3876100D01*
X9179800Y3881400D01*
X9185600Y3889200D01*
X9187600Y3899700D01*
Y3952200D01*
G01X9228300Y3939100D02*
X9234100Y3947000D01*
X9241000Y3950900D01*
X9248700Y3952200D01*
X9258500Y3949600D01*
X9265300Y3943000D01*
X9267200Y3935100D01*
X9266300Y3927300D01*
X9262400Y3920700D01*
X9242900Y3907600D01*
X9234100Y3898400D01*
X9228300Y3885300D01*
X9226400Y3873500D01*
X9267200D01*
M02*
