G04 ================== begin FILE IDENTIFICATION RECORD ==================*
G04 Layout Name:  C:/WORK_ORCAD/CHOPPINGWAVEOSC/allegro/CHOPPING/CHOPPINGWAVEOSC.brd*
G04 Film Name:    solderB*
G04 File Format:  Gerber RS274X*
G04 File Origin:  Cadence Allegro 17.2-P019*
G04 Origin Date:  Wed Jul 31 12:03:07 2019*
G04 *
G04 Layer:  VIA CLASS/SOLDERMASK_BOTTOM*
G04 Layer:  PIN/SOLDERMASK_BOTTOM*
G04 Layer:  PACKAGE GEOMETRY/SOLDERMASK_BOTTOM*
G04 Layer:  BOARD GEOMETRY/SOLDERMASK_BOTTOM*
G04 *
G04 Offset:    (0.000 0.000)*
G04 Mirror:    No*
G04 Mode:      Positive*
G04 Rotation:  0*
G04 FullContactRelief:  No*
G04 UndefLineWidth:     0.000*
G04 ================== end FILE IDENTIFICATION RECORD ====================*
%FSLAX25Y25*MOMM*%
%IR0*IPPOS*OFA0.00000B0.00000*MIA0B0*SFA1.00000B1.00000*%
%ADD12C,2.032*%
%ADD11C,1.905*%
%ADD10C,3.683*%
%ADD13R,1.905X1.905*%
%LPD*%
G75*
G54D10*
X500000Y500000D03*
Y6500000D03*
X9500000Y500000D03*
Y6500000D03*
G54D11*
X610000Y2992000D03*
Y3246000D03*
Y3500000D03*
X1651000Y4191000D03*
X1397000D03*
X1524000Y4826000D03*
Y5080000D03*
X2667000Y4635500D03*
Y5143500D03*
X2857500Y2730500D03*
Y2984500D03*
Y3238500D03*
X2921000Y4889500D03*
X3619500Y2730500D03*
Y2984500D03*
Y3238500D03*
Y3492500D03*
X4064000Y4127500D03*
X4254500Y4635500D03*
X4000500Y4889500D03*
X4254500Y5143500D03*
X4699000Y2159000D03*
X4953000D03*
X4318000Y4127500D03*
X5715000Y3556000D03*
X6477000Y2794000D03*
X6223000D03*
X5969000D03*
X6477000Y3556000D03*
X6223000D03*
X5969000D03*
X7302500Y1143000D03*
Y1905000D03*
X7556500Y1143000D03*
X7810500D03*
X8064500D03*
X7556500Y1905000D03*
X7810500D03*
Y3429000D03*
X8064500Y3175000D03*
X7810500Y2921000D03*
X7747000Y3937000D03*
Y4191000D03*
Y4445000D03*
X8509000Y3937000D03*
Y4191000D03*
Y4445000D03*
Y4699000D03*
X9334500Y3429000D03*
Y3683000D03*
G54D12*
X1333500Y2413000D03*
Y3238500D03*
X1270000Y2857500D03*
X1333500Y3619500D03*
X2349500Y2413000D03*
Y3238500D03*
X2286000Y2857500D03*
X2349500Y3619500D03*
X4127500Y2667000D03*
Y3683000D03*
X4635500Y2667000D03*
Y3683000D03*
X5651500Y1651000D03*
Y1270000D03*
X5143500Y2667000D03*
X5651500Y2095500D03*
X5143500Y3683000D03*
X5080000Y4508500D03*
X6096000D03*
X6667500Y1651000D03*
Y1270000D03*
Y2095500D03*
X7556500Y2413000D03*
X7674000Y5170000D03*
X8572500Y2413000D03*
X8690000Y5170000D03*
G54D13*
X2857500Y3492500D03*
X5715000Y2794000D03*
X8064500Y1905000D03*
X7747000Y4699000D03*
M02*
