G04 ================== begin FILE IDENTIFICATION RECORD ==================*
G04 Layout Name:  C:/WORK_ORCAD/CHOPPINGWAVEOSC/allegro/CHOPPING/CHOPPINGWAVEOSC.brd*
G04 Film Name:    TOP*
G04 File Format:  Gerber RS274X*
G04 File Origin:  Cadence Allegro 17.2-P019*
G04 Origin Date:  Wed Jul 31 11:56:55 2019*
G04 *
G04 Layer:  ETCH/TOP*
G04 Layer:  PIN/TOP*
G04 Layer:  VIA CLASS/TOP*
G04 *
G04 Offset:    (0.000 0.000)*
G04 Mirror:    No*
G04 Mode:      Positive*
G04 Rotation:  0*
G04 FullContactRelief:  No*
G04 UndefLineWidth:     0.000*
G04 ================== end FILE IDENTIFICATION RECORD ====================*
%FSLAX25Y25*MOMM*%
%IR0*IPPOS*OFA0.00000B0.00000*MIA0B0*SFA1.00000B1.00000*%
%ADD11C,1.524*%
%ADD12C,1.651*%
%ADD13R,1.524X1.524*%
%ADD10C,.635*%
%ADD14C,1.*%
%ADD15C,.5*%
G75*
%LPD*%
G75*
G54D10*
X500000Y500000D03*
Y6500000D03*
X9500000Y500000D03*
Y6500000D03*
G54D11*
X610000Y2992000D03*
Y3246000D03*
Y3500000D03*
X1651000Y4191000D03*
X1397000D03*
X1524000Y4826000D03*
Y5080000D03*
X2667000Y4635500D03*
Y5143500D03*
X2857500Y2730500D03*
Y2984500D03*
Y3238500D03*
X2921000Y4889500D03*
X3619500Y2730500D03*
Y2984500D03*
Y3238500D03*
Y3492500D03*
X4064000Y4127500D03*
X4254500Y4635500D03*
X4000500Y4889500D03*
X4254500Y5143500D03*
X4699000Y2159000D03*
X4953000D03*
X4318000Y4127500D03*
X5715000Y3556000D03*
X6477000Y2794000D03*
X6223000D03*
X5969000D03*
X6477000Y3556000D03*
X6223000D03*
X5969000D03*
X7302500Y1143000D03*
Y1905000D03*
X7556500Y1143000D03*
X7810500D03*
X8064500D03*
X7556500Y1905000D03*
X7810500D03*
Y3429000D03*
X8064500Y3175000D03*
X7810500Y2921000D03*
X7747000Y3937000D03*
Y4191000D03*
Y4445000D03*
X8509000Y3937000D03*
Y4191000D03*
Y4445000D03*
Y4699000D03*
X9334500Y3429000D03*
Y3683000D03*
G54D12*
X1333500Y2413000D03*
Y3238500D03*
X1270000Y2857500D03*
X1333500Y3619500D03*
X2349500Y2413000D03*
Y3238500D03*
X2286000Y2857500D03*
X2349500Y3619500D03*
X4127500Y2667000D03*
Y3683000D03*
X4635500Y2667000D03*
Y3683000D03*
X5651500Y1651000D03*
Y1270000D03*
X5143500Y2667000D03*
X5651500Y2095500D03*
X5143500Y3683000D03*
X5080000Y4508500D03*
X6096000D03*
X6667500Y1651000D03*
Y1270000D03*
Y2095500D03*
X7556500Y2413000D03*
X7674000Y5170000D03*
X8572500Y2413000D03*
X8690000Y5170000D03*
G54D13*
X2857500Y3492500D03*
X5715000Y2794000D03*
X8064500Y1905000D03*
X7747000Y4699000D03*
G54D14*
G01X1333500Y2413000D02*
X1116000D01*
X1016000Y2513000D01*
Y2840000D01*
X610000Y3246000D01*
G01X6789400Y2794000D02*
X6477000D01*
G01X7302500Y1905000D02*
Y2280900D01*
X6789400Y2794000D01*
G01D02*
X7424400Y3429000D01*
X7810500D01*
G01Y2921000D02*
X8318500Y2413000D01*
Y1651000D01*
X7810500Y1143000D01*
G01X7747000Y3937000D02*
Y3631500D01*
X7810500Y3568000D01*
Y3429000D01*
G01Y2921000D02*
X8191500D01*
X8318500Y3048000D01*
Y4254500D01*
X8509000Y4445000D01*
G54D15*
G01X1270000Y2857500D02*
Y2990500D01*
X1333500Y3054000D01*
Y3238500D01*
G01X1397000Y4191000D02*
Y3803400D01*
X1333500Y3739900D01*
Y3619500D01*
G01X1524000Y4826000D02*
Y4318000D01*
X1397000Y4191000D01*
G01X2857500Y2984500D02*
X2730500D01*
X2349500Y2603500D01*
Y2413000D01*
G01X2667000Y4635500D02*
X2540000Y4508500D01*
Y3429000D01*
X2349500Y3238500D01*
G01X2667000Y5143500D02*
X2921000Y4889500D01*
G01X4000500D02*
X3873500Y4762500D01*
Y3238500D01*
X3619500Y2984500D01*
G01X4064000Y4127500D02*
Y3866900D01*
X4127500Y3803400D01*
Y3683000D01*
G01X4254500Y5143500D02*
X4000500Y4889500D01*
G01X4699000Y2159000D02*
X4826000Y2286000D01*
Y3492500D01*
X4635500Y3683000D01*
G01D02*
Y3937000D01*
X4445000Y4127500D01*
X4318000D01*
G01X5651500Y2095500D02*
Y1651000D01*
G01Y1270000D02*
X6096000D01*
X6223000Y1397000D01*
Y2794000D01*
G01X5651500Y2095500D02*
X5778600D01*
X5969000Y2285900D01*
Y2794000D01*
G01X4953000Y2159000D02*
Y3492500D01*
X5143500Y3683000D01*
G01X6667500Y1651000D02*
X6413500D01*
X6350000Y1714500D01*
Y3429000D01*
X6223000Y3556000D01*
G01X7556500Y2413000D02*
X7683500Y2286000D01*
Y1270000D01*
X7556500Y1143000D01*
G01X8064500Y3175000D02*
Y4064000D01*
X7937500Y4191000D01*
X7747000D01*
G01X7674000Y5170000D02*
X7556500Y5052500D01*
Y4635500D01*
X7747000Y4445000D01*
G01X8572500Y2413000D02*
X8657700Y2498200D01*
Y4042300D01*
X8509000Y4191000D01*
G01X8690000Y5170000D02*
Y4372000D01*
X8509000Y4191000D01*
M02*
