G04 ================== begin FILE IDENTIFICATION RECORD ==================*
G04 Layout Name:  C:/work_OrCAD/allegro/PULSE MODULATION1.brd*
G04 Film Name:    BOTTOM*
G04 File Format:  Gerber RS274X*
G04 File Origin:  Cadence Allegro 17.2-P019*
G04 Origin Date:  Tue Jul 30 16:32:43 2019*
G04 *
G04 Layer:  ETCH/BOTTOM*
G04 Layer:  PIN/BOTTOM*
G04 Layer:  VIA CLASS/BOTTOM*
G04 *
G04 Offset:    (0.000 0.000)*
G04 Mirror:    No*
G04 Mode:      Positive*
G04 Rotation:  0*
G04 FullContactRelief:  No*
G04 UndefLineWidth:     0.000*
G04 ================== end FILE IDENTIFICATION RECORD ====================*
%FSLAX25Y25*MOMM*%
%IR0*IPPOS*OFA0.00000B0.00000*MIA0B0*SFA1.00000B1.00000*%
%ADD11C,1.524*%
%ADD13C,1.651*%
%ADD12R,1.524X1.524*%
%ADD15O,1.016X1.524*%
%ADD14R,1.016X1.524*%
%ADD10C,.635*%
%ADD16C,1.*%
%ADD17C,.5*%
%ADD19C,2.528*%
%ADD18C,2.656*%
G75*
%LPD*%
G75*
G36*
G01X754200Y500000D02*
Y754200D01*
X500000D01*
Y2111600D01*
G03X546500Y2355500I0J126383D01*
G02Y2374500I3796J9500D01*
G03Y2609500I-46500J117500D01*
G02Y2628500I3796J9500D01*
G03X622300Y2714200I-46509J117508D01*
G02X639400Y2718900I9891J-2529D01*
G01X661800Y2696500D01*
Y1646500D01*
X820500Y1487800D01*
X1172900D01*
G03X1296500Y1705500I77088J100170D01*
G02Y1724500I3796J9500D01*
G03Y1959500I-46500J117500D01*
G02Y1978500I3796J9500D01*
G03X1314600Y2204600I-46528J117499D01*
G02X1319800Y2223600I5194J8790D01*
G01X1326200D01*
G03X1376400Y2273800I0J50200D01*
G01Y2426200D01*
G03X1326200Y2476400I-50200J0D01*
G01X1173800D01*
G03X1123600Y2426200I0J-50200D01*
G01Y2273800D01*
G03X1173800Y2223600I50200J0D01*
G01X1180200D01*
G02X1185400Y2204600I6J-10210D01*
G03X1203500Y1978500I64628J-108601D01*
G02Y1959500I-3796J-9500D01*
G03X1148400Y1917200I46451J-117544D01*
G01X1033600D01*
X1027700Y1923100D01*
Y3142500D01*
X500000Y3670200D01*
Y3865600D01*
G03X546500Y4109500I0J126383D01*
G02Y4128500I3796J9500D01*
G03X601600Y4170800I-46451J117544D01*
G01X1818900D01*
X1936800Y4052900D01*
Y2451600D01*
G03X1965500Y2232500I75208J-101578D01*
G02Y2213500I-3796J-9500D01*
G03Y1978500I46500J-117500D01*
G02Y1959500I-3796J-9500D01*
G03Y1724500I46500J-117500D01*
G02Y1705500I-3796J-9500D01*
G03X2058500I46500J-117500D01*
G02Y1724500I3796J9500D01*
G03Y1959500I-46500J117500D01*
G02Y1978500I3796J9500D01*
G03Y2213500I-46500J117500D01*
G02Y2232500I3796J9500D01*
G03X2087200Y2451600I-46508J117522D01*
G01Y4115100D01*
X1881100Y4321200D01*
X601600D01*
G03X546500Y4363500I-101551J-75244D01*
G02Y4382500I3796J9500D01*
G03X500000Y4626400I-46500J117517D01*
G01Y6245800D01*
X754200D01*
Y6500000D01*
X9245800D01*
Y6245800D01*
X9500000D01*
Y3380400D01*
G03X9453500Y3136500I0J-126383D01*
G02Y3117500I-3796J-9500D01*
G03X9500000Y2873600I46500J-117517D01*
G01Y754200D01*
X9245800D01*
Y500000D01*
X754200D01*
G37*
%LPC*%
G75*
G36*
G01X7823600Y2423800D02*
Y2576200D01*
G02X7873800Y2626400I50200J0D01*
G01X8026200D01*
G02X8076400Y2576200I0J-50200D01*
G01Y2423800D01*
G02X8026200Y2373600I-50200J0D01*
G01X7873800D01*
G02X7823600Y2423800I0J50200D01*
G37*
G36*
G01X6481800Y4484300D02*
G02X6450800Y4473600I-31000J39557D01*
G01X6349200D01*
G02X6299000Y4523800I0J50200D01*
G01Y4676200D01*
G02X6349200Y4726400I50200J0D01*
G01X6450800D01*
G02X6481800Y4715700I0J-50257D01*
G02X6590500Y4703900I45187J-90309D01*
G02X6755000Y4625400I63520J-78500D01*
G01Y4574600D01*
G02X6590500Y4496100I-100980J0D01*
G02X6481800Y4484300I-63513J78509D01*
G37*
G36*
G01X3658500Y4305500D02*
G02X3565500I-46500J-117500D01*
G03Y4324500I-3796J9500D01*
G02Y4559500I46500J117500D01*
G03Y4578500I-3796J9500D01*
G02Y4813500I46500J117500D01*
G03Y4832500I-3796J9500D01*
G02X3658500I46500J117500D01*
G03Y4813500I3796J-9500D01*
G02Y4578500I-46500J-117500D01*
G03Y4559500I3796J-9500D01*
G02Y4324500I-46500J-117500D01*
G03Y4305500I3796J-9500D01*
G37*
G36*
G01X2896500D02*
G02X2803500I-46500J-117500D01*
G03Y4324500I-3796J9500D01*
G02Y4559500I46500J117500D01*
G03Y4578500I-3796J9500D01*
G02X2785400Y4804600I46528J117499D01*
G03X2780200Y4823600I-5194J8790D01*
G01X2773800D01*
G02X2723600Y4873800I0J50200D01*
G01Y5026200D01*
G02X2773800Y5076400I50200J0D01*
G01X2926200D01*
G02X2976400Y5026200I0J-50200D01*
G01Y4873800D01*
G02X2926200Y4823600I-50200J0D01*
G01X2919800D01*
G03X2914600Y4804600I-6J-10210D01*
G02X2896500Y4578500I-64628J-108601D01*
G03Y4559500I3796J-9500D01*
G02Y4324500I-46500J-117500D01*
G03Y4305500I3796J-9500D01*
G37*
G36*
G01X4596500Y3667500D02*
G02X4503500I-46500J-117500D01*
G03Y3686500I-3796J9500D01*
G02X4596500I46500J117500D01*
G03Y3667500I3796J-9500D01*
G37*
G36*
G01X5896500Y3617500D02*
G02X5803500I-46500J-117500D01*
G03Y3636500I-3796J9500D01*
G02X5896500I46500J117500D01*
G03Y3617500I3796J-9500D01*
G37*
G36*
G01X6627100Y1437800D02*
G02X6503500Y1655500I-77088J100170D01*
G03Y1674500I-3796J9500D01*
G02Y1909500I46500J117500D01*
G03Y1928500I-3796J9500D01*
G02X6485400Y2154600I46528J117499D01*
G03X6480200Y2173600I-5194J8790D01*
G01X6473800D01*
G02X6423600Y2223800I0J50200D01*
G01Y2376200D01*
G02X6473800Y2426400I50200J0D01*
G01X6626200D01*
G02X6676400Y2376200I0J-50200D01*
G01Y2223800D01*
G02X6626200Y2173600I-50200J0D01*
G01X6619800D01*
G03X6614600Y2154600I-6J-10210D01*
G02X6596500Y1928500I-64628J-108601D01*
G03Y1909500I3796J-9500D01*
G02Y1674500I-46500J-117500D01*
G03Y1655500I3796J-9500D01*
G02X6627100Y1638200I-46303J-117612D01*
G01X6935200D01*
X7011800Y1714800D01*
Y3153000D01*
X7202400Y3343600D01*
X7499800D01*
Y3510900D01*
G02X7553500Y3705500I100191J77062D01*
G03Y3724500I-3796J9500D01*
G02Y3959500I46500J117500D01*
G03Y3978500I-3796J9500D01*
G02X7535400Y4204600I46528J117499D01*
G03X7530200Y4223600I-5194J8790D01*
G01X7523800D01*
G02X7473600Y4273800I0J50200D01*
G01Y4426200D01*
G02X7523800Y4476400I50200J0D01*
G01X7676200D01*
G02X7726400Y4426200I0J-50200D01*
G01Y4273800D01*
G02X7676200Y4223600I-50200J0D01*
G01X7669800D01*
G03X7664600Y4204600I-6J-10210D01*
G02X7646500Y3978500I-64628J-108601D01*
G03Y3959500I3796J-9500D01*
G02Y3724500I-46500J-117500D01*
G03Y3705500I3796J-9500D01*
G02X7700200Y3510900I-46491J-117538D01*
G01Y3250300D01*
X7593100Y3143200D01*
X7285400D01*
X7212200Y3070000D01*
Y2403100D01*
G03X7229100Y2395400I10201J-6D01*
G02X7434300Y2331800I82884J-95411D01*
G03X7451400Y2327100I9891J2529D01*
G01X7519800Y2395500D01*
Y3026000D01*
X7642000Y3148200D01*
X8086500D01*
X8091300Y3153000D01*
Y3967000D01*
X8236700Y4112400D01*
X8236900Y4114000D01*
G02X8315500Y4213500I125093J-18022D01*
G03Y4232500I-3796J9500D01*
G02X8408500I46500J117500D01*
G03Y4213500I3796J-9500D01*
G02Y3978500I-46500J-117500D01*
G03Y3959500I3796J-9500D01*
G02Y3724500I-46500J-117500D01*
G03Y3705500I3796J-9500D01*
G02X8306400Y3474500I-46504J-117509D01*
G03X8291700Y3465300I-4499J-9156D01*
G01Y3070000D01*
X8169500Y2947800D01*
X7725000D01*
X7720200Y2943000D01*
Y2312500D01*
X7437300Y2029600D01*
X7437100Y2028000D01*
G02X7358500Y1928500I-125093J18022D01*
G03Y1909500I3796J-9500D01*
G02Y1674500I-46500J-117500D01*
G03Y1655500I3796J-9500D01*
G02X7265500I-46500J-117500D01*
G03Y1674500I-3796J9500D01*
G02X7229100Y1696600I46453J117538D01*
G03X7212200Y1688900I-6699J-7694D01*
G01Y1631800D01*
X7018200Y1437800D01*
X6627100D01*
G37*
G36*
G01X5858500Y1655500D02*
G02X5765500I-46500J-117500D01*
G03Y1674500I-3796J9500D01*
G02Y1909500I46500J117500D01*
G03Y1928500I-3796J9500D01*
G02Y2163500I46500J117500D01*
G03Y2182500I-3796J9500D01*
G02X5858500I46500J117500D01*
G03Y2163500I3796J-9500D01*
G02Y1928500I-46500J-117500D01*
G03Y1909500I3796J-9500D01*
G02Y1674500I-46500J-117500D01*
G03Y1655500I3796J-9500D01*
G37*
G36*
G01X4774200Y1379500D02*
G02X4623800I-75200J-109500D01*
G01Y1726100D01*
X4925000Y2027300D01*
X4924600Y2029800D01*
G02X4985400Y2154600I125367J16134D01*
G03X4980200Y2173600I-5194J8790D01*
G01X4973800D01*
G02X4923600Y2223800I0J50200D01*
G01Y2376200D01*
G02X4973800Y2426400I50200J0D01*
G01X5126200D01*
G02X5176400Y2376200I0J-50200D01*
G01Y2223800D01*
G02X5126200Y2173600I-50200J0D01*
G01X5119800D01*
G03X5114600Y2154600I-6J-10210D01*
G02X5176400Y2049100I-64560J-108669D01*
G03X5193800Y2042100I10194J212D01*
G01X5258800Y2107100D01*
Y2952100D01*
X5366400Y3059700D01*
X5669000D01*
G02Y2909300I109500J-75200D01*
G01X5428600D01*
X5409200Y2889900D01*
Y2044900D01*
X5175000Y1810700D01*
X5175400Y1808200D01*
G02X5096500Y1674500I-125367J-16148D01*
G03Y1655500I3796J-9500D01*
G02X5003500I-46500J-117500D01*
G03Y1674500I-3796J9500D01*
G02X4923600Y1788900I46462J117553D01*
G03X4906200Y1795900I-10194J-212D01*
G01X4774200Y1663900D01*
Y1379500D01*
G37*
G36*
G01X2846500Y1163500D02*
G02X2753500I-46500J-117500D01*
G03Y1182500I-3796J9500D01*
G02X2846500I46500J117500D01*
G03Y1163500I3796J-9500D01*
G37*
G54D19*
X6346000Y5646000D03*
X6600000Y5392000D03*
Y5900000D03*
X8450000Y5600000D03*
X8196000Y5346000D03*
X8450000Y5092000D03*
X8940600Y2500000D03*
G54D18*
X2603500Y1778000D03*
Y2159000D03*
X3619500Y1778000D03*
X3683000Y1270000D03*
X3619500Y2159000D03*
X5050000Y3000000D03*
Y4016000D03*
Y4550000D03*
Y5566000D03*
X6234000Y3950000D03*
X6794500Y2984500D03*
X7250000Y3950000D03*
X7984000Y1700000D03*
X7429500Y4826000D03*
Y5842000D03*
X9000000Y1700000D03*
%LPD*%
G75*
G54D10*
X500000Y500000D03*
Y6500000D03*
X9500000Y500000D03*
Y6500000D03*
G54D11*
X500000Y2238000D03*
Y2492000D03*
Y2746000D03*
Y3000000D03*
Y3992000D03*
Y4246000D03*
Y4500000D03*
X1250000Y1588000D03*
Y1842000D03*
Y2096000D03*
X2012000Y1588000D03*
Y1842000D03*
Y2096000D03*
Y2350000D03*
X2800000Y1046000D03*
Y1300000D03*
X2850000Y4188000D03*
Y4442000D03*
Y4696000D03*
X3612000Y4188000D03*
Y4442000D03*
Y4696000D03*
Y4950000D03*
X4550000Y3804000D03*
Y3550000D03*
X5050000Y1538000D03*
Y1792000D03*
Y2046000D03*
X5812000Y1538000D03*
Y1792000D03*
Y2046000D03*
Y2300000D03*
X5850000Y3754000D03*
Y3500000D03*
X6346000Y5646000D03*
X6550000Y1538000D03*
Y1792000D03*
Y2046000D03*
X6600000Y5392000D03*
Y5900000D03*
X7312000Y1538000D03*
Y1792000D03*
Y2046000D03*
Y2300000D03*
X7600000Y3588000D03*
Y3842000D03*
Y4096000D03*
X8362000Y3588000D03*
Y3842000D03*
Y4096000D03*
Y4350000D03*
X8450000Y5092000D03*
X8196000Y5346000D03*
X8450000Y5600000D03*
X8940600Y2500000D03*
X9500000Y3254000D03*
Y3000000D03*
G54D12*
X1250000Y2350000D03*
X2850000Y4950000D03*
X5050000Y2300000D03*
X6550000D03*
X7950000Y2500000D03*
X7600000Y4350000D03*
G54D13*
X2603500Y1778000D03*
Y2159000D03*
X3619500Y1778000D03*
X3683000Y1270000D03*
X3619500Y2159000D03*
X4699000Y1270000D03*
X5050000Y3000000D03*
X5778500Y2984500D03*
X5050000Y4016000D03*
Y4550000D03*
Y5566000D03*
X6234000Y3950000D03*
X6794500Y2984500D03*
X7250000Y3950000D03*
X7984000Y1700000D03*
X7429500Y4826000D03*
Y5842000D03*
X9000000Y1700000D03*
G54D14*
X6400000Y4600000D03*
G54D15*
X6527000D03*
X6654000D03*
G54D16*
G01X500000Y3000000D02*
X762000Y2738000D01*
Y1688000D01*
X862000Y1588000D01*
X1250000D01*
G01X6550000Y1538000D02*
X6976700D01*
X7112000Y1673300D01*
Y3111500D01*
X7243900Y3243400D01*
X7551600D01*
X7600000Y3291800D01*
Y3588000D01*
G01X8362000Y4096000D02*
X8191500Y3925500D01*
Y3111500D01*
X8128000Y3048000D01*
X7683500D01*
X7620000Y2984500D01*
Y2354000D01*
X7312000Y2046000D01*
G54D17*
G01X500000Y4500000D02*
X373400Y4373400D01*
Y3939500D01*
X381000Y3931900D01*
Y3682900D01*
X952500Y3111400D01*
Y1892000D01*
X1002500Y1842000D01*
X1250000D01*
G01X500000Y3860500D02*
Y3992000D01*
G01D02*
X631500D01*
G01X2012000Y2350000D02*
Y4084000D01*
X1850000Y4246000D01*
X500000D01*
G01X1880500Y2096000D02*
X2012000D01*
G01D02*
X2143500D01*
G01X2800000Y1300000D02*
Y1431500D01*
G01X2668500Y1300000D02*
X2800000D01*
G01D02*
X2931500D01*
G01X2850000Y4950000D02*
Y5081500D01*
G01X2718500Y4950000D02*
X2850000D01*
G01D02*
X2981500D01*
G01X3683000Y1132100D02*
Y1270000D01*
G01D02*
Y1407900D01*
G01X3545100Y1270000D02*
X3683000D01*
G01D02*
X3820900D01*
G01X5050000Y2046000D02*
X4699000Y1695000D01*
Y1270000D01*
G01X4912100Y3000000D02*
X5050000D01*
G01X4550000Y3418500D02*
Y3550000D01*
G01X4418500D02*
X4550000D01*
G01D02*
X4681500D01*
G01X5050000Y1792000D02*
X5334000Y2076000D01*
Y2921000D01*
X5397500Y2984500D01*
X5778500D01*
G01X5050000Y2862100D02*
Y3000000D01*
G01D02*
Y3137900D01*
G01Y3000000D02*
X5187900D01*
G01X6418500Y1792000D02*
X6550000D01*
G01X5850000Y3368500D02*
Y3500000D01*
G01X5718500D02*
X5850000D01*
G01D02*
X5981500D01*
G01X6550000Y1792000D02*
X6681500D01*
G01X7846100Y1700000D02*
X7984000D01*
G01X7468500Y3842000D02*
X7600000D01*
G01D02*
X7731500D01*
G01X7984000Y1562100D02*
Y1700000D01*
G01D02*
Y1837900D01*
G01Y1700000D02*
X8121900D01*
G01X9500000Y3254000D02*
Y3385500D01*
G01X9368500Y3254000D02*
X9500000D01*
M02*
