G04 ================== begin FILE IDENTIFICATION RECORD ==================*
G04 Layout Name:  C:/work_OrCAD/allegro/PULSE MODULATION1.brd*
G04 Film Name:    Design*
G04 File Format:  Gerber RS274X*
G04 File Origin:  Cadence Allegro 17.2-P019*
G04 Origin Date:  Tue Jul 30 16:32:43 2019*
G04 *
G04 Layer:  VIA CLASS/BOTTOM*
G04 Layer:  VIA CLASS/TOP*
G04 Layer:  ROUTE KEEPOUT/ALL*
G04 Layer:  ROUTE KEEPIN/ALL*
G04 Layer:  REF DES/SILKSCREEN_TOP*
G04 Layer:  REF DES/SILKSCREEN_BOTTOM*
G04 Layer:  PIN/BOTTOM*
G04 Layer:  PIN/TOP*
G04 Layer:  PACKAGE KEEPIN/ALL*
G04 Layer:  PACKAGE GEOMETRY/PIN_NUMBER*
G04 Layer:  PACKAGE GEOMETRY/SILKSCREEN_TOP*
G04 Layer:  PACKAGE GEOMETRY/SILKSCREEN_BOTTOM*
G04 Layer:  PACKAGE GEOMETRY/SOLDERMASK_TOP*
G04 Layer:  PACKAGE GEOMETRY/SOLDERMASK_BOTTOM*
G04 Layer:  PACKAGE GEOMETRY/PASTEMASK_TOP*
G04 Layer:  PACKAGE GEOMETRY/PASTEMASK_BOTTOM*
G04 Layer:  ETCH/BOTTOM*
G04 Layer:  ETCH/TOP*
G04 Layer:  BOARD GEOMETRY/OUTLINE*
G04 Layer:  BOARD GEOMETRY/SILKSCREEN_TOP*
G04 Layer:  BOARD GEOMETRY/SILKSCREEN_BOTTOM*
G04 Layer:  BOARD GEOMETRY/SOLDERMASK_TOP*
G04 Layer:  BOARD GEOMETRY/SOLDERMASK_BOTTOM*
G04 Layer:  BOARD GEOMETRY/DESIGN_OUTLINE*
G04 *
G04 Offset:    (0.000 0.000)*
G04 Mirror:    No*
G04 Mode:      Positive*
G04 Rotation:  0*
G04 FullContactRelief:  No*
G04 UndefLineWidth:     0.000*
G04 ================== end FILE IDENTIFICATION RECORD ====================*
%FSLAX25Y25*MOMM*%
%IR0*IPPOS*OFA0.00000B0.00000*MIA0B0*SFA1.00000B1.00000*%
%ADD11C,1.524*%
%ADD13C,1.651*%
%ADD12R,1.524X1.524*%
%ADD15O,1.016X1.524*%
%ADD14R,1.016X1.524*%
%ADD10C,.635*%
%ADD16C,1.*%
%ADD17C,.4*%
%ADD18C,.203*%
%ADD19C,.5*%
%ADD21C,2.528*%
%ADD20C,2.656*%
G75*
%LPD*%
G75*
G36*
G01X754200Y500000D02*
Y754200D01*
X500000D01*
Y2111600D01*
G03X546500Y2355500I0J126383D01*
G02Y2374500I3796J9500D01*
G03Y2609500I-46500J117500D01*
G02Y2628500I3796J9500D01*
G03X622300Y2714200I-46509J117508D01*
G02X639400Y2718900I9891J-2529D01*
G01X661800Y2696500D01*
Y1646500D01*
X820500Y1487800D01*
X1172900D01*
G03X1296500Y1705500I77088J100170D01*
G02Y1724500I3796J9500D01*
G03Y1959500I-46500J117500D01*
G02Y1978500I3796J9500D01*
G03X1314600Y2204600I-46528J117499D01*
G02X1319800Y2223600I5194J8790D01*
G01X1326200D01*
G03X1376400Y2273800I0J50200D01*
G01Y2426200D01*
G03X1326200Y2476400I-50200J0D01*
G01X1173800D01*
G03X1123600Y2426200I0J-50200D01*
G01Y2273800D01*
G03X1173800Y2223600I50200J0D01*
G01X1180200D01*
G02X1185400Y2204600I6J-10210D01*
G03X1203500Y1978500I64628J-108601D01*
G02Y1959500I-3796J-9500D01*
G03X1148400Y1917200I46451J-117544D01*
G01X1033600D01*
X1027700Y1923100D01*
Y3142500D01*
X500000Y3670200D01*
Y3865600D01*
G03X546500Y4109500I0J126383D01*
G02Y4128500I3796J9500D01*
G03X601600Y4170800I-46451J117544D01*
G01X1818900D01*
X1936800Y4052900D01*
Y2451600D01*
G03X1965500Y2232500I75208J-101578D01*
G02Y2213500I-3796J-9500D01*
G03Y1978500I46500J-117500D01*
G02Y1959500I-3796J-9500D01*
G03Y1724500I46500J-117500D01*
G02Y1705500I-3796J-9500D01*
G03X2058500I46500J-117500D01*
G02Y1724500I3796J9500D01*
G03Y1959500I-46500J117500D01*
G02Y1978500I3796J9500D01*
G03Y2213500I-46500J117500D01*
G02Y2232500I3796J9500D01*
G03X2087200Y2451600I-46508J117522D01*
G01Y4115100D01*
X1881100Y4321200D01*
X601600D01*
G03X546500Y4363500I-101551J-75244D01*
G02Y4382500I3796J9500D01*
G03X500000Y4626400I-46500J117517D01*
G01Y6245800D01*
X754200D01*
Y6500000D01*
X9245800D01*
Y6245800D01*
X9500000D01*
Y3380400D01*
G03X9453500Y3136500I0J-126383D01*
G02Y3117500I-3796J-9500D01*
G03X9500000Y2873600I46500J-117517D01*
G01Y754200D01*
X9245800D01*
Y500000D01*
X754200D01*
G37*
%LPC*%
G75*
G36*
G01X7823600Y2423800D02*
Y2576200D01*
G02X7873800Y2626400I50200J0D01*
G01X8026200D01*
G02X8076400Y2576200I0J-50200D01*
G01Y2423800D01*
G02X8026200Y2373600I-50200J0D01*
G01X7873800D01*
G02X7823600Y2423800I0J50200D01*
G37*
G36*
G01X6481800Y4484300D02*
G02X6450800Y4473600I-31000J39557D01*
G01X6349200D01*
G02X6299000Y4523800I0J50200D01*
G01Y4676200D01*
G02X6349200Y4726400I50200J0D01*
G01X6450800D01*
G02X6481800Y4715700I0J-50257D01*
G02X6590500Y4703900I45187J-90309D01*
G02X6755000Y4625400I63520J-78500D01*
G01Y4574600D01*
G02X6590500Y4496100I-100980J0D01*
G02X6481800Y4484300I-63513J78509D01*
G37*
G36*
G01X3658500Y4305500D02*
G02X3565500I-46500J-117500D01*
G03Y4324500I-3796J9500D01*
G02Y4559500I46500J117500D01*
G03Y4578500I-3796J9500D01*
G02Y4813500I46500J117500D01*
G03Y4832500I-3796J9500D01*
G02X3658500I46500J117500D01*
G03Y4813500I3796J-9500D01*
G02Y4578500I-46500J-117500D01*
G03Y4559500I3796J-9500D01*
G02Y4324500I-46500J-117500D01*
G03Y4305500I3796J-9500D01*
G37*
G36*
G01X2896500D02*
G02X2803500I-46500J-117500D01*
G03Y4324500I-3796J9500D01*
G02Y4559500I46500J117500D01*
G03Y4578500I-3796J9500D01*
G02X2785400Y4804600I46528J117499D01*
G03X2780200Y4823600I-5194J8790D01*
G01X2773800D01*
G02X2723600Y4873800I0J50200D01*
G01Y5026200D01*
G02X2773800Y5076400I50200J0D01*
G01X2926200D01*
G02X2976400Y5026200I0J-50200D01*
G01Y4873800D01*
G02X2926200Y4823600I-50200J0D01*
G01X2919800D01*
G03X2914600Y4804600I-6J-10210D01*
G02X2896500Y4578500I-64628J-108601D01*
G03Y4559500I3796J-9500D01*
G02Y4324500I-46500J-117500D01*
G03Y4305500I3796J-9500D01*
G37*
G36*
G01X4596500Y3667500D02*
G02X4503500I-46500J-117500D01*
G03Y3686500I-3796J9500D01*
G02X4596500I46500J117500D01*
G03Y3667500I3796J-9500D01*
G37*
G36*
G01X5896500Y3617500D02*
G02X5803500I-46500J-117500D01*
G03Y3636500I-3796J9500D01*
G02X5896500I46500J117500D01*
G03Y3617500I3796J-9500D01*
G37*
G36*
G01X6627100Y1437800D02*
G02X6503500Y1655500I-77088J100170D01*
G03Y1674500I-3796J9500D01*
G02Y1909500I46500J117500D01*
G03Y1928500I-3796J9500D01*
G02X6485400Y2154600I46528J117499D01*
G03X6480200Y2173600I-5194J8790D01*
G01X6473800D01*
G02X6423600Y2223800I0J50200D01*
G01Y2376200D01*
G02X6473800Y2426400I50200J0D01*
G01X6626200D01*
G02X6676400Y2376200I0J-50200D01*
G01Y2223800D01*
G02X6626200Y2173600I-50200J0D01*
G01X6619800D01*
G03X6614600Y2154600I-6J-10210D01*
G02X6596500Y1928500I-64628J-108601D01*
G03Y1909500I3796J-9500D01*
G02Y1674500I-46500J-117500D01*
G03Y1655500I3796J-9500D01*
G02X6627100Y1638200I-46303J-117612D01*
G01X6935200D01*
X7011800Y1714800D01*
Y3153000D01*
X7202400Y3343600D01*
X7499800D01*
Y3510900D01*
G02X7553500Y3705500I100191J77062D01*
G03Y3724500I-3796J9500D01*
G02Y3959500I46500J117500D01*
G03Y3978500I-3796J9500D01*
G02X7535400Y4204600I46528J117499D01*
G03X7530200Y4223600I-5194J8790D01*
G01X7523800D01*
G02X7473600Y4273800I0J50200D01*
G01Y4426200D01*
G02X7523800Y4476400I50200J0D01*
G01X7676200D01*
G02X7726400Y4426200I0J-50200D01*
G01Y4273800D01*
G02X7676200Y4223600I-50200J0D01*
G01X7669800D01*
G03X7664600Y4204600I-6J-10210D01*
G02X7646500Y3978500I-64628J-108601D01*
G03Y3959500I3796J-9500D01*
G02Y3724500I-46500J-117500D01*
G03Y3705500I3796J-9500D01*
G02X7700200Y3510900I-46491J-117538D01*
G01Y3250300D01*
X7593100Y3143200D01*
X7285400D01*
X7212200Y3070000D01*
Y2403100D01*
G03X7229100Y2395400I10201J-6D01*
G02X7434300Y2331800I82884J-95411D01*
G03X7451400Y2327100I9891J2529D01*
G01X7519800Y2395500D01*
Y3026000D01*
X7642000Y3148200D01*
X8086500D01*
X8091300Y3153000D01*
Y3967000D01*
X8236700Y4112400D01*
X8236900Y4114000D01*
G02X8315500Y4213500I125093J-18022D01*
G03Y4232500I-3796J9500D01*
G02X8408500I46500J117500D01*
G03Y4213500I3796J-9500D01*
G02Y3978500I-46500J-117500D01*
G03Y3959500I3796J-9500D01*
G02Y3724500I-46500J-117500D01*
G03Y3705500I3796J-9500D01*
G02X8306400Y3474500I-46504J-117509D01*
G03X8291700Y3465300I-4499J-9156D01*
G01Y3070000D01*
X8169500Y2947800D01*
X7725000D01*
X7720200Y2943000D01*
Y2312500D01*
X7437300Y2029600D01*
X7437100Y2028000D01*
G02X7358500Y1928500I-125093J18022D01*
G03Y1909500I3796J-9500D01*
G02Y1674500I-46500J-117500D01*
G03Y1655500I3796J-9500D01*
G02X7265500I-46500J-117500D01*
G03Y1674500I-3796J9500D01*
G02X7229100Y1696600I46453J117538D01*
G03X7212200Y1688900I-6699J-7694D01*
G01Y1631800D01*
X7018200Y1437800D01*
X6627100D01*
G37*
G36*
G01X5858500Y1655500D02*
G02X5765500I-46500J-117500D01*
G03Y1674500I-3796J9500D01*
G02Y1909500I46500J117500D01*
G03Y1928500I-3796J9500D01*
G02Y2163500I46500J117500D01*
G03Y2182500I-3796J9500D01*
G02X5858500I46500J117500D01*
G03Y2163500I3796J-9500D01*
G02Y1928500I-46500J-117500D01*
G03Y1909500I3796J-9500D01*
G02Y1674500I-46500J-117500D01*
G03Y1655500I3796J-9500D01*
G37*
G36*
G01X4774200Y1379500D02*
G02X4623800I-75200J-109500D01*
G01Y1726100D01*
X4925000Y2027300D01*
X4924600Y2029800D01*
G02X4985400Y2154600I125367J16134D01*
G03X4980200Y2173600I-5194J8790D01*
G01X4973800D01*
G02X4923600Y2223800I0J50200D01*
G01Y2376200D01*
G02X4973800Y2426400I50200J0D01*
G01X5126200D01*
G02X5176400Y2376200I0J-50200D01*
G01Y2223800D01*
G02X5126200Y2173600I-50200J0D01*
G01X5119800D01*
G03X5114600Y2154600I-6J-10210D01*
G02X5176400Y2049100I-64560J-108669D01*
G03X5193800Y2042100I10194J212D01*
G01X5258800Y2107100D01*
Y2952100D01*
X5366400Y3059700D01*
X5669000D01*
G02Y2909300I109500J-75200D01*
G01X5428600D01*
X5409200Y2889900D01*
Y2044900D01*
X5175000Y1810700D01*
X5175400Y1808200D01*
G02X5096500Y1674500I-125367J-16148D01*
G03Y1655500I3796J-9500D01*
G02X5003500I-46500J-117500D01*
G03Y1674500I-3796J9500D01*
G02X4923600Y1788900I46462J117553D01*
G03X4906200Y1795900I-10194J-212D01*
G01X4774200Y1663900D01*
Y1379500D01*
G37*
G36*
G01X2846500Y1163500D02*
G02X2753500I-46500J-117500D01*
G03Y1182500I-3796J9500D01*
G02X2846500I46500J117500D01*
G03Y1163500I3796J-9500D01*
G37*
G54D21*
X6346000Y5646000D03*
X6600000Y5392000D03*
Y5900000D03*
X8450000Y5600000D03*
X8196000Y5346000D03*
X8450000Y5092000D03*
X8940600Y2500000D03*
G54D20*
X2603500Y1778000D03*
Y2159000D03*
X3619500Y1778000D03*
X3683000Y1270000D03*
X3619500Y2159000D03*
X5050000Y3000000D03*
Y4016000D03*
Y4550000D03*
Y5566000D03*
X6234000Y3950000D03*
X6794500Y2984500D03*
X7250000Y3950000D03*
X7984000Y1700000D03*
X7429500Y4826000D03*
Y5842000D03*
X9000000Y1700000D03*
%LPD*%
G75*
G36*
G01X246000Y246000D02*
Y754000D01*
X754000D01*
Y246000D01*
X246000D01*
G37*
G36*
G01Y6246000D02*
Y6754000D01*
X754000D01*
Y6246000D01*
X246000D01*
G37*
G36*
G01X9246000Y246000D02*
Y754000D01*
X9754000D01*
Y246000D01*
X9246000D01*
G37*
G36*
G01Y6246000D02*
Y6754000D01*
X9754000D01*
Y6246000D01*
X9246000D01*
G37*
G54D10*
X500000Y500000D03*
D03*
Y6500000D03*
D03*
X9500000Y500000D03*
D03*
Y6500000D03*
D03*
G54D11*
X500000Y2238000D03*
D03*
Y2492000D03*
D03*
Y2746000D03*
D03*
Y3000000D03*
D03*
Y3992000D03*
D03*
Y4246000D03*
D03*
Y4500000D03*
D03*
X1250000Y1588000D03*
D03*
Y1842000D03*
D03*
Y2096000D03*
D03*
X2012000Y1588000D03*
D03*
Y1842000D03*
D03*
Y2096000D03*
D03*
Y2350000D03*
D03*
X2800000Y1046000D03*
D03*
Y1300000D03*
D03*
X2850000Y4188000D03*
D03*
Y4442000D03*
D03*
Y4696000D03*
D03*
X3612000Y4188000D03*
D03*
Y4442000D03*
D03*
Y4696000D03*
D03*
Y4950000D03*
D03*
X4550000Y3804000D03*
D03*
Y3550000D03*
D03*
X5050000Y1538000D03*
D03*
Y1792000D03*
D03*
Y2046000D03*
D03*
X5812000Y1538000D03*
D03*
Y1792000D03*
D03*
Y2046000D03*
D03*
Y2300000D03*
D03*
X5850000Y3754000D03*
D03*
Y3500000D03*
D03*
X6346000Y5646000D03*
D03*
X6550000Y1538000D03*
D03*
Y1792000D03*
D03*
Y2046000D03*
D03*
X6600000Y5392000D03*
D03*
Y5900000D03*
D03*
X7312000Y1538000D03*
D03*
Y1792000D03*
D03*
Y2046000D03*
D03*
Y2300000D03*
D03*
X7600000Y3588000D03*
D03*
Y3842000D03*
D03*
Y4096000D03*
D03*
X8362000Y3588000D03*
D03*
Y3842000D03*
D03*
Y4096000D03*
D03*
Y4350000D03*
D03*
X8450000Y5092000D03*
D03*
X8196000Y5346000D03*
D03*
X8450000Y5600000D03*
D03*
X8940600Y2500000D03*
D03*
X9500000Y3254000D03*
D03*
Y3000000D03*
D03*
G54D12*
X1250000Y2350000D03*
D03*
X2850000Y4950000D03*
D03*
X5050000Y2300000D03*
D03*
X6550000D03*
D03*
X7950000Y2500000D03*
D03*
X7600000Y4350000D03*
D03*
G54D13*
X2603500Y1778000D03*
D03*
Y2159000D03*
D03*
X3619500Y1778000D03*
D03*
X3683000Y1270000D03*
D03*
X3619500Y2159000D03*
D03*
X4699000Y1270000D03*
D03*
X5050000Y3000000D03*
D03*
X5778500Y2984500D03*
D03*
X5050000Y4016000D03*
D03*
Y4550000D03*
D03*
Y5566000D03*
D03*
X6234000Y3950000D03*
D03*
X6794500Y2984500D03*
D03*
X7250000Y3950000D03*
D03*
X7984000Y1700000D03*
D03*
X7429500Y4826000D03*
D03*
Y5842000D03*
D03*
X9000000Y1700000D03*
D03*
G54D14*
X6400000Y4600000D03*
D03*
G54D15*
X6527000D03*
D03*
X6654000D03*
D03*
G54D16*
G01X500000Y3992000D02*
X317500Y3809500D01*
Y2928500D01*
X500000Y2746000D01*
G01Y3000000D02*
X762000Y2738000D01*
Y1688000D01*
X862000Y1588000D01*
X1250000D01*
G01X500000Y2238000D02*
X612000Y2350000D01*
X1250000D01*
G01X5050000Y1538000D02*
Y1270000D01*
X4669000Y889000D01*
X1778000D01*
X1250000Y1417000D01*
Y1588000D01*
G01Y2350000D02*
X1397500D01*
X1714500Y2667000D01*
X5932500D01*
X6032500Y2567000D01*
G01X5050000Y5566000D02*
X4676900D01*
X4060900Y4950000D01*
X3612000D01*
G01X6550000Y1538000D02*
X6282000Y1270000D01*
X5318000D01*
X5050000Y1538000D01*
G01X6346000Y5646000D02*
X5288000D01*
X5208000Y5566000D01*
X5050000D01*
G01X6032500Y2567000D02*
Y2266500D01*
X5812000Y2046000D01*
G01X7312000D02*
X7098000D01*
X6577000Y2567000D01*
X6032500D01*
G01X6346000Y5646000D02*
X6600000Y5392000D01*
G01X6550000Y1538000D02*
X6976700D01*
X7112000Y1673300D01*
Y3111500D01*
X7243900Y3243400D01*
X7551600D01*
X7600000Y3291800D01*
Y3588000D01*
G01X8362000Y4096000D02*
X8191500Y3925500D01*
Y3111500D01*
X8128000Y3048000D01*
X7683500D01*
X7620000Y2984500D01*
Y2354000D01*
X7312000Y2046000D01*
G54D17*
G01X3419300Y6250000D02*
Y6650000D01*
X3499300D01*
X3526000Y6630000D01*
X3546000Y6583300D01*
X3552700Y6530000D01*
X3546000Y6476700D01*
X3529300Y6436700D01*
X3499300Y6416700D01*
X3419300D01*
G01X3627900Y6650000D02*
Y6363300D01*
X3641200Y6303300D01*
X3667900Y6263300D01*
X3701200Y6250000D01*
X3734500Y6263300D01*
X3761200Y6303300D01*
X3774500Y6363300D01*
Y6650000D01*
G01X3849700D02*
Y6250000D01*
X3983100D01*
G01X4061600Y6303300D02*
X4088300Y6270000D01*
X4118300Y6250000D01*
X4144900D01*
X4171600Y6270000D01*
X4191600Y6303300D01*
X4201600Y6350000D01*
X4194900Y6396700D01*
X4178300Y6436700D01*
X4148300Y6463300D01*
X4108300Y6476700D01*
X4084900Y6503300D01*
X4074900Y6550000D01*
X4081600Y6596700D01*
X4098300Y6630000D01*
X4121600Y6650000D01*
X4144900D01*
X4168300Y6636700D01*
X4188300Y6603300D01*
G01X4413500Y6250000D02*
X4280100D01*
Y6650000D01*
X4413500D01*
G01X4360100Y6456700D02*
X4280100D01*
G01X4690500Y6250000D02*
Y6650000D01*
X4777200Y6316700D01*
X4863900Y6650000D01*
Y6250000D01*
G01X4992400D02*
X4965700Y6256700D01*
X4942400Y6283300D01*
X4922400Y6323300D01*
X4909100Y6370000D01*
X4902400Y6423300D01*
Y6476700D01*
X4909100Y6530000D01*
X4922400Y6576700D01*
X4942400Y6616700D01*
X4965700Y6643300D01*
X4992400Y6650000D01*
X5019100Y6643300D01*
X5042400Y6616700D01*
X5062400Y6576700D01*
X5075700Y6530000D01*
X5082400Y6476700D01*
Y6423300D01*
X5075700Y6370000D01*
X5062400Y6323300D01*
X5042400Y6283300D01*
X5019100Y6256700D01*
X4992400Y6250000D01*
G01X5134300D02*
Y6650000D01*
X5200900D01*
X5227600Y6630000D01*
X5247600Y6603300D01*
X5264300Y6563300D01*
X5277600Y6516700D01*
X5280900Y6450000D01*
X5277600Y6383300D01*
X5264300Y6336700D01*
X5247600Y6296700D01*
X5227600Y6270000D01*
X5200900Y6250000D01*
X5134300D01*
G01X5349500Y6650000D02*
Y6363300D01*
X5362800Y6303300D01*
X5389500Y6263300D01*
X5422800Y6250000D01*
X5456100Y6263300D01*
X5482800Y6303300D01*
X5496100Y6363300D01*
Y6650000D01*
G01X5571300D02*
Y6250000D01*
X5704700D01*
G01X5769900D02*
X5853200Y6650000D01*
X5936500Y6250000D01*
G01X5906500Y6390000D02*
X5799900D01*
G01X6068400Y6650000D02*
Y6250000D01*
G01X5991700Y6650000D02*
X6145100D01*
G01X6243600D02*
X6323600D01*
G01X6283600D02*
Y6250000D01*
G01X6243600D02*
X6323600D01*
G01X6498800D02*
X6472100Y6256700D01*
X6448800Y6283300D01*
X6428800Y6323300D01*
X6415500Y6370000D01*
X6408800Y6423300D01*
Y6476700D01*
X6415500Y6530000D01*
X6428800Y6576700D01*
X6448800Y6616700D01*
X6472100Y6643300D01*
X6498800Y6650000D01*
X6525500Y6643300D01*
X6548800Y6616700D01*
X6568800Y6576700D01*
X6582100Y6530000D01*
X6588800Y6476700D01*
Y6423300D01*
X6582100Y6370000D01*
X6568800Y6323300D01*
X6548800Y6283300D01*
X6525500Y6256700D01*
X6498800Y6250000D01*
G01X6637300D02*
Y6650000D01*
X6790700Y6250000D01*
Y6650000D01*
G01X3667900Y350000D02*
X3534500D01*
Y750000D01*
X3667900D01*
G01X3614500Y556700D02*
X3534500D01*
G01X3816400Y350000D02*
Y750000D01*
G01X3981600Y530000D02*
X4088300D01*
X4078300Y576700D01*
X4061600Y603300D01*
X4038300Y616700D01*
X4014900Y610000D01*
X3994900Y590000D01*
X3981600Y543300D01*
X3974900Y503300D01*
Y463300D01*
X3981600Y423300D01*
X3998300Y383300D01*
X4018300Y356700D01*
X4041600Y350000D01*
X4064900Y363300D01*
X4088300Y403300D01*
G01X4300100Y583300D02*
X4276800Y610000D01*
X4256800Y616700D01*
X4230100Y603300D01*
X4210100Y576700D01*
X4196800Y530000D01*
X4193500Y483300D01*
X4196800Y436700D01*
X4210100Y396700D01*
X4230100Y363300D01*
X4256800Y350000D01*
X4280100Y363300D01*
X4300100Y390000D01*
G01X4462000Y750000D02*
Y350000D01*
G01X4415300Y616700D02*
X4508700D01*
G01X4630500Y350000D02*
Y616700D01*
G01Y563300D02*
X4647200Y590000D01*
X4663900Y610000D01*
X4687200Y616700D01*
X4703900Y610000D01*
X4723900Y590000D01*
G01X4892400Y350000D02*
X4872400Y356700D01*
X4852400Y383300D01*
X4839100Y430000D01*
X4832400Y483300D01*
X4839100Y536700D01*
X4852400Y583300D01*
X4872400Y610000D01*
X4892400Y616700D01*
X4912400Y610000D01*
X4932400Y583300D01*
X4945700Y536700D01*
X4949100Y483300D01*
X4945700Y430000D01*
X4932400Y383300D01*
X4912400Y356700D01*
X4892400Y350000D01*
G01X5050900D02*
Y616700D01*
G01Y550000D02*
X5064300Y583300D01*
X5084300Y610000D01*
X5110900Y616700D01*
X5134300Y610000D01*
X5154300Y583300D01*
X5164300Y536700D01*
Y350000D01*
G01X5322800Y616700D02*
Y350000D01*
G01Y723300D02*
X5316100Y730000D01*
Y743300D01*
X5322800Y750000D01*
X5329500Y743300D01*
Y730000D01*
X5322800Y723300D01*
G01X5591300Y583300D02*
X5568000Y610000D01*
X5548000Y616700D01*
X5521300Y603300D01*
X5501300Y576700D01*
X5488000Y530000D01*
X5484700Y483300D01*
X5488000Y436700D01*
X5501300Y396700D01*
X5521300Y363300D01*
X5548000Y350000D01*
X5571300Y363300D01*
X5591300Y390000D01*
G01X6041700Y716700D02*
X6021700Y736700D01*
X5998400Y750000D01*
X5971700D01*
X5941700Y730000D01*
X5918400Y696700D01*
X5901700Y656700D01*
X5888400Y590000D01*
X5885100Y530000D01*
X5891700Y470000D01*
X5901700Y430000D01*
X5921700Y390000D01*
X5945100Y363300D01*
X5968400Y350000D01*
X5991700D01*
X6015100Y363300D01*
X6035100Y383300D01*
X6051700Y410000D01*
G01X6100300Y350000D02*
X6183600Y750000D01*
X6266900Y350000D01*
G01X6236900Y490000D02*
X6130300D01*
G01X6325500Y350000D02*
Y750000D01*
X6392100D01*
X6418800Y730000D01*
X6438800Y703300D01*
X6455500Y663300D01*
X6468800Y616700D01*
X6472100Y550000D01*
X6468800Y483300D01*
X6455500Y436700D01*
X6438800Y396700D01*
X6418800Y370000D01*
X6392100Y350000D01*
X6325500D01*
G54D18*
G01X6338500Y4411500D02*
X6715500D01*
G01X6527000Y4866400D02*
X6425100Y4846100D01*
G01D02*
X6338500Y4788500D01*
G01D02*
X6280900Y4701900D01*
G01D02*
X6260600Y4600000D01*
G01D02*
X6280900Y4498100D01*
G01D02*
X6338500Y4411500D01*
G01D02*
X6340600Y4409500D01*
G01X6715500Y4411500D02*
X6773100Y4498100D01*
G01D02*
X6793400Y4600000D01*
G01D02*
X6773100Y4701900D01*
G01D02*
X6715500Y4788500D01*
G01D02*
X6628900Y4846100D01*
G01D02*
X6527000Y4866400D01*
G54D19*
G01X500000Y4500000D02*
X373400Y4373400D01*
Y3939500D01*
X381000Y3931900D01*
Y3682900D01*
X952500Y3111400D01*
Y1892000D01*
X1002500Y1842000D01*
X1250000D01*
G01X500000Y3860500D02*
Y3992000D01*
G01D02*
X631500D01*
G01X2012000Y2350000D02*
Y4084000D01*
X1850000Y4246000D01*
X500000D01*
G01X2800000Y1046000D02*
X1938500D01*
X1841500Y1143000D01*
Y1671500D01*
X2012000Y1842000D01*
G01X1880500Y2096000D02*
X2012000D01*
G01Y1588000D02*
X2202000Y1778000D01*
X2603500D01*
G01X2012000Y2096000D02*
X2143500D01*
G01X5812000Y1792000D02*
X5698000D01*
X5588000Y1902000D01*
Y2413000D01*
X5477000Y2524000D01*
X2968500D01*
X2603500Y2159000D01*
G01X2800000Y1300000D02*
Y1431500D01*
G01X2668500Y1300000D02*
X2800000D01*
G01D02*
X2931500D01*
G01X2850000Y4950000D02*
Y5081500D01*
G01X2718500Y4950000D02*
X2850000D01*
G01D02*
X2981500D01*
G01X3683000Y1132100D02*
Y1270000D01*
G01D02*
Y1407900D01*
G01X3545100Y1270000D02*
X3683000D01*
G01D02*
X3820900D01*
G01X3619500Y1778000D02*
X3746500Y1651000D01*
X4909000D01*
X5050000Y1792000D01*
G01X3601500Y1796000D02*
X3619500Y1778000D01*
G01Y2159000D02*
X4937000D01*
X5050000Y2046000D01*
G01X4550000Y3804000D02*
X4469300Y3884700D01*
X3912300D01*
X3746500Y4050500D01*
Y4053500D01*
X3612000Y4188000D01*
G01X5050000Y4550000D02*
X4964500Y4635500D01*
X3805500D01*
X3612000Y4442000D01*
G01D02*
Y4696000D01*
G01X5050000Y2046000D02*
X4699000Y1695000D01*
Y1270000D01*
G01X4912100Y3000000D02*
X5050000D01*
G01X4550000Y3418500D02*
Y3550000D01*
G01X4418500D02*
X4550000D01*
G01D02*
X4681500D01*
G01X5050000Y1792000D02*
X5334000Y2076000D01*
Y2921000D01*
X5397500Y2984500D01*
X5778500D01*
G01X5050000Y2862100D02*
Y3000000D01*
G01D02*
Y3137900D01*
G01Y3000000D02*
X5187900D01*
G01X5050000Y4016000D02*
Y4550000D01*
G01Y4016000D02*
X5312000Y3754000D01*
X5850000D01*
G01X6418500Y1792000D02*
X6550000D01*
G01X5812000D02*
X6296000D01*
X6550000Y2046000D01*
G01X5850000Y3368500D02*
Y3500000D01*
G01X6234000Y3950000D02*
X6527000Y4243000D01*
Y4486000D01*
G01X6234000Y3950000D02*
X6038000Y3754000D01*
X5850000D01*
G01X5718500Y3500000D02*
X5850000D01*
G01D02*
X5981500D01*
G01X6400000Y4600000D02*
Y4812500D01*
X6794500Y5207000D01*
Y5705500D01*
X6600000Y5900000D01*
G01X6550000Y1792000D02*
X6681500D01*
G01X8362000Y3842000D02*
X8223600D01*
X8128000Y3746400D01*
Y3161500D01*
X7951000Y2984500D01*
X6794500D01*
G01X6654000Y4600000D02*
Y4508500D01*
X6604000Y4458500D01*
X6554500D01*
X6527000Y4486000D01*
G01D02*
Y4600000D01*
G01X7846100Y1700000D02*
X7984000D01*
G01X7950000Y2500000D02*
Y2235000D01*
X7507000Y1792000D01*
X7312000D01*
G01X7600000Y4096000D02*
X7454000Y3950000D01*
X7250000D01*
G01X7600000Y4096000D02*
X7429500Y4266500D01*
Y4826000D01*
G01X7468500Y3842000D02*
X7600000D01*
G01D02*
X7731500D01*
G01X8450000Y5600000D02*
X8293200Y5756800D01*
X7514700D01*
X7429500Y5842000D01*
G01X7984000Y1562100D02*
Y1700000D01*
G01D02*
Y1837900D01*
G01Y1700000D02*
X8121900D01*
G01X8362000Y3842000D02*
X8530700Y4010700D01*
Y5011300D01*
X8450000Y5092000D01*
G01Y5600000D02*
X8196000Y5346000D01*
G01X9000000Y1700000D02*
X9144000Y1844000D01*
Y2296600D01*
X8940600Y2500000D01*
G01D02*
X9421600D01*
X9500000Y2578400D01*
Y3000000D01*
G01Y3254000D02*
Y3385500D01*
G01X9368500Y3254000D02*
X9500000D01*
M02*
