G04 ================== begin FILE IDENTIFICATION RECORD ==================*
G04 Layout Name:  C:/work_OrCAD/allegro/PULSE MODULATION1.brd*
G04 Film Name:    SilkT*
G04 File Format:  Gerber RS274X*
G04 File Origin:  Cadence Allegro 17.2-P019*
G04 Origin Date:  Tue Jul 30 16:32:43 2019*
G04 *
G04 Layer:  REF DES/SILKSCREEN_TOP*
G04 Layer:  PACKAGE GEOMETRY/SILKSCREEN_TOP*
G04 Layer:  BOARD GEOMETRY/SILKSCREEN_TOP*
G04 *
G04 Offset:    (0.000 0.000)*
G04 Mirror:    No*
G04 Mode:      Positive*
G04 Rotation:  0*
G04 FullContactRelief:  No*
G04 UndefLineWidth:     0.200*
G04 ================== end FILE IDENTIFICATION RECORD ====================*
%FSLAX25Y25*MOMM*%
%IR0*IPPOS*OFA0.00000B0.00000*MIA0B0*SFA1.00000B1.00000*%
%ADD10C,.203*%
%ADD11C,.2*%
G75*
%LPD*%
G75*
G54D10*
G01X6338500Y4411500D02*
X6715500D01*
G01X6527000Y4866400D02*
X6425100Y4846100D01*
G01D02*
X6338500Y4788500D01*
G01D02*
X6280900Y4701900D01*
G01D02*
X6260600Y4600000D01*
G01D02*
X6280900Y4498100D01*
G01D02*
X6338500Y4411500D01*
G01D02*
X6340600Y4409500D01*
G01X6715500Y4411500D02*
X6773100Y4498100D01*
G01D02*
X6793400Y4600000D01*
G01D02*
X6773100Y4701900D01*
G01D02*
X6715500Y4788500D01*
G01D02*
X6628900Y4846100D01*
G01D02*
X6527000Y4866400D01*
G54D11*
G01X373000Y3127000D02*
X627000D01*
Y2111000D01*
X373000D01*
Y3127000D01*
G01X433100Y3275400D02*
X441100Y3262700D01*
X450800Y3254200D01*
X462000Y3250000D01*
X474900Y3254200D01*
X484600Y3262700D01*
X494200Y3275400D01*
X497400Y3292300D01*
Y3377000D01*
G01X594700Y3250000D02*
Y3377000D01*
X575400Y3351600D01*
G01Y3250000D02*
X614000D01*
G01X373000Y4627000D02*
X627000D01*
Y3865000D01*
X373000D01*
Y4627000D01*
G01X433100Y4755400D02*
X441100Y4742700D01*
X450800Y4734200D01*
X462000Y4730000D01*
X474900Y4734200D01*
X484600Y4742700D01*
X494200Y4755400D01*
X497400Y4772300D01*
Y4857000D01*
G01X564200Y4835800D02*
X573800Y4848500D01*
X585100Y4854900D01*
X598000Y4857000D01*
X614100Y4852800D01*
X625300Y4842200D01*
X628500Y4829500D01*
X626900Y4816800D01*
X620500Y4806200D01*
X588300Y4785000D01*
X573800Y4770200D01*
X564200Y4749000D01*
X561000Y4730000D01*
X628500D01*
G01X1351600Y2477000D02*
X1504000D01*
X1567500Y2413500D01*
X1694500D01*
X1758000Y2477000D01*
X1910400D01*
Y1461000D01*
X1351600D01*
Y2477000D01*
G01X1249900Y2697000D02*
Y2606000D01*
X1256300Y2586900D01*
X1269200Y2574200D01*
X1285200Y2570000D01*
X1301300Y2574200D01*
X1314200Y2586900D01*
X1320600Y2606000D01*
Y2697000D01*
G01X1379400Y2595400D02*
X1389000Y2580600D01*
X1401900Y2572100D01*
X1416400Y2570000D01*
X1429200Y2572100D01*
X1442100Y2582700D01*
X1450100Y2595400D01*
X1451700Y2608100D01*
X1448500Y2622900D01*
X1437300Y2633500D01*
X1426000Y2637700D01*
X1411500D01*
G01X1426000D02*
X1435700Y2644100D01*
X1443700Y2654700D01*
X1446900Y2667400D01*
X1443700Y2680100D01*
X1435700Y2690600D01*
X1421200Y2697000D01*
X1406700Y2694900D01*
X1392200Y2686400D01*
G01X3054000Y1173000D02*
G03I-254000J0D01*
G01X2420600Y1476400D02*
X2411000Y1482800D01*
X2399700Y1487000D01*
X2386900D01*
X2372400Y1480600D01*
X2361100Y1470100D01*
X2353100Y1457400D01*
X2346600Y1436200D01*
X2345000Y1417100D01*
X2348300Y1398100D01*
X2353100Y1385400D01*
X2362700Y1372700D01*
X2374000Y1364200D01*
X2385200Y1360000D01*
X2396500D01*
X2407800Y1364200D01*
X2417400Y1370600D01*
X2425500Y1379000D01*
G01X2479400Y1385400D02*
X2489000Y1370600D01*
X2501900Y1362100D01*
X2516400Y1360000D01*
X2529200Y1362100D01*
X2542100Y1372700D01*
X2550100Y1385400D01*
X2551700Y1398100D01*
X2548500Y1412900D01*
X2537300Y1423500D01*
X2526000Y1427700D01*
X2511500D01*
G01X2526000D02*
X2535700Y1434100D01*
X2543700Y1444700D01*
X2546900Y1457400D01*
X2543700Y1470100D01*
X2535700Y1480600D01*
X2521200Y1487000D01*
X2506700Y1484900D01*
X2492200Y1476400D01*
G01X2813100Y1490000D02*
Y1617000D01*
X2853300D01*
X2866200Y1610600D01*
X2874200Y1602200D01*
X2877400Y1585200D01*
X2874200Y1568300D01*
X2864600Y1557700D01*
X2853300Y1551400D01*
X2813100D01*
G01X2853300D02*
X2877400Y1490000D01*
G01X2971500D02*
X2974700Y1517500D01*
X2979600Y1540800D01*
X2986000Y1562000D01*
X2994100Y1585200D01*
X3006900Y1617000D01*
X2942600D01*
G01X3467100Y1651000D02*
X2755900D01*
Y1905000D01*
X3467100D01*
Y1651000D01*
G01X2793100Y2410000D02*
Y2537000D01*
X2833300D01*
X2846200Y2530600D01*
X2854200Y2522200D01*
X2857400Y2505200D01*
X2854200Y2488300D01*
X2844600Y2477700D01*
X2833300Y2471400D01*
X2793100D01*
G01X2833300D02*
X2857400Y2410000D01*
G01X2924200Y2462900D02*
X2935400Y2477700D01*
X2945100Y2486200D01*
X2958000Y2490400D01*
X2969200Y2486200D01*
X2977300Y2477700D01*
X2983700Y2465000D01*
X2985300Y2450200D01*
X2983700Y2437500D01*
X2977300Y2424800D01*
X2967600Y2414200D01*
X2956400Y2410000D01*
X2943500Y2414200D01*
X2932200Y2426900D01*
X2925800Y2446000D01*
X2924200Y2467100D01*
X2927400Y2494700D01*
X2932200Y2509500D01*
X2940300Y2524300D01*
X2951500Y2534900D01*
X2962800Y2537000D01*
X2974100Y2532800D01*
X2982100Y2522200D01*
G01X2755900Y2286000D02*
X3467100D01*
Y2032000D01*
X2755900D01*
Y2286000D01*
G01X2951600Y5077000D02*
X3104000D01*
X3167500Y5013500D01*
X3294500D01*
X3358000Y5077000D01*
X3510400D01*
Y4061000D01*
X2951600D01*
Y5077000D01*
G01X2819900Y5397000D02*
Y5306000D01*
X2826300Y5286900D01*
X2839200Y5274200D01*
X2855200Y5270000D01*
X2871300Y5274200D01*
X2884200Y5286900D01*
X2890600Y5306000D01*
Y5397000D01*
G01X2984700Y5270000D02*
Y5397000D01*
X2965400Y5371600D01*
G01Y5270000D02*
X3004000D01*
G01X3813100Y1530000D02*
Y1657000D01*
X3853300D01*
X3866200Y1650600D01*
X3874200Y1642200D01*
X3877400Y1625200D01*
X3874200Y1608300D01*
X3864600Y1597700D01*
X3853300Y1591400D01*
X3813100D01*
G01X3853300D02*
X3877400Y1530000D01*
G01X3974700D02*
X3986000Y1532100D01*
X3998900Y1538500D01*
X4006900Y1549000D01*
X4010100Y1563900D01*
X4006900Y1578700D01*
X3997300Y1591400D01*
X3982800Y1597700D01*
X3966700D01*
X3957100Y1602000D01*
X3949000Y1612500D01*
X3945800Y1627400D01*
X3950600Y1642200D01*
X3961900Y1652800D01*
X3974700Y1657000D01*
X3987600Y1652800D01*
X3998900Y1642200D01*
X4003700Y1627400D01*
X4000500Y1612500D01*
X3992400Y1602000D01*
X3982800Y1597700D01*
X3966700D01*
X3952200Y1591400D01*
X3942600Y1578700D01*
X3939400Y1563900D01*
X3942600Y1549000D01*
X3950600Y1538500D01*
X3963500Y1532100D01*
X3974700Y1530000D01*
G01X4546600Y1143000D02*
X3835400D01*
Y1397000D01*
X4546600D01*
Y1143000D01*
G01X4012600Y4022000D02*
X4003000Y4028400D01*
X3991700Y4032600D01*
X3978900D01*
X3964400Y4026200D01*
X3953100Y4015700D01*
X3945100Y4003000D01*
X3938600Y3981800D01*
X3937000Y3962700D01*
X3940300Y3943700D01*
X3945100Y3931000D01*
X3954700Y3918300D01*
X3966000Y3909800D01*
X3977200Y3905600D01*
X3988500D01*
X3999800Y3909800D01*
X4009400Y3916200D01*
X4017500Y3924600D01*
G01X4076200Y4011400D02*
X4085800Y4024100D01*
X4097100Y4030500D01*
X4110000Y4032600D01*
X4126100Y4028400D01*
X4137300Y4017800D01*
X4140500Y4005100D01*
X4138900Y3992400D01*
X4132500Y3981800D01*
X4100300Y3960600D01*
X4085800Y3945800D01*
X4076200Y3924600D01*
X4073000Y3905600D01*
X4140500D01*
G01X4804000Y3677000D02*
G03I-254000J0D01*
G01X5151600Y2427000D02*
X5304000D01*
X5367500Y2363500D01*
X5494500D01*
X5558000Y2427000D01*
X5710400D01*
Y1411000D01*
X5151600D01*
Y2427000D01*
G01X4959900Y2637000D02*
Y2546000D01*
X4966300Y2526900D01*
X4979200Y2514200D01*
X4995200Y2510000D01*
X5011300Y2514200D01*
X5024200Y2526900D01*
X5030600Y2546000D01*
Y2637000D01*
G01X5144100Y2510000D02*
Y2637000D01*
X5084500Y2546000D01*
X5165000D01*
G01X5213100Y2860000D02*
Y2987000D01*
X5253300D01*
X5266200Y2980600D01*
X5274200Y2972200D01*
X5277400Y2955200D01*
X5274200Y2938300D01*
X5264600Y2927700D01*
X5253300Y2921400D01*
X5213100D01*
G01X5253300D02*
X5277400Y2860000D01*
G01X5394100D02*
Y2987000D01*
X5334500Y2896000D01*
X5415000D01*
G01X4923000Y3152400D02*
Y3863600D01*
X5177000D01*
Y3152400D01*
X4923000D01*
G01X5720600Y4086400D02*
X5711000Y4092800D01*
X5699700Y4097000D01*
X5686900D01*
X5672400Y4090600D01*
X5661100Y4080100D01*
X5653100Y4067400D01*
X5646600Y4046200D01*
X5645000Y4027100D01*
X5648300Y4008100D01*
X5653100Y3995400D01*
X5662700Y3982700D01*
X5674000Y3974200D01*
X5685200Y3970000D01*
X5696500D01*
X5707800Y3974200D01*
X5717400Y3980600D01*
X5725500Y3989000D01*
G01X5814700Y3970000D02*
Y4097000D01*
X5795400Y4071600D01*
G01Y3970000D02*
X5834000D01*
G01X6104000Y3627000D02*
G03I-254000J0D01*
G01X5243100Y4330000D02*
Y4457000D01*
X5283300D01*
X5296200Y4450600D01*
X5304200Y4442200D01*
X5307400Y4425200D01*
X5304200Y4408300D01*
X5294600Y4397700D01*
X5283300Y4391400D01*
X5243100D01*
G01X5283300D02*
X5307400Y4330000D01*
G01X5374200Y4435800D02*
X5383800Y4448500D01*
X5395100Y4454900D01*
X5408000Y4457000D01*
X5424100Y4452800D01*
X5435300Y4442200D01*
X5438500Y4429500D01*
X5436900Y4416800D01*
X5430500Y4406200D01*
X5398300Y4385000D01*
X5383800Y4370200D01*
X5374200Y4349000D01*
X5371000Y4330000D01*
X5438500D01*
G01X4923000Y4702400D02*
Y5413600D01*
X5177000D01*
Y4702400D01*
X4923000D01*
G01X6003100Y3200000D02*
Y3327000D01*
X6043300D01*
X6056200Y3320600D01*
X6064200Y3312200D01*
X6067400Y3295200D01*
X6064200Y3278300D01*
X6054600Y3267700D01*
X6043300Y3261400D01*
X6003100D01*
G01X6043300D02*
X6067400Y3200000D01*
G01X6129400Y3219000D02*
X6139000Y3208500D01*
X6150300Y3202100D01*
X6164700Y3200000D01*
X6179200Y3204200D01*
X6190500Y3212700D01*
X6198500Y3227500D01*
X6200100Y3244400D01*
X6196900Y3261400D01*
X6188900Y3272000D01*
X6177600Y3280400D01*
X6166400Y3282500D01*
X6155100Y3280400D01*
X6140600Y3272000D01*
X6145400Y3327000D01*
X6188900D01*
G01X5930900Y3111500D02*
X6642100D01*
Y2857500D01*
X5930900D01*
Y3111500D01*
G01X7097600Y3823000D02*
X6386400D01*
Y4077000D01*
X7097600D01*
Y3823000D01*
G01X6148200Y4900000D02*
X6135400Y4902100D01*
X6124100Y4910600D01*
X6114500Y4923300D01*
X6108000Y4938100D01*
X6104800Y4955000D01*
Y4972000D01*
X6108000Y4988900D01*
X6114500Y5003700D01*
X6124100Y5016400D01*
X6135400Y5024900D01*
X6148200Y5027000D01*
X6161100Y5024900D01*
X6172400Y5016400D01*
X6182000Y5003700D01*
X6188500Y4988900D01*
X6191700Y4972000D01*
Y4955000D01*
X6188500Y4938100D01*
X6182000Y4923300D01*
X6172400Y4910600D01*
X6161100Y4902100D01*
X6148200Y4900000D01*
G01X6161100Y4933900D02*
X6180400Y4900000D01*
G01X6277700D02*
Y5027000D01*
X6258400Y5001600D01*
G01Y4900000D02*
X6297000D01*
G01X6219000Y5328500D02*
Y5963500D01*
X6727000D01*
Y5328500D01*
X6219000D01*
G01X6158400Y6121000D02*
X6198600Y5994000D01*
X6238900Y6121000D01*
G01X6296000Y5994000D02*
Y6121000D01*
X6336200D01*
X6349100Y6114600D01*
X6357100Y6106200D01*
X6360300Y6089200D01*
X6357100Y6072300D01*
X6347500Y6061700D01*
X6336200Y6055400D01*
X6296000D01*
G01X6336200D02*
X6360300Y5994000D01*
G01X6457600D02*
Y6121000D01*
X6438300Y6095600D01*
G01Y5994000D02*
X6476900D01*
G01X6651600Y2427000D02*
X6804000D01*
X6867500Y2363500D01*
X6994500D01*
X7058000Y2427000D01*
X7210400D01*
Y1411000D01*
X6651600D01*
Y2427000D01*
G01X6499900Y2667000D02*
Y2576000D01*
X6506300Y2556900D01*
X6519200Y2544200D01*
X6535200Y2540000D01*
X6551300Y2544200D01*
X6564200Y2556900D01*
X6570600Y2576000D01*
Y2667000D01*
G01X6629400Y2559000D02*
X6639000Y2548500D01*
X6650300Y2542100D01*
X6664700Y2540000D01*
X6679200Y2544200D01*
X6690500Y2552700D01*
X6698500Y2567500D01*
X6700100Y2584400D01*
X6696900Y2601400D01*
X6688900Y2612000D01*
X6677600Y2620400D01*
X6666400Y2622500D01*
X6655100Y2620400D01*
X6640600Y2612000D01*
X6645400Y2667000D01*
X6688900D01*
G01X6503100Y4150000D02*
Y4277000D01*
X6543300D01*
X6556200Y4270600D01*
X6564200Y4262200D01*
X6567400Y4245200D01*
X6564200Y4228300D01*
X6554600Y4217700D01*
X6543300Y4211400D01*
X6503100D01*
G01X6543300D02*
X6567400Y4150000D01*
G01X6629400Y4175400D02*
X6639000Y4160600D01*
X6651900Y4152100D01*
X6666400Y4150000D01*
X6679200Y4152100D01*
X6692100Y4162700D01*
X6700100Y4175400D01*
X6701700Y4188100D01*
X6698500Y4202900D01*
X6687300Y4213500D01*
X6676000Y4217700D01*
X6661500D01*
G01X6676000D02*
X6685700Y4224100D01*
X6693700Y4234700D01*
X6696900Y4247400D01*
X6693700Y4260100D01*
X6685700Y4270600D01*
X6671200Y4277000D01*
X6656700Y4274900D01*
X6642200Y4266400D01*
G01X7073100Y5940000D02*
Y6067000D01*
X7113300D01*
X7126200Y6060600D01*
X7134200Y6052200D01*
X7137400Y6035200D01*
X7134200Y6018300D01*
X7124600Y6007700D01*
X7113300Y6001400D01*
X7073100D01*
G01X7113300D02*
X7137400Y5940000D01*
G01X7234700D02*
Y6067000D01*
X7215400Y6041600D01*
G01Y5940000D02*
X7254000D01*
G01X7701600Y4477000D02*
X7854000D01*
X7917500Y4413500D01*
X8044500D01*
X8108000Y4477000D01*
X8260400D01*
Y3461000D01*
X7701600D01*
Y4477000D01*
G01X7699900Y4707000D02*
Y4616000D01*
X7706300Y4596900D01*
X7719200Y4584200D01*
X7735200Y4580000D01*
X7751300Y4584200D01*
X7764200Y4596900D01*
X7770600Y4616000D01*
Y4707000D01*
G01X7834200Y4685800D02*
X7843800Y4698500D01*
X7855100Y4704900D01*
X7868000Y4707000D01*
X7884100Y4702800D01*
X7895300Y4692200D01*
X7898500Y4679500D01*
X7896900Y4666800D01*
X7890500Y4656200D01*
X7858300Y4635000D01*
X7843800Y4620200D01*
X7834200Y4599000D01*
X7831000Y4580000D01*
X7898500D01*
G01X7556500Y5689600D02*
Y4978400D01*
X7302500D01*
Y5689600D01*
X7556500D01*
G01X8847600Y1573000D02*
X8136400D01*
Y1827000D01*
X8847600D01*
Y1573000D01*
G01X8204000Y2627000D02*
X8686600D01*
Y2373000D01*
X8204000D01*
Y2627000D01*
G01X8292900D02*
Y2373000D01*
G01X8280200Y2627000D02*
Y2373000D01*
G01X8033100Y1980000D02*
Y2107000D01*
X8073300D01*
X8086200Y2100600D01*
X8094200Y2092200D01*
X8097400Y2075200D01*
X8094200Y2058300D01*
X8084600Y2047700D01*
X8073300Y2041400D01*
X8033100D01*
G01X8073300D02*
X8097400Y1980000D01*
G01X8167400Y1994800D02*
X8178700Y1984200D01*
X8191500Y1980000D01*
X8204400Y1984200D01*
X8215700Y1996900D01*
X8223700Y2016000D01*
X8226900Y2035000D01*
Y2058300D01*
X8223700Y2077400D01*
X8215700Y2094300D01*
X8206000Y2102800D01*
X8194700Y2107000D01*
X8181900Y2102800D01*
X8172200Y2094300D01*
X8165800Y2081600D01*
X8162600Y2064700D01*
X8165800Y2049900D01*
X8173800Y2035000D01*
X8183500Y2026600D01*
X8194700Y2024400D01*
X8207600Y2028700D01*
X8217300Y2039300D01*
X8226900Y2058300D01*
G01X8052900Y2830000D02*
Y2957000D01*
X8085000D01*
X8097900Y2950600D01*
X8107600Y2942200D01*
X8115600Y2929500D01*
X8122000Y2914700D01*
X8123600Y2893500D01*
X8122000Y2872300D01*
X8115600Y2857500D01*
X8107600Y2844800D01*
X8097900Y2836300D01*
X8085000Y2830000D01*
X8052900D01*
G01X8217700D02*
Y2957000D01*
X8198400Y2931600D01*
G01Y2830000D02*
X8237000D01*
G01X8008400Y5821000D02*
X8048600Y5694000D01*
X8088900Y5821000D01*
G01X8146000Y5694000D02*
Y5821000D01*
X8186200D01*
X8199100Y5814600D01*
X8207100Y5806200D01*
X8210300Y5789200D01*
X8207100Y5772300D01*
X8197500Y5761700D01*
X8186200Y5755400D01*
X8146000D01*
G01X8186200D02*
X8210300Y5694000D01*
G01X8277100Y5799800D02*
X8286700Y5812500D01*
X8298000Y5818900D01*
X8310900Y5821000D01*
X8327000Y5816800D01*
X8338200Y5806200D01*
X8341400Y5793500D01*
X8339800Y5780800D01*
X8333400Y5770200D01*
X8301200Y5749000D01*
X8286700Y5734200D01*
X8277100Y5713000D01*
X8273900Y5694000D01*
X8341400D01*
G01X8069000Y5028500D02*
Y5663500D01*
X8577000D01*
Y5028500D01*
X8069000D01*
G01X9627000Y2873000D02*
X9373000D01*
Y3381000D01*
X9627000D01*
Y2873000D01*
G01X9243100Y3565400D02*
X9251100Y3552700D01*
X9260800Y3544200D01*
X9272000Y3540000D01*
X9284900Y3544200D01*
X9294600Y3552700D01*
X9304200Y3565400D01*
X9307400Y3582300D01*
Y3667000D01*
G01X9369400Y3565400D02*
X9379000Y3550600D01*
X9391900Y3542100D01*
X9406400Y3540000D01*
X9419200Y3542100D01*
X9432100Y3552700D01*
X9440100Y3565400D01*
X9441700Y3578100D01*
X9438500Y3592900D01*
X9427300Y3603500D01*
X9416000Y3607700D01*
X9401500D01*
G01X9416000D02*
X9425700Y3614100D01*
X9433700Y3624700D01*
X9436900Y3637400D01*
X9433700Y3650100D01*
X9425700Y3660600D01*
X9411200Y3667000D01*
X9396700Y3664900D01*
X9382200Y3656400D01*
M02*
