G04 ================== begin FILE IDENTIFICATION RECORD ==================*
G04 Layout Name:  C:/work_OrCAD/allegro/PULSE MODULATION1.brd*
G04 Film Name:    solderB*
G04 File Format:  Gerber RS274X*
G04 File Origin:  Cadence Allegro 17.2-P019*
G04 Origin Date:  Tue Jul 30 16:04:53 2019*
G04 *
G04 Layer:  VIA CLASS/SOLDERMASK_BOTTOM*
G04 Layer:  PIN/SOLDERMASK_BOTTOM*
G04 Layer:  PACKAGE GEOMETRY/SOLDERMASK_BOTTOM*
G04 Layer:  BOARD GEOMETRY/SOLDERMASK_BOTTOM*
G04 *
G04 Offset:    (0.000 0.000)*
G04 Mirror:    No*
G04 Mode:      Positive*
G04 Rotation:  0*
G04 FullContactRelief:  No*
G04 UndefLineWidth:     0.000*
G04 ================== end FILE IDENTIFICATION RECORD ====================*
%FSLAX25Y25*MOMM*%
%IR0*IPPOS*OFA0.00000B0.00000*MIA0B0*SFA1.00000B1.00000*%
%ADD13C,2.032*%
%ADD11C,1.905*%
%ADD10C,3.683*%
%ADD12R,1.905X1.905*%
%ADD15O,1.016X1.524*%
%ADD14R,1.016X1.524*%
%LPD*%
G75*
G54D10*
X500000Y500000D03*
Y6500000D03*
X9500000Y500000D03*
Y6500000D03*
G54D11*
X500000Y2238000D03*
Y2492000D03*
Y2746000D03*
Y3000000D03*
Y3992000D03*
Y4246000D03*
Y4500000D03*
X1250000Y1588000D03*
Y1842000D03*
Y2096000D03*
X2012000Y1588000D03*
Y1842000D03*
Y2096000D03*
Y2350000D03*
X2800000Y1046000D03*
Y1300000D03*
X2850000Y4188000D03*
Y4442000D03*
Y4696000D03*
X3612000Y4188000D03*
Y4442000D03*
Y4696000D03*
Y4950000D03*
X4550000Y3804000D03*
Y3550000D03*
X5050000Y1538000D03*
Y1792000D03*
Y2046000D03*
X5812000Y1538000D03*
Y1792000D03*
Y2046000D03*
Y2300000D03*
X5850000Y3754000D03*
Y3500000D03*
X6346000Y5646000D03*
X6550000Y1538000D03*
Y1792000D03*
Y2046000D03*
X6600000Y5392000D03*
Y5900000D03*
X7312000Y1538000D03*
Y1792000D03*
Y2046000D03*
Y2300000D03*
X7600000Y3588000D03*
Y3842000D03*
Y4096000D03*
X8362000Y3588000D03*
Y3842000D03*
Y4096000D03*
Y4350000D03*
X8450000Y5092000D03*
X8196000Y5346000D03*
X8450000Y5600000D03*
X8940600Y2500000D03*
X9500000Y3254000D03*
Y3000000D03*
G54D12*
X1250000Y2350000D03*
X2850000Y4950000D03*
X5050000Y2300000D03*
X6550000D03*
X7950000Y2500000D03*
X7600000Y4350000D03*
G54D13*
X2603500Y1778000D03*
Y2159000D03*
X3619500Y1778000D03*
X3683000Y1270000D03*
X3619500Y2159000D03*
X4699000Y1270000D03*
X5050000Y3000000D03*
X5778500Y2984500D03*
X5050000Y4016000D03*
Y4550000D03*
Y5566000D03*
X6234000Y3950000D03*
X6794500Y2984500D03*
X7250000Y3950000D03*
X7984000Y1700000D03*
X7429500Y4826000D03*
Y5842000D03*
X9000000Y1700000D03*
G54D14*
X6400000Y4600000D03*
G54D15*
X6527000D03*
X6654000D03*
M02*
