G04 ================== begin FILE IDENTIFICATION RECORD ==================*
G04 Layout Name:  C:/WORK_ORCAD/DACONVERTOR/allegro/DACONVERTOR.brd*
G04 Film Name:    BOTTOM*
G04 File Format:  Gerber RS274X*
G04 File Origin:  Cadence Allegro 17.2-P019*
G04 Origin Date:  Wed Jul 31 15:47:12 2019*
G04 *
G04 Layer:  ETCH/BOTTOM*
G04 Layer:  PIN/BOTTOM*
G04 Layer:  VIA CLASS/BOTTOM*
G04 *
G04 Offset:    (0.000 0.000)*
G04 Mirror:    No*
G04 Mode:      Positive*
G04 Rotation:  0*
G04 FullContactRelief:  No*
G04 UndefLineWidth:     0.000*
G04 ================== end FILE IDENTIFICATION RECORD ====================*
%FSLAX25Y25*MOMM*%
%IR0*IPPOS*OFA0.00000B0.00000*MIA0B0*SFA1.00000B1.00000*%
%ADD11C,1.524*%
%ADD13C,1.651*%
%ADD12R,1.524X1.524*%
%ADD10C,.635*%
%ADD14C,1.*%
%ADD15C,.5*%
%ADD16C,2.656*%
G75*
%LPD*%
G75*
G36*
G01X754200Y500000D02*
Y754200D01*
X500000D01*
Y6245800D01*
X754200D01*
Y6500000D01*
X9245800D01*
Y6245800D01*
X9500000D01*
Y754200D01*
X9245800D01*
Y500000D01*
X754200D01*
G37*
%LPC*%
G75*
G36*
G01X8446100Y2908300D02*
Y3060700D01*
G02X8496300Y3110900I50200J0D01*
G01X8648700D01*
G02X8698900Y3060700I0J-50200D01*
G01Y2908300D01*
G02X8648700Y2858100I-50200J0D01*
G01X8496300D01*
G02X8446100Y2908300I0J50200D01*
G37*
G36*
G01X7493600Y5321300D02*
Y5473700D01*
G02X7543800Y5523900I50200J0D01*
G01X7696200D01*
G02X7746400Y5473700I0J-50200D01*
G01Y5321300D01*
G02X7696200Y5271100I-50200J0D01*
G01X7543800D01*
G02X7493600Y5321300I0J50200D01*
G37*
G36*
G01X8711200Y4500700D02*
Y3792500D01*
G02X8560800I-75200J-109500D01*
G01Y4438500D01*
X8540800Y4458500D01*
Y4500500D01*
G02Y4719500I75200J109500D01*
G01Y5247000D01*
X8535400Y5252400D01*
Y5295900D01*
G02X8691200Y5300100I75218J101595D01*
G01Y4719500D01*
G02X8710100Y4516300I-75195J-109473D01*
G03Y4501900I7206J-7200D01*
G01X8711200Y4500700D01*
G37*
G36*
G01X4012200Y3700500D02*
Y3538500D01*
G02X3861800I-75200J-109500D01*
G01Y3700500D01*
G02X4012200I75200J109500D01*
G37*
G36*
G01X7695200Y3105500D02*
X7667500Y3077700D01*
X7671100Y3074100D01*
G02X7506700Y3086100I-89178J-89594D01*
G01Y3129600D01*
X7544800Y3167700D01*
Y3573500D01*
G02X7695200I75200J109500D01*
G01Y3105500D01*
G37*
G36*
G01X3890800Y2281500D02*
X3898800Y2289500D01*
Y2390500D01*
G02Y2609500I75200J109500D01*
G01Y2651500D01*
X3904800Y2657500D01*
Y2690500D01*
G02X4055200I75200J109500D01*
G01Y2605100D01*
G02X4049200Y2390500I-81186J-105114D01*
G01Y2233500D01*
G02X3890800Y2239500I-83234J-103492D01*
G01Y2281500D01*
G37*
G36*
G01X1316500Y5324500D02*
G02X1223500I-46500J-117500D01*
G03Y5343500I-3796J9500D01*
G02X1316500I46500J117500D01*
G03Y5324500I3796J-9500D01*
G37*
G36*
G01X6333000Y3292500D02*
G02X6240000I-46500J-117500D01*
G03Y3311500I-3796J9500D01*
G02Y3546500I46500J117500D01*
G03Y3565500I-3796J9500D01*
G02X6161400Y3665000I46493J117522D01*
G01X6161200Y3666600D01*
X5995800Y3832000D01*
Y4867500D01*
X6161200Y5032900D01*
X6161400Y5034500D01*
G02X6240000Y5134000I125093J-18022D01*
G03Y5153000I-3796J9500D01*
G02X6395900Y5333800I46494J117524D01*
G03X6414900Y5339000I8801J5154D01*
G01Y5637300D01*
G03X6404100Y5647400I-10181J-62D01*
G02X6527000Y5758300I-8132J132562D01*
G01X6526600Y5755800D01*
X6565300Y5717000D01*
Y4935000D01*
X6411500Y4781200D01*
X6411900Y4778700D01*
G02X6333000Y4645000I-125367J-16148D01*
G03Y4626000I3796J-9500D01*
G02X6212400Y4406100I-46467J-117537D01*
G03X6196200Y4397900I-6003J-8244D01*
G01Y4047600D01*
G03X6212400Y4039400I10197J44D01*
G02X6333000Y3819500I74133J-102363D01*
G03Y3800500I3796J-9500D01*
G02Y3565500I-46500J-117500D01*
G03Y3546500I3796J-9500D01*
G02Y3311500I-46500J-117500D01*
G03Y3292500I3796J-9500D01*
G37*
G36*
G01X9381000Y3229000D02*
G02X9288000I-46500J-117500D01*
G03Y3248000I-3796J9500D01*
G02X9381000I46500J117500D01*
G03Y3229000I3796J-9500D01*
G37*
G36*
G01X2523000Y3038500D02*
G02X2430000I-46500J-117500D01*
G03Y3057500I-3796J9500D01*
G02Y3292500I46500J117500D01*
G03Y3311500I-3796J9500D01*
G02Y3546500I46500J117500D01*
G03Y3565500I-3796J9500D01*
G02X2573800Y3763700I46501J117527D01*
G03X2591800Y3770200I7807J6554D01*
G01Y4730100D01*
X2830300Y4968600D01*
G03X2830000Y4983200I-7255J7154D01*
G02X2790000Y5101700I91017J96724D01*
G01X2790400Y5104200D01*
X2718800Y5175900D01*
Y5351500D01*
G02X2869200I75200J109500D01*
G01Y5238100D01*
X2896800Y5210600D01*
X2899300Y5211000D01*
G02X2996200Y4970500I21724J-131018D01*
G01Y4921900D01*
X2742200Y4667900D01*
Y4649800D01*
X2749800D01*
X2751400Y4651800D01*
G02X2759900Y4482000I106117J-79801D01*
G03X2742200Y4475000I-7491J-6937D01*
G01Y3334400D01*
X2601500Y3193700D01*
X2601900Y3191200D01*
G02X2523000Y3057500I-125367J-16148D01*
G03Y3038500I3796J-9500D01*
G37*
G36*
G01X1761000D02*
G02X1668000I-46500J-117500D01*
G03Y3057500I-3796J9500D01*
G02Y3292500I46500J117500D01*
G03Y3311500I-3796J9500D01*
G02X1589100Y3445200I46467J117552D01*
G01X1589500Y3447700D01*
X1448800Y3588400D01*
Y5238100D01*
X1647400Y5436800D01*
X1647000Y5439300D01*
G02X1756300Y5330000I131000J21700D01*
G01X1753800Y5330400D01*
X1599200Y5175900D01*
Y3812200D01*
G03X1614300Y3803300I10194J36D01*
G02X1638300Y3809400I24000J-44163D01*
G01X1766300D01*
Y4462500D01*
G02Y4681500I75200J109500D01*
G01Y4723500D01*
X1829800Y4787000D01*
Y4970500D01*
G02X1980200I75200J109500D01*
G01Y4724800D01*
X1935600Y4680100D01*
G03Y4665700I7206J-7200D01*
G02X1916700Y4462500I-94095J-93727D01*
G01Y3270900D01*
X1839500Y3193700D01*
X1839900Y3191200D01*
G02X1761000Y3057500I-125367J-16148D01*
G03Y3038500I3796J-9500D01*
G37*
G36*
G01X4091200Y1489500D02*
X4093300Y1488000D01*
G02X3940800Y1489500I-77320J-107990D01*
G01Y1570700D01*
X4000400Y1630400D01*
G03X3994100Y1647700I-7219J7168D01*
G02X4138300Y1791900I11900J132300D01*
G03X4155600Y1785600I10132J919D01*
G01X4540800Y2170700D01*
X4843500D01*
G02X4974700Y2226500I109455J-75215D01*
G01X4977200Y2226100D01*
X5068300Y2317100D01*
Y2374300D01*
G03X5053200Y2383200I-10196J-39D01*
G02X5060500Y2612500I-63212J116779D01*
G01X5061700Y2611800D01*
X5068300D01*
Y2621400D01*
X5020200Y2669400D01*
X5017700Y2669000D01*
G02X5127000Y2778300I-21700J131000D01*
G01X5126600Y2775800D01*
X5177900Y2724500D01*
G03X5195300Y2731700I7215J7188D01*
G01Y3206100D01*
X5399500Y3410300D01*
X5399100Y3412800D01*
G02X5478000Y3546500I125367J16148D01*
G03Y3565500I-3796J9500D01*
G02X5459900Y3791600I46528J117499D01*
G03X5454700Y3810600I-5194J8790D01*
G01X5448300D01*
G02X5398100Y3860800I0J50200D01*
G01Y4013200D01*
G02X5448300Y4063400I50200J0D01*
G01X5600700D01*
G02X5650900Y4013200I0J-50200D01*
G01Y3860800D01*
G02X5600700Y3810600I-50200J0D01*
G01X5594300D01*
G03X5589100Y3791600I-6J-10210D01*
G02X5571000Y3565500I-64628J-108601D01*
G03Y3546500I3796J-9500D01*
G02X5646800Y3460800I-46509J-117508D01*
G03X5663900Y3456100I9891J2529D01*
G01X5678300Y3470500D01*
Y4213000D01*
X5508100Y4383200D01*
X5506500Y4383400D01*
G02X5478000Y4626000I18030J125092D01*
G03Y4645000I-3796J9500D01*
G02Y4880000I46500J117500D01*
G03Y4899000I-3796J9500D01*
G02X5399100Y5032700I46467J117552D01*
G01X5399500Y5035200D01*
X5304800Y5129900D01*
Y5670500D01*
G02X5455200I75200J109500D01*
G01Y5396900D01*
X5600700D01*
G02X5650900Y5346700I0J-50200D01*
G01Y5194300D01*
G02X5600700Y5144100I-50200J0D01*
G01X5594300D01*
G03X5589100Y5125100I-6J-10210D01*
G02X5571000Y4899000I-64628J-108601D01*
G03Y4880000I3796J-9500D01*
G02Y4645000I-46500J-117500D01*
G03Y4626000I3796J-9500D01*
G02X5649600Y4526500I-46493J-117522D01*
G01X5649800Y4524900D01*
X5878700Y4296000D01*
Y3387500D01*
X5649800Y3158600D01*
X5649600Y3157000D01*
G02X5398100Y3171900I-125128J17949D01*
G03X5380700Y3178900I-10194J-212D01*
G01X5345700Y3143900D01*
Y2286600D01*
X5535800Y2096600D01*
X5538300Y2097000D01*
G02X5429000Y1987700I21700J-131000D01*
G01X5429400Y1990200D01*
X5191800Y2227900D01*
X5083600Y2119700D01*
X5084000Y2117200D01*
G02X4843500Y2020300I-131018J-21724D01*
G01X4603000D01*
X4091200Y1508500D01*
Y1489500D01*
G37*
G36*
G01X1697500Y1133500D02*
G02X1604500I-46500J-117500D01*
G03Y1152500I-3796J9500D01*
G02Y1387500I46500J117500D01*
G03Y1406500I-3796J9500D01*
G02X1525900Y1506000I46493J117522D01*
G01X1525700Y1507600D01*
X1296800Y1736500D01*
Y2561900D01*
X832900Y3025800D01*
X797100D01*
X795700Y3024800D01*
G02X766500Y3008500I-75660J101233D01*
G03Y2989500I3796J-9500D01*
G02Y2754500I-46500J-117500D01*
G03Y2735500I3796J-9500D01*
G02X673500I-46500J-117500D01*
G03Y2754500I-3796J9500D01*
G02Y2989500I46500J117500D01*
G03Y3008500I-3796J9500D01*
G02Y3243500I46500J117500D01*
G03Y3262500I-3796J9500D01*
G02X766500I46500J117500D01*
G03Y3243500I3796J-9500D01*
G02X797100Y3226200I-46303J-117612D01*
G01X915900D01*
X1497200Y2644900D01*
Y1819500D01*
X1511600Y1805100D01*
G03X1528700Y1809800I7209J7229D01*
G02X1604500Y1895500I122309J-31808D01*
G03Y1914500I-3796J9500D01*
G02Y2149500I46500J117500D01*
G03Y2168500I-3796J9500D01*
G02X1586400Y2394600I46528J117499D01*
G03X1581200Y2413600I-5194J8790D01*
G01X1574800D01*
G02X1524600Y2463800I0J50200D01*
G01Y2616200D01*
G02X1574800Y2666400I50200J0D01*
G01X1727200D01*
G02X1777300Y2619900I0J-50239D01*
G01X1777600Y2615200D01*
X1936100D01*
X2269200Y2282100D01*
G03X2286600Y2289100I7206J7212D01*
G02X2366500Y2403500I126362J-3153D01*
G03Y2422500I-3796J9500D01*
G02X2459500I46500J117500D01*
G03Y2403500I3796J-9500D01*
G02Y2168500I-46500J-117500D01*
G03Y2149500I3796J-9500D01*
G02Y1914500I-46500J-117500D01*
G03Y1895500I3796J-9500D01*
G02Y1660500I-46500J-117500D01*
G03Y1641500I3796J-9500D01*
G02Y1406500I-46500J-117500D01*
G03Y1387500I3796J-9500D01*
G02Y1152500I-46500J-117500D01*
G03Y1133500I3796J-9500D01*
G02X2366500I-46500J-117500D01*
G03Y1152500I-3796J9500D01*
G02Y1387500I46500J117500D01*
G03Y1406500I-3796J9500D01*
G02Y1641500I46500J117500D01*
G03Y1660500I-3796J9500D01*
G02Y1895500I46500J117500D01*
G03Y1914500I-3796J9500D01*
G02X2287600Y2048200I46467J117552D01*
G01X2288000Y2050700D01*
X1873900Y2464800D01*
X1777600D01*
X1777300Y2460100D01*
G02X1727200Y2413600I-50100J3739D01*
G01X1720800D01*
G03X1715600Y2394600I-6J-10210D01*
G02X1697500Y2168500I-64628J-108601D01*
G03Y2149500I3796J-9500D01*
G02Y1914500I-46500J-117500D01*
G03Y1895500I3796J-9500D01*
G02Y1660500I-46500J-117500D01*
G03Y1641500I3796J-9500D01*
G02Y1406500I-46500J-117500D01*
G03Y1387500I3796J-9500D01*
G02Y1152500I-46500J-117500D01*
G03Y1133500I3796J-9500D01*
G37*
G54D16*
X2980000Y1010000D03*
X2990000Y1780000D03*
X3000000Y1380000D03*
X2950000Y2130000D03*
X3365500Y4699000D03*
X3302000Y5080000D03*
X3996000Y1010000D03*
X4953000Y1079500D03*
Y3429000D03*
Y3810000D03*
X4381500Y4699000D03*
X4318000Y5080000D03*
X5560000Y950000D03*
X7600000Y4610000D03*
%LPD*%
G75*
G54D10*
X500000Y500000D03*
Y6500000D03*
X9500000Y500000D03*
Y6500000D03*
G54D11*
X720000Y2618000D03*
Y2872000D03*
Y3126000D03*
Y3380000D03*
X1651000Y1016000D03*
Y1270000D03*
Y1524000D03*
Y1778000D03*
Y2032000D03*
Y2286000D03*
X1714500Y2921000D03*
Y3175000D03*
Y3429000D03*
X1270000Y5461000D03*
Y5207000D03*
X2413000Y1016000D03*
Y1270000D03*
Y1524000D03*
Y1778000D03*
Y2032000D03*
Y2286000D03*
Y2540000D03*
X2476500Y2921000D03*
Y3175000D03*
Y3429000D03*
Y3683000D03*
X5524500Y3175000D03*
Y3429000D03*
Y3683000D03*
Y4508500D03*
Y4762500D03*
Y5016500D03*
X6286500Y3175000D03*
Y3429000D03*
Y3683000D03*
Y3937000D03*
Y4508500D03*
Y4762500D03*
Y5016500D03*
Y5270500D03*
X7581900Y2984500D03*
X8610600Y5397500D03*
X9334500Y3365500D03*
Y3111500D03*
G54D12*
X1651000Y2540000D03*
X1714500Y3683000D03*
X5524500Y3937000D03*
Y5270500D03*
X7620000Y5397500D03*
X8572500Y2984500D03*
G54D13*
X1841500Y4572000D03*
X1778000Y5461000D03*
X1905000Y5080000D03*
X2980000Y1010000D03*
X2990000Y1780000D03*
X3000000Y1380000D03*
X2950000Y2130000D03*
X2857500Y4572000D03*
X3365500Y4699000D03*
X2794000Y5461000D03*
X3302000Y5080000D03*
X2921000D03*
X3996000Y1010000D03*
X4006000Y1780000D03*
X4016000Y1380000D03*
X3966000Y2130000D03*
X3974000Y2500000D03*
X3980000Y2800000D03*
X3937000Y3429000D03*
Y3810000D03*
X4953000Y1079500D03*
Y2095500D03*
X4990000Y2500000D03*
X4996000Y2800000D03*
X4953000Y3429000D03*
Y3810000D03*
X4381500Y4699000D03*
X4318000Y5080000D03*
X5560000Y950000D03*
Y1966000D03*
X5380000Y5780000D03*
X6396000D03*
X7620000Y3683000D03*
X7600000Y4610000D03*
X8636000Y3683000D03*
X8616000Y4610000D03*
G54D14*
G01X720000Y3126000D02*
X874400D01*
X1397000Y2603400D01*
Y1778000D01*
X1651000Y1524000D01*
G01X5524500Y4508500D02*
X5778500Y4254500D01*
Y3429000D01*
X5524500Y3175000D01*
G01X6286500Y3683000D02*
X6096000Y3873500D01*
Y4826000D01*
X6286500Y5016500D01*
G54D15*
G01X588500Y2872000D02*
X720000D01*
G01D02*
X851500D01*
G01X1651000Y884500D02*
Y1016000D01*
G01X1519500D02*
X1651000D01*
G01D02*
X1782500D01*
G01X1519500Y1270000D02*
X1651000D01*
G01D02*
X1782500D01*
G01X1519500Y2286000D02*
X1651000D01*
G01D02*
X1782500D01*
G01X1519500Y2032000D02*
X1651000D01*
G01D02*
X1782500D01*
G01X1651000Y2540000D02*
X1905000D01*
X2413000Y2032000D01*
G01X1841500Y4572000D02*
Y3302000D01*
X1714500Y3175000D01*
G01Y3429000D02*
X1524000Y3619500D01*
Y5207000D01*
X1778000Y5461000D01*
G01X1905000Y5080000D02*
Y4755900D01*
X1841500Y4692400D01*
Y4572000D01*
G01X1270000Y5075500D02*
Y5207000D01*
G01X1138500D02*
X1270000D01*
G01D02*
X1401500D01*
G01X2281500Y1524000D02*
X2413000D01*
G01D02*
X2544500D01*
G01X2476500Y3175000D02*
X2667000Y3365500D01*
Y4699000D01*
X2921000Y4953000D01*
Y5080000D01*
G01X3365500Y4561100D02*
Y4699000D01*
G01D02*
Y4836900D01*
G01X3227600Y4699000D02*
X3365500D01*
G01D02*
X3503400D01*
G01X2857500Y4434100D02*
Y4572000D01*
G01D02*
Y4709900D01*
G01Y4572000D02*
X2995400D01*
G01X2794000Y5461000D02*
Y5207000D01*
X2921000Y5080000D01*
G01X4953000Y2095500D02*
X4571900D01*
X4016000Y1539600D01*
Y1380000D01*
G01X3980000Y2800000D02*
Y2626400D01*
X3974000Y2620400D01*
Y2500000D01*
G01D02*
Y2258400D01*
X3966000Y2250400D01*
Y2130000D01*
G01X3937000Y3810000D02*
Y3429000D01*
G01X4852100Y2500000D02*
X4990000D01*
G01X4815100Y3429000D02*
X4953000D01*
G01X4990000Y2362100D02*
Y2500000D01*
G01D02*
Y2637900D01*
G01X4996000Y2800000D02*
X5143500Y2652500D01*
Y2286000D01*
X4953000Y2095500D01*
G01X5560000Y1966000D02*
X5270500Y2255500D01*
Y3175000D01*
X5524500Y3429000D01*
G01X4953000Y3291100D02*
Y3429000D01*
G01D02*
Y3566900D01*
G01Y3429000D02*
X5090900D01*
G01X5380000Y5780000D02*
Y5161000D01*
X5524500Y5016500D01*
G01X6396000Y5780000D02*
X6490100Y5685900D01*
Y4966100D01*
X6286500Y4762500D01*
G01X7620000Y3683000D02*
Y3136600D01*
X7581900Y3098500D01*
Y2984500D01*
G01X7620000Y5266000D02*
Y5397500D01*
G01D02*
Y5529000D01*
G01X7488500Y5397500D02*
X7620000D01*
G01D02*
X7751500D01*
G01X8572500Y2853000D02*
Y2984500D01*
G01D02*
Y3116000D01*
G01X8441000Y2984500D02*
X8572500D01*
G01D02*
X8704000D01*
G01X8636000Y3683000D02*
Y4469600D01*
X8616000Y4489600D01*
Y4610000D01*
G01D02*
Y5278100D01*
X8610600Y5283500D01*
Y5397500D01*
G01X9334500Y3365500D02*
Y3497000D01*
G01X9203000Y3365500D02*
X9334500D01*
G01D02*
X9466000D01*
M02*
