G04 ================== begin FILE IDENTIFICATION RECORD ==================*
G04 Layout Name:  C:/WORK_ORCAD/DACONVERTOR/allegro/DACONVERTOR.brd*
G04 Film Name:    SilkT*
G04 File Format:  Gerber RS274X*
G04 File Origin:  Cadence Allegro 17.2-P019*
G04 Origin Date:  Wed Jul 31 15:57:13 2019*
G04 *
G04 Layer:  REF DES/SILKSCREEN_TOP*
G04 Layer:  PACKAGE GEOMETRY/SILKSCREEN_TOP*
G04 Layer:  BOARD GEOMETRY/SILKSCREEN_TOP*
G04 *
G04 Offset:    (0.000 0.000)*
G04 Mirror:    No*
G04 Mode:      Positive*
G04 Rotation:  0*
G04 FullContactRelief:  No*
G04 UndefLineWidth:     0.200*
G04 ================== end FILE IDENTIFICATION RECORD ====================*
%FSLAX25Y25*MOMM*%
%IR0*IPPOS*OFA0.00000B0.00000*MIA0B0*SFA1.00000B1.00000*%
%ADD10C,.2*%
G75*
%LPD*%
G75*
G54D10*
G01X593000Y3507000D02*
X847000D01*
Y2491000D01*
X593000D01*
Y3507000D01*
G01X538100Y3644900D02*
X546100Y3632200D01*
X555800Y3623700D01*
X567000Y3619500D01*
X579900Y3623700D01*
X589600Y3632200D01*
X599200Y3644900D01*
X602400Y3661800D01*
Y3746500D01*
G01X669200Y3725300D02*
X678800Y3738000D01*
X690100Y3744400D01*
X703000Y3746500D01*
X719100Y3742300D01*
X730300Y3731700D01*
X733500Y3719000D01*
X731900Y3706300D01*
X725500Y3695700D01*
X693300Y3674500D01*
X678800Y3659700D01*
X669200Y3638500D01*
X666000Y3619500D01*
X733500D01*
G01X986600Y5767900D02*
X977000Y5774300D01*
X965700Y5778500D01*
X952900D01*
X938400Y5772100D01*
X927100Y5761600D01*
X919100Y5748900D01*
X912600Y5727700D01*
X911000Y5708600D01*
X914300Y5689600D01*
X919100Y5676900D01*
X928700Y5664200D01*
X940000Y5655700D01*
X951200Y5651500D01*
X962500D01*
X973800Y5655700D01*
X983400Y5662100D01*
X991500Y5670500D01*
G01X1080700Y5651500D02*
Y5778500D01*
X1061400Y5753100D01*
G01Y5651500D02*
X1100000D01*
G01X1524000Y5334000D02*
G03I-254000J0D01*
G01X1752600Y2730500D02*
Y825500D01*
X2311400D01*
Y2730500D01*
X2159000D01*
X2095500Y2667000D01*
X1968500D01*
X1905000Y2730500D01*
X1752600D01*
G01X1816100Y3810000D02*
X1968500D01*
X2032000Y3746500D01*
X2159000D01*
X2222500Y3810000D01*
X2374900D01*
Y2794000D01*
X1816100D01*
Y3810000D01*
G01X1233400Y2794000D02*
Y2703000D01*
X1239800Y2683900D01*
X1252700Y2671200D01*
X1268700Y2667000D01*
X1284800Y2671200D01*
X1297700Y2683900D01*
X1304100Y2703000D01*
Y2794000D01*
G01X1362900Y2692400D02*
X1372500Y2677600D01*
X1385400Y2669100D01*
X1399900Y2667000D01*
X1412700Y2669100D01*
X1425600Y2679700D01*
X1433600Y2692400D01*
X1435200Y2705100D01*
X1432000Y2719900D01*
X1420800Y2730500D01*
X1409500Y2734700D01*
X1395000D01*
G01X1409500D02*
X1419200Y2741100D01*
X1427200Y2751700D01*
X1430400Y2764400D01*
X1427200Y2777100D01*
X1419200Y2787600D01*
X1404700Y2794000D01*
X1390200Y2791900D01*
X1375700Y2783400D01*
G01X1550900Y4000500D02*
Y3909500D01*
X1557300Y3890400D01*
X1570200Y3877700D01*
X1586200Y3873500D01*
X1602300Y3877700D01*
X1615200Y3890400D01*
X1621600Y3909500D01*
Y4000500D01*
G01X1715700Y3873500D02*
Y4000500D01*
X1696400Y3975100D01*
G01Y3873500D02*
X1735000D01*
G01X1592100Y4762500D02*
Y4841200D01*
X1616500D01*
X1624300Y4837300D01*
X1629100Y4832000D01*
X1631100Y4821500D01*
X1629100Y4811000D01*
X1623300Y4804500D01*
X1616500Y4800500D01*
X1592100D01*
G01X1616500D02*
X1631100Y4762500D01*
G01X1690300D02*
X1697100Y4763800D01*
X1704900Y4767700D01*
X1709800Y4774300D01*
X1711700Y4783500D01*
X1709800Y4792700D01*
X1703900Y4800500D01*
X1695200Y4804500D01*
X1685400D01*
X1679600Y4807100D01*
X1674700Y4813700D01*
X1672800Y4822800D01*
X1675700Y4832000D01*
X1682500Y4838600D01*
X1690300Y4841200D01*
X1698100Y4838600D01*
X1704900Y4832000D01*
X1707800Y4822800D01*
X1705900Y4813700D01*
X1701000Y4807100D01*
X1695200Y4804500D01*
X1685400D01*
X1676700Y4800500D01*
X1670800Y4792700D01*
X1668900Y4783500D01*
X1670800Y4774300D01*
X1675700Y4767700D01*
X1683500Y4763800D01*
X1690300Y4762500D01*
G01X1592100Y5588000D02*
Y5666700D01*
X1616500D01*
X1624300Y5662800D01*
X1629100Y5657500D01*
X1631100Y5647000D01*
X1629100Y5636500D01*
X1623300Y5630000D01*
X1616500Y5626000D01*
X1592100D01*
G01X1616500D02*
X1631100Y5588000D01*
G01X1690300D02*
Y5666700D01*
X1678600Y5651000D01*
G01Y5588000D02*
X1702000D01*
G01X1592100Y5143500D02*
Y5222200D01*
X1616500D01*
X1624300Y5218300D01*
X1629100Y5213000D01*
X1631100Y5202500D01*
X1629100Y5192000D01*
X1623300Y5185500D01*
X1616500Y5181500D01*
X1592100D01*
G01X1616500D02*
X1631100Y5143500D01*
G01X1688400D02*
X1690300Y5160600D01*
X1693200Y5175000D01*
X1697100Y5188100D01*
X1702000Y5202500D01*
X1709800Y5222200D01*
X1670800D01*
G01X2705100Y4445000D02*
X1993900D01*
Y4699000D01*
X2705100D01*
Y4445000D01*
G01X1930400Y5588000D02*
X2641600D01*
Y5334000D01*
X1930400D01*
Y5588000D01*
G01X2057400Y5207000D02*
X2768600D01*
Y4953000D01*
X2057400D01*
Y5207000D01*
G01X3132400Y1137000D02*
X3843600D01*
Y883000D01*
X3132400D01*
Y1137000D01*
G01X3142400Y1907000D02*
X3853600D01*
Y1653000D01*
X3142400D01*
Y1907000D01*
G01X2695800Y1143000D02*
Y1221700D01*
X2720200D01*
X2728000Y1217800D01*
X2732800Y1212500D01*
X2734800Y1202000D01*
X2732800Y1191500D01*
X2727000Y1185000D01*
X2720200Y1181000D01*
X2695800D01*
G01X2720200D02*
X2734800Y1143000D01*
G01X2794000D02*
Y1221700D01*
X2782300Y1206000D01*
G01Y1143000D02*
X2805700D01*
G01X2854200Y1208600D02*
X2860000Y1216500D01*
X2866900Y1220400D01*
X2874600Y1221700D01*
X2884400Y1219100D01*
X2891200Y1212500D01*
X2893100Y1204600D01*
X2892200Y1196800D01*
X2888300Y1190200D01*
X2868800Y1177100D01*
X2860000Y1167900D01*
X2854200Y1154800D01*
X2852300Y1143000D01*
X2893100D01*
G01X2695800Y1524000D02*
Y1602700D01*
X2720200D01*
X2728000Y1598800D01*
X2732800Y1593500D01*
X2734800Y1583000D01*
X2732800Y1572500D01*
X2727000Y1566000D01*
X2720200Y1562000D01*
X2695800D01*
G01X2720200D02*
X2734800Y1524000D01*
G01X2794000D02*
Y1602700D01*
X2782300Y1587000D01*
G01Y1524000D02*
X2805700D01*
G01X2884400D02*
Y1602700D01*
X2848400Y1546300D01*
X2897000D01*
G01X3152400Y1507000D02*
X3863600D01*
Y1253000D01*
X3152400D01*
Y1507000D01*
G01X2735100Y1905000D02*
Y1983700D01*
X2759500D01*
X2767300Y1979800D01*
X2772100Y1974500D01*
X2774100Y1964000D01*
X2772100Y1953500D01*
X2766300Y1947000D01*
X2759500Y1943000D01*
X2735100D01*
G01X2759500D02*
X2774100Y1905000D01*
G01X2816800Y1914200D02*
X2823600Y1907600D01*
X2831400Y1905000D01*
X2839100Y1907600D01*
X2846000Y1915500D01*
X2850800Y1927300D01*
X2852800Y1939100D01*
Y1953500D01*
X2850800Y1965300D01*
X2846000Y1975800D01*
X2840100Y1981100D01*
X2833300Y1983700D01*
X2825500Y1981100D01*
X2819700Y1975800D01*
X2815800Y1968000D01*
X2813800Y1957500D01*
X2815800Y1948300D01*
X2820600Y1939100D01*
X2826500Y1933900D01*
X2833300Y1932500D01*
X2841100Y1935200D01*
X2846900Y1941700D01*
X2852800Y1953500D01*
G01X2759300Y2349500D02*
Y2428200D01*
X2783700D01*
X2791500Y2424300D01*
X2796300Y2419000D01*
X2798300Y2408500D01*
X2796300Y2398000D01*
X2790500Y2391500D01*
X2783700Y2387500D01*
X2759300D01*
G01X2783700D02*
X2798300Y2349500D01*
G01X2857500D02*
Y2428200D01*
X2845800Y2412500D01*
G01Y2349500D02*
X2869200D01*
G01X2934300D02*
X2936200Y2366600D01*
X2939100Y2381000D01*
X2943000Y2394100D01*
X2947900Y2408500D01*
X2955700Y2428200D01*
X2916700D01*
G01X3102400Y2257000D02*
X3813600D01*
Y2003000D01*
X3102400D01*
Y2257000D01*
G01X3116100Y4826000D02*
Y4904700D01*
X3140500D01*
X3148300Y4900800D01*
X3153100Y4895500D01*
X3155100Y4885000D01*
X3153100Y4874500D01*
X3147300Y4868000D01*
X3140500Y4864000D01*
X3116100D01*
G01X3140500D02*
X3155100Y4826000D01*
G01X3195800Y4858800D02*
X3202600Y4868000D01*
X3208500Y4873200D01*
X3216200Y4875800D01*
X3223100Y4873200D01*
X3227900Y4868000D01*
X3231800Y4860100D01*
X3232800Y4850900D01*
X3231800Y4843100D01*
X3227900Y4835200D01*
X3222100Y4828600D01*
X3215300Y4826000D01*
X3207500Y4828600D01*
X3200700Y4836500D01*
X3196800Y4848300D01*
X3195800Y4861400D01*
X3197800Y4878500D01*
X3200700Y4887600D01*
X3205500Y4896800D01*
X3212400Y4903400D01*
X3219200Y4904700D01*
X3226000Y4902100D01*
X3230800Y4895500D01*
G01X3116100Y5334000D02*
Y5412700D01*
X3140500D01*
X3148300Y5408800D01*
X3153100Y5403500D01*
X3155100Y5393000D01*
X3153100Y5382500D01*
X3147300Y5376000D01*
X3140500Y5372000D01*
X3116100D01*
G01X3140500D02*
X3155100Y5334000D01*
G01X3192900Y5349700D02*
X3198700Y5340600D01*
X3206500Y5335300D01*
X3215300Y5334000D01*
X3223100Y5335300D01*
X3230800Y5341900D01*
X3235700Y5349700D01*
X3236700Y5357600D01*
X3234700Y5366800D01*
X3227900Y5373300D01*
X3221100Y5376000D01*
X3212400D01*
G01X3221100D02*
X3227000Y5379900D01*
X3231800Y5386500D01*
X3233800Y5394300D01*
X3231800Y5402200D01*
X3227000Y5408800D01*
X3218200Y5412700D01*
X3209400Y5411400D01*
X3200700Y5406100D01*
G01X3648300Y2540000D02*
Y2618700D01*
X3672700D01*
X3680500Y2614800D01*
X3685300Y2609500D01*
X3687300Y2599000D01*
X3685300Y2588500D01*
X3679500Y2582000D01*
X3672700Y2578000D01*
X3648300D01*
G01X3672700D02*
X3687300Y2540000D01*
G01X3746500D02*
Y2618700D01*
X3734800Y2603000D01*
G01Y2540000D02*
X3758200D01*
G01X3825200D02*
X3832000Y2541300D01*
X3839800Y2545200D01*
X3844700Y2551800D01*
X3846600Y2561000D01*
X3844700Y2570200D01*
X3838800Y2578000D01*
X3830100Y2582000D01*
X3820300D01*
X3814500Y2584600D01*
X3809600Y2591200D01*
X3807700Y2600300D01*
X3810600Y2609500D01*
X3817400Y2616100D01*
X3825200Y2618700D01*
X3833000Y2616100D01*
X3839800Y2609500D01*
X3842700Y2600300D01*
X3840800Y2591200D01*
X3835900Y2584600D01*
X3830100Y2582000D01*
X3820300D01*
X3811600Y2578000D01*
X3805700Y2570200D01*
X3803800Y2561000D01*
X3805700Y2551800D01*
X3810600Y2545200D01*
X3818400Y2541300D01*
X3825200Y2540000D01*
G01X4837600Y2373000D02*
X4126400D01*
Y2627000D01*
X4837600D01*
Y2373000D01*
G01X3648300Y2921000D02*
Y2999700D01*
X3672700D01*
X3680500Y2995800D01*
X3685300Y2990500D01*
X3687300Y2980000D01*
X3685300Y2969500D01*
X3679500Y2963000D01*
X3672700Y2959000D01*
X3648300D01*
G01X3672700D02*
X3687300Y2921000D01*
G01X3746500D02*
Y2999700D01*
X3734800Y2984000D01*
G01Y2921000D02*
X3758200D01*
G01X3803800Y2932800D02*
X3809600Y2926200D01*
X3816400Y2922300D01*
X3825200Y2921000D01*
X3834000Y2923600D01*
X3840800Y2928900D01*
X3845600Y2938100D01*
X3846600Y2948500D01*
X3844700Y2959000D01*
X3839800Y2965600D01*
X3833000Y2970800D01*
X3826200Y2972200D01*
X3819400Y2970800D01*
X3810600Y2965600D01*
X3813500Y2999700D01*
X3839800D01*
G01X4132400Y2927000D02*
X4843600D01*
Y2673000D01*
X4132400D01*
Y2927000D01*
G01X4800600Y3302000D02*
X4089400D01*
Y3556000D01*
X4800600D01*
Y3302000D01*
G01X3775300Y4064000D02*
Y4142700D01*
X3799700D01*
X3807500Y4138800D01*
X3812300Y4133500D01*
X3814300Y4123000D01*
X3812300Y4112500D01*
X3806500Y4106000D01*
X3799700Y4102000D01*
X3775300D01*
G01X3799700D02*
X3814300Y4064000D01*
G01X3873500D02*
Y4142700D01*
X3861800Y4127000D01*
G01Y4064000D02*
X3885200D01*
G01X3952200Y4142700D02*
X3944400Y4140100D01*
X3938600Y4133500D01*
X3934700Y4125600D01*
X3931800Y4115200D01*
X3930800Y4103300D01*
X3931800Y4091500D01*
X3934700Y4081100D01*
X3938600Y4073200D01*
X3944400Y4066600D01*
X3952200Y4064000D01*
X3960000Y4066600D01*
X3965800Y4073200D01*
X3969700Y4081100D01*
X3972600Y4091500D01*
X3973600Y4103300D01*
X3972600Y4115200D01*
X3969700Y4125600D01*
X3965800Y4133500D01*
X3960000Y4140100D01*
X3952200Y4142700D01*
G01X4089400Y3937000D02*
X4800600D01*
Y3683000D01*
X4089400D01*
Y3937000D01*
G01X3775300Y3556000D02*
Y3634700D01*
X3799700D01*
X3807500Y3630800D01*
X3812300Y3625500D01*
X3814300Y3615000D01*
X3812300Y3604500D01*
X3806500Y3598000D01*
X3799700Y3594000D01*
X3775300D01*
G01X3799700D02*
X3814300Y3556000D01*
G01X3873500D02*
Y3634700D01*
X3861800Y3619000D01*
G01Y3556000D02*
X3885200D01*
G01X3933700Y3588800D02*
X3940500Y3598000D01*
X3946400Y3603200D01*
X3954100Y3605800D01*
X3961000Y3603200D01*
X3965800Y3598000D01*
X3969700Y3590100D01*
X3970700Y3580900D01*
X3969700Y3573100D01*
X3965800Y3565200D01*
X3960000Y3558600D01*
X3953200Y3556000D01*
X3945400Y3558600D01*
X3938600Y3566500D01*
X3934700Y3578300D01*
X3933700Y3591400D01*
X3935700Y3608500D01*
X3938600Y3617600D01*
X3943400Y3626800D01*
X3950300Y3633400D01*
X3957100Y3634700D01*
X3963900Y3632100D01*
X3968700Y3625500D01*
G01X3517900Y4826000D02*
X4229100D01*
Y4572000D01*
X3517900D01*
Y4826000D01*
G01X3454400Y5207000D02*
X4165600D01*
Y4953000D01*
X3454400D01*
Y5207000D01*
G01X5080000Y1943100D02*
Y1231900D01*
X4826000D01*
Y1943100D01*
X5080000D01*
G01X4537300Y2032000D02*
Y2110700D01*
X4561700D01*
X4569500Y2106800D01*
X4574300Y2101500D01*
X4576300Y2091000D01*
X4574300Y2080500D01*
X4568500Y2074000D01*
X4561700Y2070000D01*
X4537300D01*
G01X4561700D02*
X4576300Y2032000D01*
G01X4635500D02*
Y2110700D01*
X4623800Y2095000D01*
G01Y2032000D02*
X4647200D01*
G01X4692800Y2047700D02*
X4698600Y2038600D01*
X4706400Y2033300D01*
X4715200Y2032000D01*
X4723000Y2033300D01*
X4730700Y2039900D01*
X4735600Y2047700D01*
X4736600Y2055600D01*
X4734600Y2064800D01*
X4727800Y2071300D01*
X4721000Y2074000D01*
X4712300D01*
G01X4721000D02*
X4726900Y2077900D01*
X4731700Y2084500D01*
X4733700Y2092300D01*
X4731700Y2100200D01*
X4726900Y2106800D01*
X4718100Y2110700D01*
X4709300Y2109400D01*
X4700600Y2104100D01*
G01X5433000Y1102400D02*
Y1813600D01*
X5687000D01*
Y1102400D01*
X5433000D01*
G01X5235800Y2095500D02*
Y2174200D01*
X5260200D01*
X5268000Y2170300D01*
X5272800Y2165000D01*
X5274800Y2154500D01*
X5272800Y2144000D01*
X5267000Y2137500D01*
X5260200Y2133500D01*
X5235800D01*
G01X5260200D02*
X5274800Y2095500D01*
G01X5334000D02*
Y2174200D01*
X5322300Y2158500D01*
G01Y2095500D02*
X5345700D01*
G01X5412700D02*
Y2174200D01*
X5401000Y2158500D01*
G01Y2095500D02*
X5424400D01*
G01X5626100Y4064000D02*
X5778500D01*
X5842000Y4000500D01*
X5969000D01*
X6032500Y4064000D01*
X6184900D01*
Y3048000D01*
X5626100D01*
Y4064000D01*
G01Y5397500D02*
X5778500D01*
X5842000Y5334000D01*
X5969000D01*
X6032500Y5397500D01*
X6184900D01*
Y4381500D01*
X5626100D01*
Y5397500D01*
G01X5106900Y4318000D02*
Y4227000D01*
X5113300Y4207900D01*
X5126200Y4195200D01*
X5142200Y4191000D01*
X5158300Y4195200D01*
X5171200Y4207900D01*
X5177600Y4227000D01*
Y4318000D01*
G01X5291100Y4191000D02*
Y4318000D01*
X5231500Y4227000D01*
X5312000D01*
G01X5532400Y5907000D02*
X6243600D01*
Y5653000D01*
X5532400D01*
Y5907000D01*
G01X5106900Y5461000D02*
Y5370000D01*
X5113300Y5350900D01*
X5126200Y5338200D01*
X5142200Y5334000D01*
X5158300Y5338200D01*
X5171200Y5350900D01*
X5177600Y5370000D01*
Y5461000D01*
G01X5241200Y5439800D02*
X5250800Y5452500D01*
X5262100Y5458900D01*
X5275000Y5461000D01*
X5291100Y5456800D01*
X5302300Y5446200D01*
X5305500Y5433500D01*
X5303900Y5420800D01*
X5297500Y5410200D01*
X5265300Y5389000D01*
X5250800Y5374200D01*
X5241200Y5353000D01*
X5238000Y5334000D01*
X5305500D01*
G01X5148100Y5969000D02*
Y6047700D01*
X5172500D01*
X5180300Y6043800D01*
X5185100Y6038500D01*
X5187100Y6028000D01*
X5185100Y6017500D01*
X5179300Y6011000D01*
X5172500Y6007000D01*
X5148100D01*
G01X5172500D02*
X5187100Y5969000D01*
G01X5227800Y6034600D02*
X5233600Y6042500D01*
X5240500Y6046400D01*
X5248200Y6047700D01*
X5258000Y6045100D01*
X5264800Y6038500D01*
X5266700Y6030600D01*
X5265800Y6022800D01*
X5261900Y6016200D01*
X5242400Y6003100D01*
X5233600Y5993900D01*
X5227800Y5980800D01*
X5225900Y5969000D01*
X5266700D01*
G01X6926900Y2603500D02*
Y2667000D01*
X6940400D01*
X6945900Y2663800D01*
X6949900Y2659600D01*
X6953300Y2653200D01*
X6956000Y2645800D01*
X6956700Y2635200D01*
X6956000Y2624700D01*
X6953300Y2617300D01*
X6949900Y2610900D01*
X6945900Y2606700D01*
X6940400Y2603500D01*
X6926900D01*
G01X6984700Y2656400D02*
X6988800Y2662800D01*
X6993500Y2665900D01*
X6999000Y2667000D01*
X7005700Y2664900D01*
X7010500Y2659600D01*
X7011800Y2653200D01*
X7011100Y2646900D01*
X7008400Y2641600D01*
X6994900Y2631000D01*
X6988800Y2623600D01*
X6984700Y2613000D01*
X6983400Y2603500D01*
X7011800D01*
G01X6946100Y4851500D02*
Y4930200D01*
X6970500D01*
X6978300Y4926300D01*
X6983100Y4921000D01*
X6985100Y4910500D01*
X6983100Y4900000D01*
X6977300Y4893500D01*
X6970500Y4889500D01*
X6946100D01*
G01X6970500D02*
X6985100Y4851500D01*
G01X7056000D02*
Y4930200D01*
X7020000Y4873800D01*
X7068600D01*
G01X6926100Y4254500D02*
Y4333200D01*
X6950500D01*
X6958300Y4329300D01*
X6963100Y4324000D01*
X6965100Y4313500D01*
X6963100Y4303000D01*
X6957300Y4296500D01*
X6950500Y4292500D01*
X6926100D01*
G01X6950500D02*
X6965100Y4254500D01*
G01X7002900Y4266300D02*
X7008700Y4259700D01*
X7015500Y4255800D01*
X7024300Y4254500D01*
X7033100Y4257100D01*
X7039900Y4262400D01*
X7044700Y4271600D01*
X7045700Y4282000D01*
X7043800Y4292500D01*
X7038900Y4299100D01*
X7032100Y4304300D01*
X7025300Y4305700D01*
X7018500Y4304300D01*
X7009700Y4299100D01*
X7012600Y4333200D01*
X7038900D01*
G01X6926900Y5715000D02*
Y5778500D01*
X6940400D01*
X6945900Y5775300D01*
X6949900Y5771100D01*
X6953300Y5764700D01*
X6956000Y5757300D01*
X6956700Y5746700D01*
X6956000Y5736200D01*
X6953300Y5728800D01*
X6949900Y5722400D01*
X6945900Y5718200D01*
X6940400Y5715000D01*
X6926900D01*
G01X6997600D02*
Y5778500D01*
X6989500Y5765800D01*
G01Y5715000D02*
X7005700D01*
G01X7810500Y2222500D02*
X7327900D01*
Y2476500D01*
X7810500D01*
Y2222500D01*
G01X7721600D02*
Y2476500D01*
G01X7734300Y2222500D02*
Y2476500D01*
G01X7975600Y3873500D02*
X7264400D01*
Y4127500D01*
X7975600D01*
Y3873500D01*
G01X7264400Y4762500D02*
X7975600D01*
Y4508500D01*
X7264400D01*
Y4762500D01*
G01X7366000Y5588000D02*
X7848600D01*
Y5334000D01*
X7366000D01*
Y5588000D01*
G01X7454900D02*
Y5334000D01*
G01X7442200Y5588000D02*
Y5334000D01*
G01X9461500Y2984500D02*
X9207500D01*
Y3492500D01*
X9461500D01*
Y2984500D01*
G01X9085100Y3635200D02*
X9090000Y3627400D01*
X9095800Y3622100D01*
X9102700Y3619500D01*
X9110400Y3622100D01*
X9116300Y3627400D01*
X9122100Y3635200D01*
X9124100Y3645700D01*
Y3698200D01*
G01X9183300Y3619500D02*
Y3698200D01*
X9171600Y3682500D01*
G01Y3619500D02*
X9195000D01*
M02*
