G04 ================== begin FILE IDENTIFICATION RECORD ==================*
G04 Layout Name:  C:/WORK_ORCAD/DACONVERTOR/allegro/DACONVERTOR.brd*
G04 Film Name:    TOP*
G04 File Format:  Gerber RS274X*
G04 File Origin:  Cadence Allegro 17.2-P019*
G04 Origin Date:  Wed Jul 31 15:47:12 2019*
G04 *
G04 Layer:  ETCH/TOP*
G04 Layer:  PIN/TOP*
G04 Layer:  VIA CLASS/TOP*
G04 *
G04 Offset:    (0.000 0.000)*
G04 Mirror:    No*
G04 Mode:      Positive*
G04 Rotation:  0*
G04 FullContactRelief:  No*
G04 UndefLineWidth:     0.000*
G04 ================== end FILE IDENTIFICATION RECORD ====================*
%FSLAX25Y25*MOMM*%
%IR0*IPPOS*OFA0.00000B0.00000*MIA0B0*SFA1.00000B1.00000*%
%ADD11C,1.524*%
%ADD13C,1.651*%
%ADD12R,1.524X1.524*%
%ADD10C,.635*%
%ADD14C,1.*%
%ADD15C,.5*%
G75*
%LPD*%
G75*
G54D10*
X500000Y500000D03*
Y6500000D03*
X9500000Y500000D03*
Y6500000D03*
G54D11*
X720000Y2618000D03*
Y2872000D03*
Y3126000D03*
Y3380000D03*
X1651000Y1016000D03*
Y1270000D03*
Y1524000D03*
Y1778000D03*
Y2032000D03*
Y2286000D03*
X1714500Y2921000D03*
Y3175000D03*
Y3429000D03*
X1270000Y5461000D03*
Y5207000D03*
X2413000Y1016000D03*
Y1270000D03*
Y1524000D03*
Y1778000D03*
Y2032000D03*
Y2286000D03*
Y2540000D03*
X2476500Y2921000D03*
Y3175000D03*
Y3429000D03*
Y3683000D03*
X5524500Y3175000D03*
Y3429000D03*
Y3683000D03*
Y4508500D03*
Y4762500D03*
Y5016500D03*
X6286500Y3175000D03*
Y3429000D03*
Y3683000D03*
Y3937000D03*
Y4508500D03*
Y4762500D03*
Y5016500D03*
Y5270500D03*
X7581900Y2984500D03*
X8610600Y5397500D03*
X9334500Y3365500D03*
Y3111500D03*
G54D12*
X1651000Y2540000D03*
X1714500Y3683000D03*
X5524500Y3937000D03*
Y5270500D03*
X7620000Y5397500D03*
X8572500Y2984500D03*
G54D13*
X1841500Y4572000D03*
X1778000Y5461000D03*
X1905000Y5080000D03*
X2980000Y1010000D03*
X2990000Y1780000D03*
X3000000Y1380000D03*
X2950000Y2130000D03*
X2857500Y4572000D03*
X3365500Y4699000D03*
X2794000Y5461000D03*
X3302000Y5080000D03*
X2921000D03*
X3996000Y1010000D03*
X4006000Y1780000D03*
X4016000Y1380000D03*
X3966000Y2130000D03*
X3974000Y2500000D03*
X3980000Y2800000D03*
X3937000Y3429000D03*
Y3810000D03*
X4953000Y1079500D03*
Y2095500D03*
X4990000Y2500000D03*
X4996000Y2800000D03*
X4953000Y3429000D03*
Y3810000D03*
X4381500Y4699000D03*
X4318000Y5080000D03*
X5560000Y950000D03*
Y1966000D03*
X5380000Y5780000D03*
X6396000D03*
X7620000Y3683000D03*
X7600000Y4610000D03*
X8636000Y3683000D03*
X8616000Y4610000D03*
G54D14*
G01X1714500Y2921000D02*
X1023000D01*
X720000Y2618000D01*
G01X2476500Y3429000D02*
X1968500Y3937000D01*
X1079500D01*
X720000Y3577500D01*
Y3380000D01*
G01X1714500Y2921000D02*
X1905000Y2730500D01*
X2857500D01*
X3302000Y3175000D01*
X5524500D01*
G01X2476500Y3429000D02*
X3238500Y4191000D01*
X5778500D01*
X6286500Y3683000D01*
G54D15*
G01X1270000Y5461000D02*
X1778000D01*
G01X2980000Y1010000D02*
X2533000D01*
X2527000Y1016000D01*
X2413000D01*
G01X2990000Y1780000D02*
X2529000D01*
X2527000Y1778000D01*
X2413000D01*
G01Y1270000D02*
X2890000D01*
X3000000Y1380000D01*
G01X2950000Y2130000D02*
X2511000D01*
X2413000Y2032000D01*
G01Y2540000D02*
X2476500D01*
X2730500Y2286000D01*
X6883400D01*
X7581900Y2984500D01*
G01X2362500Y2540000D02*
X2413000D01*
G01X3302000Y5080000D02*
X2921000D01*
G01X3996000Y1010000D02*
X4763100D01*
X4832600Y1079500D01*
X4953000D01*
G01X4006000Y1780000D02*
X5374000D01*
X5560000Y1966000D01*
G01X5524500Y3683000D02*
X5434900Y3593400D01*
X4153600D01*
X3937000Y3810000D01*
G01X4381500Y4699000D02*
X5347000D01*
X5410500Y4762500D01*
X5524500D01*
G01X4318000Y5080000D02*
X5347000D01*
X5410500Y5016500D01*
X5524500D01*
G01X4953000Y1079500D02*
X5430500D01*
X5560000Y950000D01*
G01X4953000Y3810000D02*
X5905500D01*
X6286500Y3429000D01*
G01X9334500Y3111500D02*
X9144000Y3302000D01*
X6413500D01*
X6286500Y3429000D01*
G01Y4762500D02*
X7447500D01*
X7600000Y4610000D01*
M02*
